<svg width="80" height="80" viewBox="0 0 80 80" fill="none" xmlns="http://www.w3.org/2000/svg">
<rect width="80" height="80" rx="10" fill="#FFBA3C"/>
<rect width="80" height="80" rx="10" fill="url(#paint0_radial_1101_2117)" fill-opacity="0.4"/>
<path d="M34.7628 36.1972L34.5075 35.7549C33.6227 34.2422 32.7916 33.109 32.0142 32.3553C31.2282 31.6065 30.4226 31.1004 29.5973 30.8369C28.772 30.5733 27.874 30.4211 26.9035 30.3802C26.1727 30.3396 25.49 30.2539 24.8554 30.1231C24.2208 29.9922 23.6493 29.773 23.1408 29.4653C22.6272 29.1489 22.2078 28.7089 21.8823 28.1452C21.5368 27.5468 21.3751 26.9407 21.3971 26.3267C21.4191 25.7127 21.5996 25.146 21.9386 24.6265C22.2691 24.112 22.7209 23.6892 23.2943 23.3582C23.8505 23.0371 24.4493 22.859 25.0908 22.8239C25.7273 22.7802 26.344 22.9098 26.941 23.2126C27.533 23.5068 28.0471 24.002 28.4833 24.6983L33.7202 21.6749C32.676 19.9651 31.4391 18.7714 30.0096 18.0936C28.575 17.4071 27.0557 17.1568 25.4517 17.3429C23.8428 17.5202 22.2639 18.056 20.7151 18.9502C19.0123 19.9333 17.6715 21.089 16.6927 22.4172C15.709 23.7368 15.1553 25.1491 15.0317 26.6543C14.9081 28.1595 15.2844 29.6708 16.1606 31.1885C16.7464 32.2031 17.434 33.0087 18.2233 33.6052C18.9991 34.1979 19.8575 34.6274 20.7984 34.8936C21.7343 35.1511 22.7446 35.2905 23.8293 35.3117C24.7406 35.329 25.5422 35.4328 26.2339 35.6232C26.9171 35.8184 27.5334 36.1448 28.0828 36.6023C28.6236 37.0648 29.1436 37.7185 29.6429 38.5635L29.8982 39.0057L34.7628 36.1972Z" fill="#2E1F05"/>
<path d="M34.7628 36.1972L34.5075 35.7549C33.6227 34.2422 32.7916 33.109 32.0142 32.3553C31.2282 31.6065 30.4226 31.1004 29.5973 30.8369C28.772 30.5733 27.874 30.4211 26.9035 30.3802C26.1727 30.3396 25.49 30.2539 24.8554 30.1231C24.2208 29.9922 23.6493 29.773 23.1408 29.4653C22.6272 29.1489 22.2078 28.7089 21.8823 28.1452C21.5368 27.5468 21.3751 26.9407 21.3971 26.3267C21.4191 25.7127 21.5996 25.146 21.9386 24.6265C22.2691 24.112 22.7209 23.6892 23.2943 23.3582C23.8505 23.0371 24.4493 22.859 25.0908 22.8239C25.7273 22.7802 26.344 22.9098 26.941 23.2126C27.533 23.5068 28.0471 24.002 28.4833 24.6983L33.7202 21.6749C32.676 19.9651 31.4391 18.7714 30.0096 18.0936C28.575 17.4071 27.0557 17.1568 25.4517 17.3429C23.8428 17.5202 22.2639 18.056 20.7151 18.9502C19.0123 19.9333 17.6715 21.089 16.6927 22.4172C15.709 23.7368 15.1553 25.1491 15.0317 26.6543C14.9081 28.1595 15.2844 29.6708 16.1606 31.1885C16.7464 32.2031 17.434 33.0087 18.2233 33.6052C18.9991 34.1979 19.8575 34.6274 20.7984 34.8936C21.7343 35.1511 22.7446 35.2905 23.8293 35.3117C24.7406 35.329 25.5422 35.4328 26.2339 35.6232C26.9171 35.8184 27.5334 36.1448 28.0828 36.6023C28.6236 37.0648 29.1436 37.7185 29.6429 38.5635L29.8982 39.0057L34.7628 36.1972Z" fill="url(#paint1_linear_1101_2117)" fill-opacity="0.2"/>
<path d="M45.7731 36.1954L46.0285 35.7531C46.9133 34.2404 47.7443 33.1072 48.5215 32.3534C49.3074 31.6045 50.1128 31.0983 50.9378 30.8346C51.7628 30.5709 52.6604 30.4184 53.6306 30.3773C54.3611 30.3365 55.0435 30.2507 55.6779 30.1197C56.3122 29.9887 56.8836 29.7694 57.3919 29.4616C57.9053 29.1452 58.3247 28.7051 58.6502 28.1414C58.9956 27.543 59.1574 26.9369 59.1356 26.323C59.1137 25.7091 58.9334 25.1425 58.5947 24.6232C58.2645 24.1088 57.813 23.6862 57.24 23.3554C56.6841 23.0345 56.0855 22.8565 55.4443 22.8217C54.8081 22.7781 54.1916 22.9078 53.5948 23.2108C53.003 23.505 52.489 24.0003 52.0528 24.6966L46.8189 21.6749C47.863 19.9651 49.0997 18.7712 50.5288 18.0932C51.9629 17.4064 53.4816 17.1558 55.0849 17.3415C56.6931 17.5184 58.2712 18.0537 59.8191 18.9474C61.521 19.93 62.8609 21.0852 63.8389 22.413C64.822 23.7321 65.375 25.1441 65.4982 26.649C65.6214 28.1539 65.2449 29.6652 64.3687 31.1828C63.7829 32.1975 63.0954 33.0031 62.3062 33.5997C61.5306 34.1926 60.6726 34.6222 59.732 34.8886C58.7964 35.1463 57.7865 35.2859 56.7022 35.3074C55.7913 35.3249 54.9901 35.4289 54.2986 35.6194C53.6156 35.8148 52.9995 36.1413 52.4502 36.5989C51.9095 37.0614 51.3896 37.7151 50.8903 38.5601L50.635 39.0024L45.7731 36.1954Z" fill="#2E1F05"/>
<path d="M45.7731 36.1954L46.0285 35.7531C46.9133 34.2404 47.7443 33.1072 48.5215 32.3534C49.3074 31.6045 50.1128 31.0983 50.9378 30.8346C51.7628 30.5709 52.6604 30.4184 53.6306 30.3773C54.3611 30.3365 55.0435 30.2507 55.6779 30.1197C56.3122 29.9887 56.8836 29.7694 57.3919 29.4616C57.9053 29.1452 58.3247 28.7051 58.6502 28.1414C58.9956 27.543 59.1574 26.9369 59.1356 26.323C59.1137 25.7091 58.9334 25.1425 58.5947 24.6232C58.2645 24.1088 57.813 23.6862 57.24 23.3554C56.6841 23.0345 56.0855 22.8565 55.4443 22.8217C54.8081 22.7781 54.1916 22.9078 53.5948 23.2108C53.003 23.505 52.489 24.0003 52.0528 24.6966L46.8189 21.6749C47.863 19.9651 49.0997 18.7712 50.5288 18.0932C51.9629 17.4064 53.4816 17.1558 55.0849 17.3415C56.6931 17.5184 58.2712 18.0537 59.8191 18.9474C61.521 19.93 62.8609 21.0852 63.8389 22.413C64.822 23.7321 65.375 25.1441 65.4982 26.649C65.6214 28.1539 65.2449 29.6652 64.3687 31.1828C63.7829 32.1975 63.0954 33.0031 62.3062 33.5997C61.5306 34.1926 60.6726 34.6222 59.732 34.8886C58.7964 35.1463 57.7865 35.2859 56.7022 35.3074C55.7913 35.3249 54.9901 35.4289 54.2986 35.6194C53.6156 35.8148 52.9995 36.1413 52.4502 36.5989C51.9095 37.0614 51.3896 37.7151 50.8903 38.5601L50.635 39.0024L45.7731 36.1954Z" fill="url(#paint2_linear_1101_2117)" fill-opacity="0.2"/>
<circle cx="39.5" cy="53.5" r="12.5" fill="#2E1F05"/>
<circle cx="39.5" cy="53.5" r="12.5" fill="url(#paint3_linear_1101_2117)" fill-opacity="0.2"/>
<defs>
<radialGradient id="paint0_radial_1101_2117" cx="0" cy="0" r="1" gradientUnits="userSpaceOnUse" gradientTransform="rotate(45) scale(63.6396)">
<stop stop-color="white"/>
<stop offset="1" stop-color="white" stop-opacity="0"/>
</radialGradient>
<linearGradient id="paint1_linear_1101_2117" x1="20.6445" y1="18.991" x2="31.6246" y2="38.009" gradientUnits="userSpaceOnUse">
<stop stop-color="white" stop-opacity="0"/>
<stop offset="1" stop-color="white"/>
</linearGradient>
<linearGradient id="paint2_linear_1101_2117" x1="59.8897" y1="18.9881" x2="48.9096" y2="38.0062" gradientUnits="userSpaceOnUse">
<stop stop-color="white" stop-opacity="0"/>
<stop offset="1" stop-color="white"/>
</linearGradient>
<linearGradient id="paint3_linear_1101_2117" x1="40" y1="41" x2="40" y2="54" gradientUnits="userSpaceOnUse">
<stop stop-color="white"/>
<stop offset="1" stop-color="white" stop-opacity="0"/>
</linearGradient>
</defs>
</svg>
