<svg width="80" height="80" viewBox="0 0 80 80" fill="none" xmlns="http://www.w3.org/2000/svg">
<rect width="80" height="80" rx="10" fill="#FF0000"/>
<rect width="80" height="80" rx="10" fill="url(#paint0_radial_1101_2121)" fill-opacity="0.4"/>
<path d="M30.5 60.5L60 50.5H20L13 53L30.5 60.5Z" fill="black" fill-opacity="0.7"/>
<path d="M30.5 60.5L60 50.5H20L13 53L30.5 60.5Z" fill="url(#paint1_linear_1101_2121)" fill-opacity="0.1"/>
<path d="M40 22.666L60 29.3327V50.666L40 57.3327V22.666Z" fill="black"/>
<path d="M20 29.3327L40 22.666V57.3327L20 50.666V29.3327Z" fill="#660909"/>
<path d="M20 29.3327L40 22.666V57.3327L20 50.666V29.3327Z" fill="url(#paint2_linear_1101_2121)" fill-opacity="0.2"/>
<path d="M66.4815 52.75L60 50.5L39.9999 57L48.7962 60L66.4815 52.75Z" fill="black" fill-opacity="0.88"/>
<defs>
<radialGradient id="paint0_radial_1101_2121" cx="0" cy="0" r="1" gradientUnits="userSpaceOnUse" gradientTransform="rotate(45) scale(63.6396)">
<stop stop-color="white"/>
<stop offset="1" stop-color="white" stop-opacity="0"/>
</radialGradient>
<linearGradient id="paint1_linear_1101_2121" x1="24" y1="64" x2="32" y2="56" gradientUnits="userSpaceOnUse">
<stop stop-color="white"/>
<stop offset="1" stop-color="white" stop-opacity="0"/>
</linearGradient>
<linearGradient id="paint2_linear_1101_2121" x1="17" y1="26.5" x2="45" y2="60.5" gradientUnits="userSpaceOnUse">
<stop stop-color="white"/>
<stop offset="1" stop-opacity="0"/>
</linearGradient>
</defs>
</svg>
