<svg width="80" height="80" viewBox="0 0 80 80" fill="none" xmlns="http://www.w3.org/2000/svg">
<rect width="80" height="80" rx="10" fill="#30D158"/>
<rect width="80" height="80" rx="10" fill="url(#paint0_radial_1101_2139)" fill-opacity="0.4"/>
<rect x="37.75" y="19.75" width="4.5" height="12.5" rx="2.25" fill="black" stroke="black" stroke-width="0.5"/>
<rect x="42" y="60" width="4" height="12" rx="2" transform="rotate(-180 42 60)" fill="black" fill-opacity="0.5"/>
<rect x="42.25" y="60.25" width="4.5" height="12.5" rx="2.25" transform="rotate(-180 42.25 60.25)" stroke="black" stroke-opacity="0.5" stroke-width="0.5"/>
<rect x="24.4434" y="27.2725" width="4" height="12" rx="2" transform="rotate(-45 24.4434 27.2725)" fill="black" fill-opacity="0.3"/>
<rect x="24.0898" y="27.2725" width="4.5" height="12.5" rx="2.25" transform="rotate(-45 24.0898 27.2725)" stroke="black" stroke-opacity="0.3" stroke-width="0.5"/>
<rect x="55.5557" y="52.7285" width="4" height="12" rx="2" transform="rotate(135 55.5557 52.7285)" fill="black" fill-opacity="0.6"/>
<rect x="55.9092" y="52.7285" width="4.5" height="12.5" rx="2.25" transform="rotate(135 55.9092 52.7285)" stroke="black" stroke-opacity="0.6" stroke-width="0.5"/>
<rect x="20" y="42" width="4" height="12" rx="2" transform="rotate(-90 20 42)" fill="black" fill-opacity="0.4"/>
<rect x="19.75" y="42.25" width="4.5" height="12.5" rx="2.25" transform="rotate(-90 19.75 42.25)" stroke="black" stroke-opacity="0.4" stroke-width="0.5"/>
<rect x="60" y="38" width="4" height="12" rx="2" transform="rotate(90 60 38)" fill="black" fill-opacity="0.7"/>
<rect x="60.25" y="37.75" width="4.5" height="12.5" rx="2.25" transform="rotate(90 60.25 37.75)" stroke="black" stroke-opacity="0.7" stroke-width="0.5"/>
<rect x="27.2725" y="55.5566" width="4" height="12" rx="2" transform="rotate(-135 27.2725 55.5566)" fill="black" fill-opacity="0.5"/>
<rect x="27.2725" y="55.9102" width="4.5" height="12.5" rx="2.25" transform="rotate(-135 27.2725 55.9102)" stroke="black" stroke-opacity="0.5" stroke-width="0.5"/>
<rect x="52.7285" y="24.4443" width="4" height="12" rx="2" transform="rotate(45 52.7285 24.4443)" fill="black" fill-opacity="0.8"/>
<rect x="52.7285" y="24.0908" width="4.5" height="12.5" rx="2.25" transform="rotate(45 52.7285 24.0908)" stroke="black" stroke-opacity="0.8" stroke-width="0.5"/>
<defs>
<radialGradient id="paint0_radial_1101_2139" cx="0" cy="0" r="1" gradientUnits="userSpaceOnUse" gradientTransform="rotate(45) scale(63.6396)">
<stop stop-color="white"/>
<stop offset="1" stop-color="white" stop-opacity="0"/>
</radialGradient>
</defs>
</svg>
