<svg width="100" height="100" viewBox="0 0 100 100" fill="none" xmlns="http://www.w3.org/2000/svg">
<g clip-path="url(#clip0_965_2256)">
<ellipse cx="12.5677" cy="61.4046" rx="10.1476" ry="3.80534" transform="rotate(-112.439 12.5677 61.4046)" fill="#2C2B23"/>
<ellipse cx="34.9212" cy="52.1731" rx="10.1476" ry="3.80534" transform="rotate(-112.439 34.9212 52.1731)" fill="#2C2B23"/>
<g clip-path="url(#clip1_965_2256)">
<path d="M10.065 52.465L9.5093 53.3349L16.2146 70.2362L17.0931 70.1479L19.2986 67.9562L22.3621 68.0634L24.6135 65.7613L27.677 65.8685L30.0388 63.6122L32.9596 63.5954L35.087 61.436L36.4208 61.3426L38.6653 61.2391L32.7906 47.0139L30.5837 43.4423L29.3892 44.759L27.9551 45.7172L25.8296 45.2227L24.5518 46.1163L22.4839 47.9767L20.253 47.8916L19.0024 48.4081L17.7161 49.9457L15.7706 50.1087L14.1514 49.954L13.1132 51.2062L11.6978 52.4311L10.065 52.465Z" fill="#2C2B23"/>
<path d="M5.14233 54.727L5.22814 54.7387L5.31335 54.749L5.39786 54.7575L5.48158 54.7642L5.56442 54.7687L5.64628 54.7709L5.72711 54.7705L5.80681 54.7675L5.88534 54.7616L5.96262 54.7526L6.03862 54.7406L6.11328 54.7253L6.18658 54.7067L6.25848 54.6848L6.32898 54.6594L6.39806 54.6307L6.46573 54.5984L6.53199 54.5628L6.59686 54.5238L6.66037 54.4816L6.72255 54.4361L6.78345 54.3875L6.84312 54.3359L6.90161 54.2815L6.959 54.2244L7.01534 54.1648L7.07074 54.1028L7.12526 54.0388L7.17899 53.9728L7.23205 53.9052L7.28451 53.8362L7.33649 53.766L7.3881 53.6949L7.43943 53.6232L7.49061 53.551L7.54174 53.4788L7.59292 53.4066L7.64429 53.335L7.69593 53.264L7.74797 53.1939L7.80051 53.125L7.85364 53.0576L7.90747 52.9919L7.9621 52.9281L8.01761 52.8665L8.07408 52.8072L8.1316 52.7504L8.19024 52.6963L8.25006 52.6451L8.31112 52.5969L8.37347 52.5518L8.43715 52.51L8.5022 52.4714L8.56863 52.4362L8.63648 52.4044L8.70574 52.3761L8.77642 52.3512L8.8485 52.3297L8.92197 52.3115L8.99681 52.2966L9.07297 52.285L9.15041 52.2765L9.22909 52.2709L9.30894 52.2682L9.3899 52.2682L9.47189 52.2707L9.55485 52.2755L9.63867 52.2824L9.72327 52.2912L9.80856 52.3017L9.89444 52.3135L9.9808 52.3266L10.0675 52.3406L10.1546 52.3552L10.2417 52.3702L10.3289 52.3853L10.4161 52.4003L10.5031 52.4149L10.5898 52.4287L10.6761 52.4417L10.7619 52.4534L10.8471 52.4637L10.9316 52.4722L11.0153 52.4789L11.0982 52.4834L11.18 52.4856L11.2608 52.4852L11.3406 52.4822L11.4191 52.4763L11.4964 52.4673L11.5724 52.4553L11.647 52.44L11.7203 52.4214L11.7922 52.3995L11.8627 52.3741L11.9318 52.3454L11.9995 52.3131L12.0657 52.2775L12.1306 52.2386L12.1941 52.1963L12.2563 52.1508L12.3172 52.1022L12.3769 52.0506L12.4354 51.9962L12.4927 51.9391L12.5491 51.8795L12.6045 51.8175L12.659 51.7535L12.7127 51.6875L12.7658 51.6199L12.8183 51.5509L12.8702 51.4807L12.9218 51.4096L12.9732 51.3379L13.0244 51.2657L13.0755 51.1935L13.1267 51.1214L13.178 51.0497L13.2297 50.9787L13.2817 50.9086L13.3342 50.8397L13.3874 50.7723L13.4412 50.7066L13.4958 50.6429L13.5513 50.5812L13.6078 50.5219L13.6653 50.4651L13.724 50.411L13.7838 50.3598L13.8449 50.3116L13.9072 50.2665L13.9709 50.2247L14.0359 50.1861L14.1024 50.1509L14.1702 50.1191L14.2395 50.0908L14.3102 50.0659L14.3822 50.0444L14.4557 50.0262L14.5305 50.0113L14.6067 49.9997L14.6842 49.9912L14.7628 49.9856L14.8427 49.9829L14.9236 49.9829L15.0056 49.9854L15.0886 49.9902L15.1724 49.9971L15.257 50.0059L15.3423 50.0164L15.4282 50.0282L15.5145 50.0413L15.6013 50.0553L15.6883 50.0699L15.7755 50.0849L15.8627 50.1L15.9498 50.115L16.0368 50.1296L16.1235 50.1435L16.2098 50.1564L16.2956 50.1681L16.3808 50.1784L16.4653 50.1869L16.5491 50.1936L16.6319 50.1981L16.7138 50.2003L16.7946 50.1999L16.8743 50.1969L16.9528 50.191L17.0301 50.182L17.1061 50.17L17.1808 50.1547L17.2541 50.1361L17.326 50.1142L17.3965 50.0888L17.4655 50.0601L17.5332 50.0278L17.5995 49.9922L17.6643 49.9533L17.7279 49.911L17.79 49.8655L17.8509 49.8169L17.9106 49.7653L17.9691 49.7109L18.0265 49.6538L18.0828 49.5942L18.1382 49.5322L18.1927 49.4682L18.2465 49.4022L18.2995 49.3346L18.352 49.2656L18.404 49.1954L18.4556 49.1243L18.5069 49.0526L18.5581 48.9804L18.6092 48.9082L18.6604 48.8361L18.7118 48.7644L18.7634 48.6934L18.8155 48.6233L18.868 48.5545L18.9211 48.4871L18.975 48.4213L19.0296 48.3576L19.0851 48.2959L19.1416 48.2366L19.1991 48.1798L19.2577 48.1257L19.3175 48.0745L19.3786 48.0263L19.441 47.9812L19.5046 47.9394L19.5697 47.9008L19.6361 47.8656L19.704 47.8338L19.7732 47.8055L19.8439 47.7806L19.916 47.7591L19.9895 47.7409L20.0643 47.7261L20.1404 47.7144L20.2179 47.7059L20.2966 47.7003L20.3764 47.6976L20.4574 47.6976L20.5394 47.7001L20.6223 47.7049L20.7062 47.7118L20.7908 47.7206L20.876 47.7311L20.9619 47.7429L21.0483 47.756L21.135 47.77L21.222 47.7846L21.3092 47.7996L21.3964 47.8147L21.4836 47.8297L21.5706 47.8443L21.6573 47.8582L21.7436 47.8711L21.8294 47.8828L21.9146 47.8931L21.9991 47.9016L22.0828 47.9083L22.1656 47.9128L22.2475 47.915L22.3283 47.9146L22.408 47.9116L22.4866 47.9057L22.5638 47.8967L22.6398 47.8847L22.7145 47.8694L22.7878 47.8508L22.8597 47.8289L22.9302 47.8035L22.9993 47.7748L23.067 47.7426L23.1332 47.7069L23.1981 47.668L23.2616 47.6257L23.3238 47.5802L23.3847 47.5316L23.4443 47.48L23.5028 47.4256L23.5602 47.3685L23.6166 47.3089L23.672 47.2469L23.7265 47.1829L23.7802 47.1169L23.8333 47.0493L23.8857 46.9803L23.9377 46.9101L23.9893 46.839L24.0407 46.7673L24.0918 46.6951L24.143 46.6229L24.1941 46.5508L24.2455 46.4791L24.2972 46.4081L24.3492 46.338L24.4017 46.2692L24.4549 46.2018L24.5087 46.136L24.5633 46.0723L24.6188 46.0106L24.6753 45.9513L24.7328 45.8945L24.7915 45.8404L24.8513 45.7892L24.9123 45.741L24.9747 45.6959L25.0384 45.6541L25.1034 45.6155L25.1699 45.5803L25.2377 45.5486L25.307 45.5202L25.3776 45.4953L25.4497 45.4738L25.5232 45.4556L25.598 45.4408L25.6742 45.4291L25.7516 45.4206L25.8303 45.415L25.9102 45.4123L25.9911 45.4123L26.0731 45.4148L26.1561 45.4196L26.2399 45.4265L26.3245 45.4353L26.4098 45.4458L26.4957 45.4577L26.582 45.4707L26.6688 45.4847L26.7558 45.4993L26.8429 45.5143L26.9302 45.5294L27.0173 45.5444L27.1043 45.559L27.191 45.5729L27.2773 45.5858L27.3631 45.5975L27.4483 45.6078L27.5328 45.6163L27.6165 45.623L27.6994 45.6275L27.7813 45.6297L27.8621 45.6293L27.9418 45.6263L28.0203 45.6204L28.0976 45.6114L28.1736 45.5994L28.2482 45.5841L28.3215 45.5655L28.3934 45.5436L28.4639 45.5182L28.533 45.4895L28.6007 45.4573L28.667 45.4216L28.7318 45.3827L28.7953 45.3404L28.8575 45.2949L28.9184 45.2463L28.9781 45.1947L29.0366 45.1403L29.094 45.0832L29.1503 45.0236L29.2057 44.9616L29.2602 44.8976L29.314 44.8316L29.367 44.764L29.4195 44.695L29.4715 44.6248L29.5231 44.5537L29.5744 44.482L29.6256 44.4098L29.6767 44.3376L29.7279 44.2655L29.7793 44.1938L29.8309 44.1228L29.8829 44.0527L29.9355 43.9839L29.9886 43.9165L30.0424 43.8507L30.0971 43.787L30.1526 43.7253L30.209 43.666L30.2666 43.6092L30.3252 43.5551L30.385 43.5039L30.4461 43.4557L30.5084 43.4106L30.5721 43.3688L30.6372 43.3302L30.7036 43.295L30.7714 43.2633L30.8407 43.2349L30.9114 43.21L30.9835 43.1885L31.0569 43.1703L31.1318 43.1555L31.2079 43.1438L31.2854 43.1353L31.3641 43.1297L31.4439 43.127L31.5249 43.127L31.6069 43.1295L31.6898 43.1343L31.7736 43.1412L31.8582 43.15L31.9435 43.1605L32.0294 43.1724L32.1158 43.1854L32.2025 43.1994L32.2895 43.214L32.3767 43.229L32.4639 43.2442L32.5511 43.2591L32.638 43.2737L32.7247 43.2876" stroke="#2C2B23" stroke-width="0.84563" stroke-miterlimit="10" stroke-linecap="round" stroke-linejoin="round"/>
<path d="M39.3775 60.5292L39.3269 60.5965L39.2757 60.6624L39.2238 60.7266L39.1711 60.7889L39.1175 60.8491L39.063 60.907L39.0075 60.9624L38.9509 61.0152L38.8931 61.0651L38.8341 61.1121L38.7738 61.156L38.7122 61.1968L38.6492 61.2343L38.5849 61.2685L38.5192 61.2993L38.4522 61.3267L38.3837 61.3508L38.3138 61.3716L38.2426 61.389L38.17 61.4032L38.0962 61.4142L38.021 61.4221L37.9447 61.4272L37.8672 61.4294L37.7886 61.429L37.709 61.4261L37.6284 61.4209L37.547 61.4137L37.4649 61.4046L37.382 61.3939L37.2986 61.3818L37.2147 61.3685L37.1304 61.3543L37.0459 61.3395L36.9612 61.3243L36.8764 61.309L36.7917 61.2938L36.7072 61.279L36.623 61.265L36.5391 61.2518L36.4558 61.2398L36.373 61.2293L36.2909 61.2204L36.2096 61.2135L36.1292 61.2086L36.0497 61.206L35.9712 61.2059L35.8939 61.2085L35.8177 61.2139L35.7427 61.2222L35.669 61.2336L35.5966 61.2482L35.5256 61.2661L35.4559 61.2872L35.3876 61.3117L35.3207 61.3396L35.2552 61.3709L35.191 61.4055L35.1283 61.4434L35.0668 61.4845L35.0067 61.5288L34.9479 61.5762L34.8902 61.6265L34.8337 61.6796L34.7783 61.7354L34.7239 61.7936L34.6705 61.8541L34.6179 61.9166L34.5661 61.9811L34.515 62.0471L34.4644 62.1146L34.4143 62.1832L34.3646 62.2527L34.3152 62.3229L34.2659 62.3934L34.2166 62.4641L34.1673 62.5346L34.1179 62.6047L34.0681 62.6741L34.018 62.7426L33.9673 62.8099L33.9161 62.8757L33.8642 62.9399L33.8115 63.0022L33.758 63.0625L33.7035 63.1204L33.6479 63.1758L33.5913 63.2286L33.5335 63.2785L33.4745 63.3255L33.4142 63.3694L33.3526 63.4102L33.2897 63.4476L33.2254 63.4818L33.1597 63.5127L33.0926 63.5401L33.0241 63.5642L32.9543 63.5849L32.883 63.6023L32.8105 63.6165L32.7366 63.6275L32.6615 63.6355L32.5851 63.6405L32.5076 63.6428L32.429 63.6423L32.3494 63.6395L32.2689 63.6343L32.1875 63.6271L32.1053 63.618L32.0225 63.6073L31.939 63.5951L31.8551 63.5818L31.7708 63.5677L31.6863 63.5528L31.6016 63.5376L31.5169 63.5223L31.4322 63.5072L31.3477 63.4924L31.2634 63.4783L31.1796 63.4652L31.0962 63.4532L31.0134 63.4427L30.9314 63.4338L30.8501 63.4268L30.7696 63.4219L30.6901 63.4194L30.6117 63.4193L30.5343 63.4219L30.4581 63.4272L30.3832 63.4356L30.3094 63.447L30.2371 63.4616L30.166 63.4794L30.0963 63.5006L30.028 63.5251L29.9611 63.553L29.8956 63.5842L29.8315 63.6188L29.7687 63.6567L29.7073 63.6979L29.6472 63.7422L29.5883 63.7896L29.5307 63.8399L29.4742 63.893L29.4188 63.9487L29.3644 64.007L29.3109 64.0674L29.2584 64.13L29.2066 64.1944L29.1554 64.2605L29.1049 64.328L29.0548 64.3966L29.0051 64.4661L28.9556 64.5362L28.9063 64.6068L28.8571 64.6774L28.8078 64.7479L28.7583 64.818L28.7085 64.8874L28.6584 64.9559L28.6078 65.0232L28.5566 65.0891L28.5047 65.1533L28.452 65.2156L28.3984 65.2758L28.3439 65.3337L28.2884 65.3892L28.2317 65.4419L28.174 65.4919L28.1149 65.5388L28.0547 65.5828L27.9931 65.6235L27.9301 65.661L27.8658 65.6952L27.8001 65.726L27.733 65.7535L27.6646 65.7775L27.5947 65.7983L27.5235 65.8157L27.4509 65.8299L27.3771 65.8409L27.3019 65.8489L27.2256 65.8539L27.1481 65.8561L27.0695 65.8557L26.9899 65.8528L26.9093 65.8477L26.8279 65.8404L26.7457 65.8313L26.6629 65.8206L26.5795 65.8085L26.4956 65.7952L26.4113 65.781L26.3267 65.7662L26.242 65.751L26.1573 65.7357L26.0726 65.7205L25.9881 65.7058L25.9039 65.6917L25.82 65.6785L25.7367 65.6666L25.6539 65.656L25.5718 65.6472L25.4905 65.6402L25.4101 65.6353L25.3306 65.6327L25.2521 65.6326L25.1748 65.6352L25.0986 65.6406L25.0236 65.6489L24.9499 65.6604L24.8775 65.675L24.8064 65.6928L24.7368 65.7139L24.6685 65.7385L24.6016 65.7663L24.536 65.7976L24.4719 65.8322L24.4091 65.8701L24.3477 65.9113L24.2876 65.9556L24.2287 66.0029L24.1711 66.0532L24.1146 66.1064L24.0592 66.1621L24.0048 66.2203L23.9514 66.2808L23.8988 66.3434L23.847 66.4078L23.7959 66.4739L23.7453 66.5413L23.6952 66.6099L23.6455 66.6795L23.5961 66.7496L23.5468 66.8201L23.4975 66.8908L23.4482 66.9613L23.3987 67.0314L23.349 67.1008L23.2989 67.1693L23.2482 67.2366L23.197 67.3025L23.1451 67.3667L23.0924 67.429L23.0389 67.4892L22.9844 67.5471L22.9288 67.6025L22.8722 67.6553L22.8144 67.7052L22.7554 67.7522L22.6951 67.7961L22.6335 67.8369L22.5706 67.8744L22.5063 67.9086L22.4406 67.9394L22.3735 67.9668L22.305 67.9909L22.2352 68.0116L22.1639 68.0291L22.0914 68.0432L22.0175 68.0543L21.9424 68.0622L21.866 68.0673L21.7885 68.0695L21.7099 68.0691L21.6303 68.0662L21.5498 68.061L21.4684 68.0538L21.3862 68.0447L21.3033 68.034L21.2199 68.0218L21.136 68.0086L21.0517 67.9944L20.9672 67.9796L20.8825 67.9644L20.7977 67.949L20.7131 67.9339L20.6285 67.9191L20.5443 67.905L20.4605 67.8919L20.3771 67.8799L20.2943 67.8694L20.2122 67.8605L20.1309 67.8535L20.0505 67.8487L19.971 67.8461L19.8926 67.846L19.8152 67.8486L19.739 67.854L19.664 67.8623L19.5903 67.8737L19.5179 67.8883L19.4469 67.9062L19.3772 67.9273L19.3089 67.9518L19.242 67.9797L19.1765 68.011L19.1124 68.0456L19.0496 68.0835L18.9882 68.1246L18.928 68.1689L18.8692 68.2163L18.8115 68.2666L18.7551 68.3197L18.6997 68.3755L18.6453 68.4337L18.5918 68.4942L18.5393 68.5567L18.4874 68.6212L18.4363 68.6872L18.3857 68.7547L18.3357 68.8233L18.2859 68.8928L18.2365 68.963L18.1872 69.0335L18.138 69.1042L18.0887 69.1747L18.0392 69.2448L17.9894 69.3142L17.9393 69.3826L17.8887 69.4499L17.8374 69.5158L17.7855 69.58L17.7329 69.6423L17.6793 69.7026L17.6248 69.7605L17.5693 69.8159L17.5126 69.8686L17.4548 69.9186L17.3958 69.9656L17.3355 70.0095L17.274 70.0502L17.211 70.0877L17.1467 70.1219L17.081 70.1527L17.0139 70.1802L16.9455 70.2043L16.8756 70.225L16.8044 70.2424L16.7318 70.2566L16.6579 70.2676L16.5828 70.2756L16.5065 70.2806L16.429 70.2828L16.3504 70.2824L16.2708 70.2796L16.1902 70.2744L16.1088 70.2672L16.0266 70.2581L15.9438 70.2473L15.8604 70.2352L15.7765 70.2219L15.6922 70.2078L15.6076 70.1929L15.5229 70.1777L15.4382 70.1624L15.3535 70.1472L15.269 70.1325L15.1848 70.1184L15.1009 70.1053L15.0175 70.0933L14.9348 70.0828L14.8527 70.0739L14.7714 70.0669L14.691 70.062L14.6115 70.0595L14.533 70.0594L14.4557 70.0619L14.3795 70.0673L14.3045 70.0757L14.2308 70.0871L14.1584 70.1017L14.0873 70.1195L14.0176 70.1407L13.9493 70.1652L13.8824 70.1931L13.8169 70.2243L13.7528 70.2589L13.69 70.2968L13.6286 70.338L13.5685 70.3823L13.5096 70.4297L13.452 70.48L13.3955 70.5331L13.3401 70.5888L13.2857 70.647L13.2323 70.7075L13.1797 70.7701L13.1279 70.8345L13.0768 70.9006L13.0262 70.9681L12.9761 71.0367L12.9264 71.1062L12.8769 71.1763L12.8277 71.2469L12.7784 71.3175L12.7291 71.388L12.6796 71.4581L12.6299 71.5275" stroke="#2C2B23" stroke-width="0.84563" stroke-miterlimit="10" stroke-linecap="round" stroke-linejoin="round"/>
</g>
<ellipse cx="12.6462" cy="61.3715" rx="8.79455" ry="2.87514" transform="rotate(-112.439 12.6462 61.3715)" fill="#15130E"/>
<path fill-rule="evenodd" clip-rule="evenodd" d="M21.7287 68.5925C22.1414 68.9566 22.7452 69.0967 23.319 68.8597L35.4451 63.8519C35.4854 63.8353 35.5245 63.8171 35.5626 63.7975C35.6019 63.7851 35.6406 63.771 35.6789 63.7552C37.6214 62.953 37.4619 58.1035 35.3227 52.9235C35.1428 52.4879 34.6418 52.2898 34.2062 52.4697L28.7593 54.7191L28.7445 54.7254L21.7591 57.6101C21.4748 57.7276 21.3394 58.0532 21.4567 58.3376C21.4688 58.3669 21.4783 58.3972 21.4852 58.428C23.3466 63.2579 23.4614 67.669 21.7287 68.5925Z" fill="#15130E"/>
<path d="M26.707 66.1777C29.336 64.2137 27.5004 57.9819 26.254 55.1115L25.2379 55.5311C27.8908 62.4867 27.3227 65.527 26.707 66.1777Z" fill="#2C2B23"/>
<path d="M32.1777 63.918C34.8067 61.954 32.9711 55.7222 31.7247 52.8517L30.7086 53.2714C33.3615 60.2269 32.7934 63.2673 32.1777 63.918Z" fill="#2C2B23"/>
<ellipse cx="26.7728" cy="16.5625" rx="10.1476" ry="3.80533" transform="rotate(-37.4394 26.7728 16.5625)" fill="#2C2B23"/>
<ellipse cx="41.4759" cy="35.7656" rx="10.1476" ry="3.80533" transform="rotate(-37.4394 41.4759 35.7656)" fill="#2C2B23"/>
<g clip-path="url(#clip2_965_2256)">
<path d="M34.7605 11.8319L33.7765 11.5203L19.1865 22.3715L19.4992 23.1972L22.187 24.7603L22.8764 27.7471L25.6828 29.326L26.3721 32.3128L29.1628 34.0103L29.935 36.8271L32.5714 38.3231L33.0068 39.5873L33.6877 41.7286L45.9077 32.3724L48.7864 29.3162L47.2054 28.5032L45.9087 27.366L45.8362 25.1849L44.6423 24.1819L42.3101 22.666L41.8149 20.4891L40.9924 19.4148L39.1743 18.5703L38.5133 16.7333L38.2436 15.1292L36.7654 14.4504L35.2159 13.4003L34.7605 11.8319Z" fill="#2C2B23"/>
<path d="M31.3037 7.66315L31.3146 7.74907L31.3268 7.83403L31.3404 7.91788L31.3556 8.00047L31.3727 8.08165L31.3918 8.16129L31.413 8.23927L31.4366 8.31547L31.4626 8.38978L31.4913 8.46213L31.5226 8.53241L31.5566 8.60058L31.5936 8.66657L31.6334 8.73035L31.6761 8.79188L31.7218 8.85116L31.7704 8.90818L31.822 8.96297L31.8764 9.01554L31.9337 9.06594L31.9937 9.11423L32.0564 9.16048L32.1217 9.20476L32.1894 9.24718L32.2594 9.28782L32.3316 9.32682L32.4057 9.3643L32.4817 9.40038L32.5593 9.43523L32.6383 9.46898L32.7186 9.50179L32.7998 9.53383L32.8819 9.56528L32.9645 9.59629L33.0474 9.62705L33.1304 9.65773L33.2133 9.68851L33.2959 9.71957L33.3778 9.75108L33.459 9.78321L33.5391 9.81613L33.6179 9.85001L33.6953 9.88501L33.7711 9.92126L33.845 9.95892L33.9169 9.99812L33.9866 10.039L34.054 10.0816L34.119 10.1262L34.1814 10.1727L34.2411 10.2212L34.298 10.2719L34.3521 10.3247L34.4032 10.3798L34.4515 10.4371L34.4968 10.4967L34.5392 10.5585L34.5786 10.6226L34.6152 10.6888L34.6489 10.7573L34.6798 10.8278L34.7081 10.9004L34.7338 10.975L34.7571 11.0514L34.7781 11.1296L34.7969 11.2094L34.8138 11.2908L34.8288 11.3736L34.8422 11.4576L34.8541 11.5427L34.8649 11.6287L34.8746 11.7155L34.8836 11.8029L34.892 11.8907L34.9 11.9788L34.908 12.067L34.9161 12.155L34.9245 12.2428L34.9336 12.3301L34.9434 12.4169L34.9543 12.5028L34.9664 12.5877L34.98 12.6716L34.9953 12.7542L35.0123 12.8354L35.0314 12.915L35.0527 12.993L35.0763 13.0692L35.1023 13.1435L35.1309 13.2158L35.1622 13.2861L35.1963 13.3543L35.2332 13.4203L35.273 13.4841L35.3158 13.5456L35.3615 13.6049L35.4101 13.6619L35.4616 13.7167L35.5161 13.7692L35.5733 13.8196L35.6334 13.8679L35.6961 13.9142L35.7614 13.9585L35.8291 14.0009L35.8991 14.0415L35.9712 14.0805L36.0454 14.118L36.1214 14.1541L36.199 14.1889L36.278 14.2227L36.3583 14.2555L36.4395 14.2875L36.5215 14.319L36.6041 14.35L36.6871 14.3808L36.7701 14.4114L36.853 14.4422L36.9355 14.4733L37.0175 14.5048L37.0986 14.5369L37.1787 14.5698L37.2576 14.6037L37.335 14.6387L37.4108 14.675L37.4847 14.7126L37.5566 14.7518L37.6263 14.7927L37.6937 14.8353L37.7587 14.8799L37.821 14.9264L37.8807 14.9749L37.9376 15.0256L37.9917 15.0784L38.0429 15.1335L38.0912 15.1908L38.1365 15.2504L38.1788 15.3122L38.2183 15.3763L38.2548 15.4425L38.2885 15.511L38.3195 15.5815L38.3478 15.6541L38.3735 15.7287L38.3968 15.8051L38.4178 15.8833L38.4366 15.9631L38.4534 16.0445L38.4684 16.1273L38.4818 16.2113L38.4938 16.2964L38.5045 16.3824L38.5143 16.4692L38.5232 16.5566L38.5316 16.6444L38.5397 16.7325L38.5476 16.8207L38.5557 16.9087L38.5642 16.9965L38.5732 17.0838L38.5831 17.1706L38.594 17.2565L38.6061 17.3414L38.6197 17.4253L38.6349 17.5079L38.652 17.5891L38.6711 17.6687L38.6924 17.7467L38.7159 17.8229L38.742 17.8972L38.7706 17.9695L38.8019 18.0398L38.836 18.108L38.8729 18.174L38.9127 18.2378L38.9554 18.2993L39.0011 18.3586L39.0497 18.4156L39.1013 18.4704L39.1557 18.5229L39.213 18.5734L39.273 18.6216L39.3357 18.6679L39.401 18.7122L39.4687 18.7546L39.5387 18.7952L39.6109 18.8342L39.6851 18.8717L39.761 18.9078L39.8386 18.9426L39.9177 18.9764L39.9979 19.0092L40.0792 19.0412L40.1612 19.0727L40.2438 19.1037L40.3267 19.1345L40.4098 19.1651L40.4927 19.1959L40.5752 19.227L40.6572 19.2585L40.7383 19.2906L40.8184 19.3235L40.8973 19.3574L40.9747 19.3924L41.0504 19.4287L41.1243 19.4663L41.1962 19.5055L41.266 19.5464L41.3334 19.589L41.3983 19.6336L41.4607 19.6801L41.5204 19.7286L41.5773 19.7793L41.6314 19.8322L41.6826 19.8872L41.7308 19.9445L41.7761 20.0041L41.8185 20.0659L41.8579 20.13L41.8945 20.1962L41.9282 20.2647L41.9592 20.3352L41.9874 20.4078L42.0132 20.4824L42.0365 20.5588L42.0574 20.637L42.0763 20.7169L42.0931 20.7982L42.1081 20.881L42.1215 20.965L42.1335 21.0501L42.1442 21.1361L42.1539 21.2229L42.1629 21.3103L42.1713 21.3981L42.1794 21.4862L42.1873 21.5744L42.1954 21.6624L42.2039 21.7502L42.2129 21.8376L42.2227 21.9243L42.2336 22.0102L42.2458 22.0951L42.2594 22.179L42.2746 22.2616L42.2917 22.3428L42.3108 22.4224L42.332 22.5004L42.3556 22.5766L42.3816 22.6509L42.4103 22.7232L42.4416 22.7935L42.4756 22.8617L42.5126 22.9277L42.5524 22.9915L42.5951 23.053L42.6408 23.1123L42.6894 23.1693L42.741 23.2241L42.7954 23.2767L42.8527 23.3271L42.9127 23.3754L42.9754 23.4216L43.0407 23.4659L43.1084 23.5083L43.1784 23.5489L43.2506 23.5879L43.3247 23.6254L43.4007 23.6615L43.4783 23.6963L43.5573 23.7301L43.6376 23.7629L43.7188 23.7949L43.8009 23.8264L43.8835 23.8574L43.9664 23.8882L44.0494 23.9188L44.1323 23.9496L44.2149 23.9807L44.2968 24.0122L44.378 24.0443L44.4581 24.0773L44.5369 24.1111L44.6143 24.1461L44.6901 24.1824L44.764 24.22L44.8359 24.2592L44.9056 24.3001L44.973 24.3427L45.038 24.3873L45.1004 24.4338L45.1601 24.4823L45.217 24.533L45.271 24.5859L45.3222 24.6409L45.3705 24.6982L45.4158 24.7578L45.4582 24.8196L45.4976 24.8837L45.5341 24.9499L45.5679 25.0184L45.5988 25.0889L45.6271 25.1615L45.6528 25.2361L45.6761 25.3125L45.6971 25.3907L45.7159 25.4706L45.7327 25.5519L45.7478 25.6347L45.7612 25.7187L45.7731 25.8038L45.7839 25.8898L45.7936 25.9766L45.8026 26.064L45.811 26.1518L45.819 26.2399L45.827 26.3281L45.8351 26.4161L45.8435 26.5039L45.8526 26.5913L45.8624 26.678L45.8733 26.7639L45.8854 26.8489L45.899 26.9327L45.9143 27.0153L45.9313 27.0965L45.9504 27.1761L45.9717 27.2541L45.9953 27.3303L46.0213 27.4046L46.0499 27.4769L46.0812 27.5472L46.1153 27.6154L46.1522 27.6814L46.192 27.7452L46.2348 27.8067L46.2805 27.866L46.3291 27.923L46.3806 27.9778L46.4351 28.0304L46.4923 28.0808L46.5524 28.1291L46.6151 28.1753L46.6803 28.2196L46.7481 28.262L46.8181 28.3026L46.8902 28.3416L46.9644 28.3791L47.0404 28.4152L47.118 28.45L47.197 28.4838L47.2772 28.5166L47.3585 28.5487L47.4405 28.5801L47.5231 28.6111L47.6061 28.6419L47.6891 28.6726L47.772 28.7033L47.8545 28.7344L47.9365 28.7659L48.0176 28.798L48.0977 28.831L48.1766 28.8648L48.254 28.8998L48.3297 28.9361L48.4037 28.9737L48.4756 29.0129L48.5453 29.0538L48.6127 29.0965L48.6777 29.141L48.74 29.1875L48.7997 29.236L48.8566 29.2867L48.9107 29.3396L48.9619 29.3946L49.0102 29.4519L49.0555 29.5115L49.0978 29.5733L49.1373 29.6374L49.1738 29.7036L49.2075 29.7721L49.2385 29.8426L49.2668 29.9152L49.2925 29.9898L49.3158 30.0662L49.3368 30.1444L49.3556 30.2243L49.3724 30.3056L49.3874 30.3884L49.4008 30.4724L49.4128 30.5575L49.4235 30.6435L49.4333 30.7303L49.4422 30.8177L49.4506 30.9055L49.4587 30.9936L49.4666 31.0818L49.4747 31.1698L49.4832 31.2576L49.4922 31.345" stroke="#2C2B23" stroke-width="0.84563" stroke-miterlimit="10" stroke-linecap="round" stroke-linejoin="round"/>
<path d="M34.5584 42.2342L34.4803 42.2027L34.4034 42.1703L34.328 42.1368L34.2541 42.102L34.1821 42.0659L34.1121 42.0282L34.0442 41.9889L33.9785 41.9479L33.9153 41.905L33.8547 41.8601L33.7966 41.8133L33.7413 41.7643L33.6888 41.7132L33.6392 41.66L33.5924 41.6045L33.5485 41.5468L33.5075 41.4869L33.4694 41.4248L33.4342 41.3605L33.4017 41.2941L33.3719 41.2256L33.3448 41.1551L33.3202 41.0826L33.298 41.0083L33.278 40.9323L33.2602 40.8547L33.2443 40.7755L33.2303 40.695L33.2178 40.6133L33.2067 40.5305L33.1968 40.4468L33.1879 40.3623L33.1798 40.2772L33.1722 40.1917L33.165 40.106L33.1579 40.0201L33.1506 39.9344L33.143 39.849L33.1348 39.764L33.1258 39.6796L33.1158 39.5959L33.1045 39.5133L33.0918 39.4317L33.0775 39.3513L33.0614 39.2724L33.0433 39.1949L33.0231 39.1191L33.0006 39.0451L32.9757 38.9729L32.9482 38.9026L32.9181 38.8344L32.8853 38.7682L32.8497 38.7042L32.8112 38.6424L32.7699 38.5827L32.7256 38.5253L32.6785 38.4701L32.6284 38.4172L32.5756 38.3663L32.5199 38.3177L32.4616 38.2711L32.4006 38.2265L32.3371 38.1838L32.2711 38.143L32.203 38.1039L32.1327 38.0664L32.0604 38.0305L31.9863 37.9959L31.9107 37.9625L31.8337 37.9302L31.7554 37.8988L31.6762 37.8682L31.5962 37.8382L31.5156 37.8086L31.4347 37.7792L31.3537 37.75L31.2729 37.7206L31.1923 37.6909L31.1124 37.6608L31.0333 37.6301L30.9552 37.5986L30.8783 37.5662L30.8029 37.5327L30.729 37.4979L30.657 37.4618L30.587 37.4241L30.5191 37.3848L30.4534 37.3438L30.3902 37.3009L30.3296 37.2561L30.2715 37.2092L30.2162 37.1602L30.1637 37.1092L30.1141 37.0559L30.0673 37.0004L30.0234 36.9427L29.9824 36.8828L29.9443 36.8207L29.9091 36.7564L29.8766 36.69L29.8468 36.6215L29.8197 36.551L29.7951 36.4785L29.7729 36.4043L29.7529 36.3282L29.7351 36.2506L29.7192 36.1715L29.7052 36.091L29.6927 36.0092L29.6816 35.9264L29.6717 35.8427L29.6628 35.7582L29.6547 35.6731L29.6471 35.5876L29.6399 35.5019L29.6328 35.4161L29.6255 35.3303L29.6179 35.2449L29.6097 35.1599L29.6007 35.0755L29.5907 34.9919L29.5794 34.9092L29.5667 34.8276L29.5524 34.7473L29.5363 34.6683L29.5182 34.5909L29.498 34.5151L29.4755 34.441L29.4506 34.3688L29.4231 34.2985L29.393 34.2303L29.3602 34.1642L29.3246 34.1001L29.2861 34.0383L29.2448 33.9787L29.2005 33.9213L29.1534 33.8661L29.1033 33.8131L29.0505 33.7623L28.9948 33.7136L28.9365 33.667L28.8755 33.6224L28.812 33.5797L28.746 33.5389L28.6779 33.4998L28.6076 33.4624L28.5353 33.4264L28.4612 33.3918L28.3856 33.3584L28.3086 33.3261L28.2303 33.2948L28.1511 33.2642L28.0711 33.2341L27.9905 33.2045L27.9096 33.1752L27.8286 33.1459L27.7478 33.1165L27.6672 33.0869L27.5873 33.0568L27.5082 33.0261L27.4301 32.9946L27.3532 32.9622L27.2778 32.9286L27.2039 32.8939L27.1319 32.8577L27.0619 32.8201L26.994 32.7808L26.9283 32.7397L26.8651 32.6968L26.8045 32.652L26.7464 32.6051L26.6911 32.5562L26.6386 32.5051L26.589 32.4518L26.5422 32.3963L26.4983 32.3387L26.4573 32.2787L26.4192 32.2166L26.384 32.1523L26.3515 32.0859L26.3217 32.0174L26.2946 31.9469L26.27 31.8745L26.2478 31.8002L26.2278 31.7242L26.21 31.6465L26.1941 31.5674L26.1801 31.4869L26.1676 31.4051L26.1565 31.3223L26.1466 31.2386L26.1377 31.1541L26.1296 31.0691L26.122 30.9836L26.1148 30.8978L26.1077 30.812L26.1004 30.7263L26.0928 30.6408L26.0846 30.5558L26.0756 30.4714L26.0656 30.3878L26.0543 30.3051L26.0416 30.2235L26.0273 30.1432L26.0112 30.0642L25.9931 29.9868L25.9729 29.911L25.9504 29.8369L25.9255 29.7647L25.898 29.6945L25.8679 29.6262L25.8351 29.5601L25.7995 29.4961L25.761 29.4342L25.7197 29.3746L25.6754 29.3172L25.6283 29.262L25.5782 29.209L25.5254 29.1582L25.4697 29.1095L25.4114 29.0629L25.3504 29.0183L25.2869 28.9757L25.2209 28.9348L25.1528 28.8958L25.0825 28.8583L25.0102 28.8223L24.9361 28.7877L24.8605 28.7544L24.7835 28.7221L24.7052 28.6907L24.626 28.6601L24.546 28.6301L24.4654 28.6004L24.3845 28.5711L24.3035 28.5418L24.2227 28.5124L24.1421 28.4828L24.0622 28.4527L23.9831 28.422L23.905 28.3905L23.8281 28.3581L23.7527 28.3246L23.6788 28.2898L23.6068 28.2537L23.5368 28.216L23.4689 28.1767L23.4032 28.1357L23.34 28.0928L23.2794 28.0479L23.2213 28.0011L23.166 27.9521L23.1135 27.901L23.0639 27.8477L23.0171 27.7923L22.9732 27.7346L22.9322 27.6747L22.8941 27.6126L22.8589 27.5483L22.8264 27.4819L22.7966 27.4134L22.7695 27.3428L22.7449 27.2704L22.7227 27.1961L22.7027 27.1201L22.6849 27.0425L22.669 26.9633L22.655 26.8828L22.6425 26.8011L22.6314 26.7183L22.6215 26.6345L22.6126 26.5501L22.6045 26.465L22.5969 26.3795L22.5897 26.2937L22.5826 26.2079L22.5753 26.1222L22.5677 26.0367L22.5595 25.9517L22.5505 25.8673L22.5405 25.7837L22.5292 25.701L22.5165 25.6195L22.5022 25.5391L22.4861 25.4602L22.468 25.3827L22.4478 25.3069L22.4253 25.2329L22.4004 25.1607L22.3729 25.0904L22.3428 25.0222L22.31 24.956L22.2744 24.892L22.2359 24.8302L22.1946 24.7705L22.1503 24.7131L22.1032 24.6579L22.0531 24.6049L22.0003 24.5541L21.9446 24.5054L21.8863 24.4588L21.8253 24.4143L21.7618 24.3716L21.6958 24.3308L21.6277 24.2917L21.5574 24.2542L21.4851 24.2183L21.411 24.1837L21.3354 24.1503L21.2584 24.118L21.1801 24.0866L21.1009 24.056L21.0209 24.026L20.9403 23.9964L20.8594 23.967L20.7784 23.9377L20.6976 23.9084L20.617 23.8787L20.5371 23.8486L20.458 23.8179L20.3799 23.7864L20.303 23.754L20.2276 23.7205L20.1537 23.6857L20.0817 23.6496L20.0117 23.6119L19.9438 23.5726L19.8781 23.5316L19.8149 23.4887L19.7543 23.4438L19.6962 23.397L19.6409 23.348L19.5884 23.2969L19.5388 23.2437L19.492 23.1882L19.4481 23.1305L19.4071 23.0706L19.369 23.0085L19.3338 22.9442L19.3013 22.8778L19.2715 22.8093L19.2444 22.7388L19.2198 22.6663L19.1976 22.592L19.1776 22.516L19.1598 22.4384L19.1439 22.3592L19.1299 22.2787L19.1174 22.197L19.1063 22.1142L19.0964 22.0305L19.0875 21.946L19.0794 21.8609L19.0718 21.7754L19.0646 21.6897L19.0575 21.6039L19.0502 21.5181L19.0426 21.4327L19.0344 21.3477L19.0254 21.2633L19.0154 21.1797L19.0041 21.097L18.9914 21.0154L18.9771 20.9351L18.961 20.8561L18.9429 20.7787L18.9227 20.7028L18.9002 20.6288L18.8753 20.5566L18.8478 20.4863L18.8177 20.4181L18.7849 20.3519L18.7493 20.2879L18.7108 20.2261L18.6695 20.1665L18.6252 20.109L18.5781 20.0539L18.528 20.0009L18.4752 19.9501L18.4195 19.9014L18.3612 19.8548L18.3002 19.8102L18.2367 19.7675L18.1707 19.7267L18.1026 19.6876L18.0323 19.6502L17.96 19.6142L17.8859 19.5796L17.8103 19.5462L17.7333 19.5139L17.655 19.4826L17.5758 19.4519L17.4958 19.4219L17.4152 19.3923L17.3343 19.3629L17.2533 19.3337L17.1725 19.3043L17.0919 19.2746L17.012 19.2445" stroke="#2C2B23" stroke-width="0.84563" stroke-miterlimit="10" stroke-linecap="round" stroke-linejoin="round"/>
</g>
<ellipse cx="26.8245" cy="16.6298" rx="8.79455" ry="2.87514" transform="rotate(-37.4394 26.8245 16.6298)" fill="#15130E"/>
<path fill-rule="evenodd" clip-rule="evenodd" d="M22.2009 27.2723C21.9565 27.7651 21.9776 28.3841 22.3548 28.8767L30.3304 39.2936C30.3567 39.3279 30.3841 39.3607 30.4126 39.3922C30.4351 39.4274 30.459 39.4616 30.4845 39.4949C31.7621 41.1636 36.4051 39.7544 40.855 36.3474C41.229 36.061 41.2906 35.5259 41.0043 35.1519L39.0795 32.638C39.0728 32.6288 39.0659 32.6196 39.059 32.6106L32.8173 24.4585C32.6303 24.2142 32.2808 24.1677 32.0364 24.3546C32.0126 24.3728 31.9873 24.3891 31.961 24.4032C27.7756 27.4538 23.5416 28.7078 22.2009 27.2723Z" fill="#15130E"/>
<path d="M25.8223 31.4561C28.3998 33.4871 33.9442 30.1012 36.3942 28.1543L35.7259 27.2815C29.6939 31.6442 26.6102 31.8823 25.8223 31.4561Z" fill="#2C2B23"/>
<path d="M29.4199 36.1562C31.9974 38.1873 37.5418 34.8014 39.9918 32.8545L39.3235 31.9817C33.2916 36.3444 30.2078 36.5825 29.4199 36.1562Z" fill="#2C2B23"/>
<ellipse cx="50.1263" cy="88.0929" rx="10.1476" ry="3.80533" transform="rotate(176.899 50.1263 88.0929)" fill="#2C2B23"/>
<ellipse cx="48.8177" cy="63.9435" rx="10.1476" ry="3.80533" transform="rotate(176.899 48.8177 63.9435)" fill="#2C2B23"/>
<g clip-path="url(#clip3_965_2256)">
<path d="M40.8631 87.4947L41.5 88.3071L59.6681 87.5769L59.8757 86.7188L58.538 83.9119L59.6536 81.0568L58.2269 78.17L59.3426 75.3149L57.9957 72.3391L58.947 69.5776L57.6139 66.8552L57.9675 65.5657L58.6131 63.4136L43.2452 64.2461L39.1443 65.1458L39.9911 66.709L40.4204 68.3795L39.2498 70.2213L39.6699 71.7229L40.7406 74.2902L39.9215 76.3671L39.9947 77.7181L41.0196 79.441L40.5292 81.3307L39.847 82.8073L40.6847 84.2016L41.3719 85.9428L40.8631 87.4947Z" fill="#2C2B23"/>
<path d="M41.3664 92.8877L41.4059 92.8106L41.4438 92.7336L41.4799 92.6567L41.5139 92.5799L41.5456 92.5032L41.5748 92.4267L41.6012 92.3503L41.6247 92.2741L41.6451 92.198L41.6623 92.1222L41.6761 92.0465L41.6864 91.971L41.6931 91.8956L41.6962 91.8205L41.6957 91.7456L41.6914 91.6709L41.6834 91.5964L41.6717 91.5221L41.6564 91.4479L41.6376 91.374L41.6152 91.3003L41.5896 91.2267L41.5606 91.1533L41.5287 91.0801L41.4938 91.0071L41.4562 90.9342L41.4161 90.8614L41.3737 90.7887L41.3293 90.7162L41.2831 90.6437L41.2353 90.5714L41.1863 90.4991L41.1363 90.4268L41.0856 90.3546L41.0345 90.2825L40.9832 90.2103L40.9321 90.1381L40.8815 90.0659L40.8316 89.9937L40.7827 89.9214L40.7351 89.849L40.6891 89.7765L40.645 89.704L40.6029 89.6313L40.5631 89.5585L40.5258 89.4856L40.4913 89.4125L40.4597 89.3393L40.4312 89.2659L40.4059 89.1923L40.384 89.1185L40.3656 89.0446L40.3507 88.9704L40.3395 88.8961L40.332 88.8216L40.3282 88.7468L40.3281 88.6719L40.3317 88.5967L40.3389 88.5214L40.3496 88.4459L40.3639 88.3702L40.3815 88.2943L40.4023 88.2182L40.4262 88.1419L40.453 88.0655L40.4824 87.989L40.5144 87.9123L40.5487 87.8355L40.5851 87.7586L40.6232 87.6816L40.6628 87.6045L40.7037 87.5273L40.7457 87.4501L40.7883 87.3728L40.8313 87.2956L40.8745 87.2183L40.9174 87.141L40.96 87.0637L41.0018 86.9865L41.0426 86.9094L41.082 86.8323L41.1199 86.7553L41.156 86.6784L41.19 86.6016L41.2217 86.5249L41.2509 86.4484L41.2773 86.372L41.3008 86.2958L41.3212 86.2197L41.3384 86.1439L41.3522 86.0682L41.3625 85.9927L41.3693 85.9173L41.3724 85.8422L41.3718 85.7673L41.3675 85.6926L41.3595 85.6181L41.3479 85.5438L41.3326 85.4696L41.3137 85.3957L41.2914 85.322L41.2657 85.2484L41.2368 85.175L41.2048 85.1018L41.1699 85.0288L41.1323 84.9559L41.0922 84.8831L41.0498 84.8104L41.0054 84.7379L40.9592 84.6654L40.9114 84.5931L40.8624 84.5208L40.8124 84.4486L40.7617 84.3764L40.7106 84.3042L40.6593 84.232L40.6082 84.1598L40.5576 84.0876L40.5077 84.0154L40.4588 83.9431L40.4113 83.8707L40.3653 83.7982L40.3211 83.7257L40.279 83.653L40.2392 83.5802L40.2019 83.5073L40.1674 83.4342L40.1358 83.361L40.1073 83.2876L40.082 83.214L40.0601 83.1402L40.0417 83.0663L40.0269 82.9922L40.0157 82.9178L40.0081 82.8433L40.0043 82.7685L40.0042 82.6936L40.0078 82.6184L40.015 82.5431L40.0258 82.4676L40.04 82.3919L40.0576 82.316L40.0784 82.2399L40.1023 82.1636L40.1291 82.0872L40.1586 82.0107L40.1906 81.934L40.2249 81.8572L40.2612 81.7803L40.2993 81.7033L40.3389 81.6262L40.3799 81.549L40.4218 81.4718L40.4644 81.3945L40.5074 81.3173L40.5506 81.24L40.5936 81.1627L40.6361 81.0854L40.6779 81.0082L40.7187 80.9311L40.7582 80.854L40.7961 80.777L40.8321 80.7001L40.8661 80.6233L40.8978 80.5466L40.927 80.4701L40.9534 80.3937L40.9769 80.3175L40.9974 80.2414L41.0145 80.1656L41.0283 80.0899L41.0386 80.0144L41.0454 79.9391L41.0485 79.8639L41.0479 79.789L41.0436 79.7143L41.0356 79.6398L41.024 79.5655L41.0087 79.4914L40.9898 79.4174L40.9675 79.3437L40.9418 79.2701L40.9129 79.1968L40.8809 79.1235L40.846 79.0505L40.8084 78.9776L40.7683 78.9048L40.726 78.8321L40.6815 78.7596L40.6353 78.6872L40.5876 78.6148L40.5386 78.5425L40.4885 78.4703L40.4378 78.3981L40.3867 78.3259L40.3355 78.2537L40.2844 78.1815L40.2337 78.1093L40.1838 78.0371L40.135 77.9648L40.0874 77.8924L40.0414 77.82L39.9972 77.7474L39.9551 77.6747L39.9153 77.6019L39.8781 77.529L39.8435 77.4559L39.8119 77.3827L39.7834 77.3093L39.7581 77.2357L39.7362 77.162L39.7178 77.088L39.703 77.0139L39.6918 76.9395L39.6843 76.865L39.6805 76.7902L39.6803 76.7153L39.6839 76.6402L39.6911 76.5648L39.7019 76.4893L39.7161 76.4136L39.7337 76.3377L39.7545 76.2616L39.7784 76.1853L39.8052 76.1089L39.8347 76.0324L39.8667 75.9557L39.901 75.8789L39.9373 75.802L39.9754 75.725L40.0151 75.6479L40.056 75.5707L40.0979 75.4935L40.1405 75.4162L40.1835 75.339L40.2267 75.2617L40.2697 75.1844L40.3122 75.1072L40.354 75.0299L40.3948 74.9528L40.4343 74.8757L40.4722 74.7987L40.5083 74.7218L40.5423 74.645L40.574 74.5683L40.6031 74.4918L40.6296 74.4154L40.6531 74.3392L40.6735 74.2632L40.6907 74.1873L40.7045 74.1116L40.7148 74.0361L40.7215 73.9608L40.7246 73.8856L40.724 73.8107L40.7198 73.736L40.7118 73.6615L40.7001 73.5872L40.6848 73.5131L40.666 73.4391L40.6436 73.3654L40.6179 73.2918L40.589 73.2185L40.557 73.1452L40.5221 73.0722L40.4846 72.9993L40.4445 72.9265L40.4021 72.8538L40.3577 72.7813L40.3114 72.7089L40.2637 72.6365L40.2147 72.5642L40.1647 72.492L40.114 72.4198L40.0628 72.3476L40.0116 72.2754L39.9605 72.2032L39.9099 72.131L39.86 72.0588L39.8111 71.9865L39.7635 71.9141L39.7175 71.8417L39.6733 71.7691L39.6312 71.6964L39.5914 71.6236L39.5542 71.5507L39.5197 71.4776L39.488 71.4044L39.4595 71.331L39.4343 71.2574L39.4124 71.1837L39.394 71.1097L39.3791 71.0356L39.3679 70.9612L39.3604 70.8867L39.3566 70.8119L39.3565 70.737L39.36 70.6619L39.3672 70.5865L39.378 70.511L39.3922 70.4353L39.4098 70.3594L39.4306 70.2833L39.4545 70.2071L39.4813 70.1307L39.5108 70.0541L39.5428 69.9774L39.5771 69.9006L39.6134 69.8237L39.6515 69.7467L39.6912 69.6696L39.7321 69.5924L39.774 69.5152L39.8166 69.438L39.8597 69.3607L39.9028 69.2834L39.9458 69.2061L39.9884 69.1289L40.0302 69.0516L40.0709 68.9745L40.1104 68.8974L40.1483 68.8204L40.1844 68.7435L40.2184 68.6667L40.2501 68.59L40.2793 68.5135L40.3057 68.4371L40.3292 68.3609L40.3496 68.2849L40.3668 68.209L40.3806 68.1333L40.3909 68.0578L40.3976 67.9825L40.4007 67.9074L40.4002 67.8324L40.3959 67.7577L40.3879 67.6832L40.3762 67.6089L40.3609 67.5348L40.3421 67.4608L40.3197 67.3871L40.2941 67.3135L40.2651 67.2402L40.2332 67.167L40.1983 67.0939L40.1607 67.021L40.1206 66.9482L40.0782 66.8756L40.0338 66.803L39.9876 66.7306L39.9398 66.6582L39.8908 66.5859L39.8408 66.5137L39.7901 66.4415L39.739 66.3693L39.6877 66.2971L39.6366 66.2249L39.586 66.1527L39.5361 66.0805L39.4872 66.0082L39.4396 65.9358L39.3936 65.8634L39.3495 65.7908L39.3074 65.7181L39.2676 65.6454L39.2303 65.5724L39.1958 65.4993L39.1642 65.4261L39.1357 65.3527L39.1104 65.2791L39.0885 65.2054L39.0701 65.1314L39.0552 65.0573L39.044 64.9829L39.0365 64.9084L39.0327 64.8337L39.0326 64.7587L39.0362 64.6836L39.0434 64.6082L39.0541 64.5327L39.0684 64.457L39.086 64.3811L39.1068 64.305L39.1307 64.2288L39.1574 64.1524L39.1869 64.0758L39.2189 63.9991L39.2532 63.9223L39.2896 63.8454L39.3277 63.7684L39.3673 63.6913L39.4082 63.6141L39.4502 63.5369L39.4928 63.4597L39.5358 63.3824L39.579 63.3051L39.6219 63.2278L39.6645 63.1506L39.7063 63.0734" stroke="#2C2B23" stroke-width="0.84563" stroke-miterlimit="10" stroke-linecap="round" stroke-linejoin="round"/>
<path d="M58.1794 62.5056L58.2261 62.5756L58.2713 62.6458L58.3147 62.716L58.3561 62.7864L58.3952 62.8568L58.4317 62.9274L58.4657 62.9982L58.4967 63.0691L58.5247 63.1402L58.5495 63.2114L58.5709 63.2828L58.589 63.3544L58.6035 63.4262L58.6145 63.4982L58.6218 63.5704L58.6255 63.6428L58.6256 63.7154L58.622 63.7882L58.6148 63.8612L58.6042 63.9343L58.5901 64.0077L58.5728 64.0812L58.5522 64.1549L58.5287 64.2288L58.5022 64.3028L58.4732 64.377L58.4416 64.4513L58.4078 64.5257L58.3721 64.6002L58.3345 64.6748L58.2954 64.7495L58.2551 64.8243L58.2138 64.8991L58.1718 64.974L58.1294 65.0489L58.0869 65.1238L58.0446 65.1987L58.0027 65.2735L57.9615 65.3483L57.9213 65.4231L57.8824 65.4978L57.8451 65.5724L57.8095 65.6469L57.776 65.7213L57.7448 65.7956L57.716 65.8698L57.69 65.9438L57.6668 66.0176L57.6466 66.0913L57.6297 66.1648L57.616 66.2381L57.6058 66.3113L57.5991 66.3842L57.596 66.457L57.5965 66.5295L57.6007 66.6019L57.6085 66.6741L57.6199 66.746L57.6349 66.8178L57.6534 66.8894L57.6753 66.9608L57.7005 67.032L57.7288 67.1031L57.7603 67.174L57.7945 67.2447L57.8314 67.3153L57.8708 67.3857L57.9124 67.4561L57.9561 67.5263L58.0015 67.5964L58.0484 67.6665L58.0965 67.7365L58.1457 67.8064L58.1955 67.8763L58.2457 67.9461L58.2961 68.016L58.3463 68.0859L58.396 68.1558L58.4451 68.2257L58.4931 68.2957L58.5398 68.3657L58.585 68.4359L58.6284 68.5061L58.6698 68.5765L58.7088 68.6469L58.7454 68.7175L58.7793 68.7883L58.8104 68.8592L58.8383 68.9303L58.8631 69.0015L58.8846 69.0729L58.9027 69.1446L58.9172 69.2164L58.9282 69.2884L58.9355 69.3605L58.9392 69.4329L58.9392 69.5055L58.9357 69.5783L58.9285 69.6513L58.9179 69.7244L58.9038 69.7978L58.8864 69.8713L58.8659 69.945L58.8423 70.0189L58.8159 70.0929L58.7869 70.1671L58.7553 70.2414L58.7215 70.3158L58.6857 70.3903L58.6482 70.4649L58.6091 70.5396L58.5688 70.6144L58.5275 70.6892L58.4855 70.7641L58.4431 70.839L58.4006 70.9139L58.3583 70.9888L58.3163 71.0636L58.2752 71.1385L58.235 71.2132L58.1961 71.2879L58.1587 71.3625L58.1232 71.437L58.0897 71.5114L58.0584 71.5857L58.0297 71.6599L58.0036 71.7339L57.9804 71.8077L57.9603 71.8814L57.9433 71.9549L57.9297 72.0282L57.9195 72.1014L57.9128 72.1743L57.9097 72.2471L57.9102 72.3196L57.9143 72.392L57.9221 72.4642L57.9336 72.5361L57.9485 72.6079L57.967 72.6795L57.9889 72.7509L58.0141 72.8221L58.0425 72.8932L58.0739 72.9641L58.1082 73.0348L58.1451 73.1054L58.1845 73.1759L58.2261 73.2462L58.2698 73.3164L58.3152 73.3865L58.3621 73.4566L58.4102 73.5266L58.4594 73.5965L58.5092 73.6664L58.5594 73.7363L58.6098 73.8061L58.66 73.876L58.7097 73.9459L58.7587 74.0158L58.8068 74.0858L58.8535 74.1559L58.8987 74.226L58.9421 74.2962L58.9834 74.3666L59.0225 74.4371L59.0591 74.5077L59.093 74.5784L59.124 74.6493L59.152 74.7204L59.1768 74.7916L59.1983 74.8631L59.2164 74.9347L59.2309 75.0065L59.2418 75.0785L59.2492 75.1507L59.2529 75.223L59.2529 75.2956L59.2493 75.3684L59.2422 75.4414L59.2316 75.5146L59.2175 75.5879L59.2001 75.6614L59.1796 75.7351L59.156 75.809L59.1296 75.883L59.1005 75.9572L59.069 76.0315L59.0352 76.1059L58.9994 76.1804L58.9619 76.2551L58.9228 76.3298L58.8825 76.4045L58.8412 76.4794L58.7992 76.5542L58.7568 76.6291L58.7143 76.704L58.6719 76.7789L58.63 76.8537L58.5888 76.9286L58.5487 77.0033L58.5098 77.078L58.4724 77.1526L58.4369 77.2272L58.4034 77.3016L58.3721 77.3758L58.3434 77.45L58.3173 77.524L58.2941 77.5978L58.274 77.6715L58.257 77.745L58.2434 77.8183L58.2332 77.8915L58.2265 77.9644L58.2234 78.0372L58.2239 78.1098L58.228 78.1821L58.2358 78.2543L58.2472 78.3263L58.2622 78.398L58.2807 78.4696L58.3026 78.541L58.3278 78.6122L58.3562 78.6833L58.3876 78.7542L58.4219 78.8249L58.4588 78.8955L58.4982 78.966L58.5398 79.0363L58.5834 79.1065L58.6288 79.1767L58.6758 79.2467L58.7239 79.3167L58.773 79.3866L58.8229 79.4565L58.8731 79.5264L58.9235 79.5962L58.9736 79.6661L59.0234 79.736L59.0724 79.8059L59.1204 79.8759L59.1672 79.946L59.2124 80.0161L59.2558 80.0863L59.2971 80.1567L59.3362 80.2272L59.3728 80.2978L59.4067 80.3685L59.4377 80.4394L59.4657 80.5105L59.4905 80.5817L59.512 80.6532L59.53 80.7248L59.5446 80.7966L59.5555 80.8686L59.5629 80.9408L59.5666 81.0132L59.5666 81.0857L59.563 81.1585L59.5559 81.2315L59.5452 81.3047L59.5312 81.378L59.5138 81.4516L59.4933 81.5253L59.4697 81.5991L59.4433 81.6731L59.4142 81.7473L59.3827 81.8216L59.3489 81.896L59.3131 81.9705L59.2755 82.0452L59.2365 82.1199L59.1961 82.1947L59.1549 82.2695L59.1129 82.3443L59.0705 82.4192L59.028 82.4941L58.9856 82.569L58.9437 82.6439L58.9025 82.7187L58.8624 82.7934L58.8235 82.8681L58.7861 82.9428L58.7506 83.0173L58.717 83.0917L58.6858 83.166L58.6571 83.2401L58.631 83.3141L58.6078 83.3879L58.5877 83.4616L58.5707 83.5351L58.5571 83.6085L58.5469 83.6816L58.5402 83.7546L58.537 83.8273L58.5376 83.8999L58.5417 83.9722L58.5495 84.0444L58.5609 84.1164L58.5759 84.1882L58.5944 84.2597L58.6163 84.3311L58.6415 84.4024L58.6699 84.4734L58.7013 84.5443L58.7356 84.615L58.7725 84.6856L58.8119 84.7561L58.8535 84.8264L58.8971 84.8966L58.9425 84.9668L58.9894 85.0368L59.0376 85.1068L59.0867 85.1767L59.1365 85.2466L59.1868 85.3165L59.2371 85.3863L59.2873 85.4562L59.3371 85.5261L59.3861 85.596L59.4341 85.666L59.4809 85.7361L59.526 85.8062L59.5694 85.8765L59.6108 85.9468L59.6499 86.0173L59.6865 86.0879L59.7204 86.1586L59.7514 86.2295L59.7794 86.3006L59.8042 86.3719L59.8257 86.4433L59.8437 86.5149L59.8583 86.5867L59.8692 86.6587L59.8765 86.7309L59.8802 86.8033L59.8803 86.8759L59.8767 86.9486L59.8696 87.0216L59.8589 87.0948L59.8449 87.1681L59.8275 87.2417L59.8069 87.3154L59.7834 87.3892L59.757 87.4633L59.7279 87.5374L59.6964 87.6117L59.6626 87.6861L59.6268 87.7607L59.5892 87.8353L59.5501 87.91L59.5098 87.9848L59.4685 88.0596L59.4266 88.1345L59.3842 88.2093L59.3417 88.2842L59.2993 88.3591L59.2574 88.434L59.2162 88.5088L59.176 88.5836L59.1371 88.6583L59.0998 88.7329L59.0642 88.8074L59.0307 88.8818L58.9995 88.9561L58.9707 89.0302L58.9447 89.1042L58.9215 89.1781L58.9013 89.2517L58.8844 89.3252L58.8707 89.3986L58.8605 89.4717L58.8538 89.5447L58.8507 89.6174L58.8512 89.69L58.8554 89.7624L58.8632 89.8345L58.8746 89.9065L58.8896 89.9783L58.9081 90.0499L58.93 90.1213L58.9552 90.1925L58.9836 90.2635L59.015 90.3344L59.0492 90.4051L59.0862 90.4757L59.1255 90.5462L59.1672 90.6165L59.2108 90.6868L59.2562 90.7569L59.3031 90.8269L59.3513 90.8969L59.4004 90.9668L59.4502 91.0367L59.5005 91.1066L59.5508 91.1765L59.601 91.2463L59.6508 91.3162L59.6998 91.3861" stroke="#2C2B23" stroke-width="0.84563" stroke-miterlimit="10" stroke-linecap="round" stroke-linejoin="round"/>
</g>
<ellipse cx="50.1214" cy="88.0091" rx="8.79455" ry="2.87514" transform="rotate(176.899 50.1214 88.0091)" fill="#15130E"/>
<path fill-rule="evenodd" clip-rule="evenodd" d="M59.9423 81.8294C60.4225 81.5605 60.7545 81.0373 60.7209 80.4174L60.0112 67.3171C60.0089 67.2737 60.0047 67.2308 59.9989 67.1885C60.0002 67.147 59.9997 67.1054 59.9974 67.0637C59.8838 64.9652 55.255 63.5097 49.6589 63.8129C49.1883 63.8384 48.8354 64.2456 48.8609 64.7162L49.1797 70.6006L49.1804 70.6117L49.5895 78.164C49.6062 78.4711 49.8686 78.7067 50.1758 78.6902C50.2051 78.6887 50.2344 78.6894 50.2634 78.6925C55.4413 78.5341 59.6458 79.8873 59.9423 81.8294Z" fill="#15130E"/>
<path d="M59.3125 76.332C58.3299 73.201 51.8418 72.8694 48.7206 73.0949L48.7801 74.1926C56.2217 73.9927 58.9024 75.5356 59.3125 76.332Z" fill="#2C2B23"/>
<path d="M58.9922 70.4209C58.0096 67.2899 51.5215 66.9583 48.4003 67.1838L48.4598 68.2815C55.9014 68.0816 58.5821 69.6245 58.9922 70.4209Z" fill="#2C2B23"/>
<ellipse cx="86.7958" cy="64.1093" rx="10.1476" ry="3.80533" transform="rotate(112.561 86.7958 64.1093)" fill="#2C2B23"/>
<ellipse cx="64.4618" cy="54.831" rx="10.1476" ry="3.80533" transform="rotate(112.561 64.4618 54.831)" fill="#2C2B23"/>
<g clip-path="url(#clip4_965_2256)">
<path d="M82.2463 72.1996L83.2544 71.9774L90.464 55.285L89.7804 54.7263L86.6711 54.7165L84.5807 52.4745L81.3608 52.5104L79.2704 50.2684L76.0049 50.1937L73.9278 48.1403L70.8965 48.1629L69.8874 47.2858L68.2271 45.7719L62.3224 59.9846L61.3574 64.0707L63.1331 63.9843L64.8247 64.3208L65.978 66.1735L67.5134 66.4451L70.2911 66.5918L71.8085 68.2295L73.0579 68.7486L75.0547 68.5709L76.5456 69.8313L77.5812 71.0856L79.2008 70.9343L81.0678 71.069L82.2463 72.1996Z" fill="#2C2B23"/>
<path d="M87.3256 74.0803L87.2732 74.0114L87.2202 73.9439L87.1665 73.878L87.112 73.8141L87.0566 73.7524L87.0003 73.6929L86.9429 73.636L86.8843 73.5818L86.8246 73.5305L86.7637 73.4822L86.7014 73.4369L86.6378 73.3949L86.5729 73.3562L86.5065 73.3209L86.4387 73.289L86.3695 73.2605L86.2989 73.2354L86.2269 73.2138L86.1534 73.1955L86.0786 73.1804L86.0025 73.1686L85.9251 73.1599L85.8464 73.1542L85.7666 73.1513L85.6856 73.1511L85.6036 73.1535L85.5206 73.1581L85.4368 73.1648L85.3522 73.1734L85.2669 73.1837L85.181 73.1954L85.0946 73.2083L85.0078 73.2221L84.9208 73.2365L84.8336 73.2514L84.7463 73.2663L84.6591 73.2811L84.5721 73.2955L84.4854 73.3092L84.3991 73.3219L84.3132 73.3334L84.228 73.3435L84.1435 73.3519L84.0597 73.3584L83.9769 73.3628L83.895 73.3648L83.8142 73.3642L83.7345 73.361L83.656 73.3549L83.5787 73.3458L83.5027 73.3336L83.4281 73.3182L83.3549 73.2995L83.283 73.2774L83.2126 73.2519L83.1435 73.2229L83.0759 73.1906L83.0098 73.1548L82.945 73.1157L82.8815 73.0733L82.8195 73.0277L82.7587 72.979L82.6991 72.9272L82.6407 72.8727L82.5835 72.8155L82.5272 72.7557L82.472 72.6937L82.4176 72.6295L82.364 72.5635L82.3111 72.4958L82.2588 72.4266L82.2069 72.3563L82.1555 72.2851L82.1043 72.2132L82.0533 72.141L82.0023 72.0686L81.9513 71.9964L81.9001 71.9246L81.8486 71.8535L81.7967 71.7833L81.7443 71.7144L81.6913 71.6469L81.6376 71.581L81.5831 71.5171L81.5277 71.4554L81.4714 71.3959L81.414 71.339L81.3555 71.2848L81.2957 71.2335L81.2348 71.1852L81.1725 71.1399L81.1089 71.0979L81.044 71.0592L80.9776 71.0239L80.9098 70.992L80.8406 70.9635L80.77 70.9384L80.698 70.9168L80.6245 70.8985L80.5497 70.8834L80.4736 70.8716L80.3962 70.8629L80.3175 70.8572L80.2377 70.8543L80.1567 70.8542L80.0747 70.8565L79.9917 70.8611L79.9079 70.8678L79.8233 70.8764L79.738 70.8867L79.6521 70.8984L79.5657 70.9113L79.4789 70.9251L79.3919 70.9395L79.3047 70.9544L79.2174 70.9693L79.1302 70.9841L79.0432 70.9985L78.9565 71.0122L78.8702 71.0249L78.7843 71.0365L78.6991 71.0465L78.6146 71.0549L78.5308 71.0614L78.448 71.0658L78.3661 71.0678L78.2853 71.0672L78.2056 71.064L78.1271 71.0579L78.0498 71.0488L77.9739 71.0366L77.8992 71.0212L77.826 71.0025L77.7541 70.9804L77.6837 70.9549L77.6146 70.9259L77.547 70.8936L77.4809 70.8578L77.4161 70.8187L77.3526 70.7763L77.2906 70.7307L77.2298 70.682L77.1702 70.6303L77.1118 70.5757L77.0546 70.5185L76.9983 70.4587L76.9431 70.3967L76.8887 70.3325L76.8351 70.2665L76.7822 70.1988L76.7299 70.1296L76.678 70.0593L76.6266 69.9881L76.5754 69.9163L76.5244 69.844L76.4734 69.7716L76.4224 69.6994L76.3712 69.6276L76.3197 69.5565L76.2678 69.4863L76.2154 69.4174L76.1624 69.3499L76.1087 69.284L76.0542 69.2201L75.9988 69.1584L75.9425 69.0989L75.8851 69.042L75.8266 68.9878L75.7668 68.9365L75.7059 68.8882L75.6436 68.8429L75.58 68.8009L75.5151 68.7623L75.4487 68.7269L75.3809 68.695L75.3117 68.6665L75.2411 68.6414L75.1691 68.6198L75.0956 68.6015L75.0208 68.5864L74.9447 68.5746L74.8673 68.5659L74.7886 68.5602L74.7088 68.5573L74.6278 68.5572L74.5458 68.5595L74.4628 68.5641L74.379 68.5708L74.2944 68.5795L74.2091 68.5897L74.1232 68.6014L74.0368 68.6143L73.95 68.6281L73.863 68.6425L73.7758 68.6574L73.6885 68.6723L73.6013 68.6871L73.5143 68.7015L73.4276 68.7152L73.3413 68.7279L73.2554 68.7395L73.1702 68.7495L73.0857 68.7579L73.0019 68.7644L72.9191 68.7688L72.8372 68.7708L72.7564 68.7702L72.6767 68.767L72.5982 68.7609L72.5209 68.7518L72.445 68.7396L72.3703 68.7242L72.2971 68.7055L72.2252 68.6834L72.1548 68.6579L72.0857 68.6289L72.0181 68.5966L71.952 68.5608L71.8872 68.5217L71.8238 68.4793L71.7617 68.4337L71.7009 68.385L71.6413 68.3333L71.5829 68.2787L71.5257 68.2215L71.4694 68.1617L71.4142 68.0997L71.3598 68.0355L71.3062 67.9695L71.2533 67.9018L71.201 67.8326L71.1491 67.7623L71.0977 67.6911L71.0465 67.6193L70.9955 67.547L70.9445 67.4746L70.8935 67.4024L70.8423 67.3306L70.7908 67.2595L70.7389 67.1893L70.6865 67.1204L70.6335 67.0529L70.5798 66.987L70.5253 66.9231L70.4699 66.8614L70.4136 66.8019L70.3562 66.745L70.2977 66.6908L70.2379 66.6395L70.177 66.5912L70.1147 66.5459L70.0511 66.5039L69.9862 66.4653L69.9198 66.4299L69.852 66.398L69.7828 66.3695L69.7122 66.3444L69.6402 66.3228L69.5667 66.3045L69.4919 66.2894L69.4158 66.2776L69.3384 66.2689L69.2597 66.2632L69.1799 66.2604L69.0989 66.2602L69.0169 66.2625L68.9339 66.2671L68.8501 66.2738L68.7655 66.2825L68.6802 66.2927L68.5943 66.3044L68.5079 66.3173L68.4211 66.3311L68.3341 66.3456L68.2469 66.3604L68.1596 66.3753L68.0724 66.3901L67.9854 66.4045L67.8987 66.4182L67.8124 66.4309L67.7265 66.4425L67.6413 66.4525L67.5568 66.4609L67.473 66.4674L67.3902 66.4718L67.3083 66.4738L67.2275 66.4732L67.1478 66.47L67.0693 66.4639L66.992 66.4548L66.9161 66.4426L66.8414 66.4272L66.7682 66.4085L66.6963 66.3864L66.6259 66.3609L66.5568 66.332L66.4892 66.2996L66.4231 66.2638L66.3583 66.2247L66.2949 66.1823L66.2328 66.1367L66.172 66.088L66.1124 66.0363L66.054 65.9817L65.9968 65.9245L65.9406 65.8647L65.8853 65.8027L65.8309 65.7385L65.7773 65.6725L65.7244 65.6048L65.6721 65.5356L65.6202 65.4653L65.5688 65.3941L65.5176 65.3223L65.4666 65.25L65.4156 65.1776L65.3646 65.1054L65.3134 65.0336L65.2619 64.9625L65.21 64.8923L65.1576 64.8234L65.1046 64.7559L65.0509 64.69L64.9964 64.6261L64.941 64.5644L64.8847 64.5049L64.8273 64.448L64.7688 64.3938L64.7091 64.3425L64.6481 64.2942L64.5858 64.2489L64.5222 64.207L64.4573 64.1683L64.3909 64.1329L64.3231 64.101L64.2539 64.0725L64.1833 64.0474L64.1113 64.0258L64.0378 64.0075L63.963 63.9925L63.8869 63.9806L63.8095 63.9719L63.7308 63.9662L63.651 63.9634L63.57 63.9632L63.488 63.9655L63.4051 63.9701L63.3212 63.9768L63.2366 63.9855L63.1513 63.9957L63.0654 64.0075L62.979 64.0203L62.8922 64.0341L62.8052 64.0486L62.718 64.0634L62.6307 64.0783L62.5435 64.0931L62.4565 64.1075L62.3698 64.1212L62.2835 64.1339L62.1976 64.1455L62.1124 64.1556L62.0279 64.1639L61.9441 64.1704L61.8613 64.1748L61.7794 64.1768L61.6986 64.1763L61.6189 64.173L61.5404 64.1669L61.4631 64.1579L61.3872 64.1456L61.3125 64.1302L61.2393 64.1115L61.1674 64.0894L61.097 64.0639L61.028 64.035L60.9604 64.0026L60.8942 63.9668L60.8294 63.9277L60.766 63.8853L60.7039 63.8397L60.6431 63.791L60.5835 63.7393L60.5251 63.6847L60.4679 63.6275L60.4117 63.5677L60.3564 63.5057L60.302 63.4415L60.2484 63.3755L60.1955 63.3078L60.1432 63.2386L60.0913 63.1683L60.0399 63.0971L59.9887 63.0253L59.9377 62.953L59.8867 62.8806L59.8357 62.8084L59.7845 62.7366L59.733 62.6655" stroke="#2C2B23" stroke-width="0.84563" stroke-miterlimit="10" stroke-linecap="round" stroke-linejoin="round"/>
<path d="M67.2209 45.7693L67.3043 45.7575L67.3871 45.7472L67.4692 45.7385L67.5505 45.7316L67.6309 45.7269L67.7104 45.7245L67.7889 45.7246L67.8662 45.7273L67.9424 45.7329L68.0174 45.7414L68.091 45.753L68.1634 45.7677L68.2344 45.7857L68.3041 45.807L68.3723 45.8317L68.4392 45.8597L68.5046 45.8911L68.5687 45.9258L68.6313 45.9639L68.6927 46.0051L68.7527 46.0496L68.8115 46.0971L68.869 46.1475L68.9254 46.2007L68.9807 46.2566L69.0349 46.3149L69.0882 46.3755L69.1407 46.4382L69.1923 46.5027L69.2433 46.5689L69.2938 46.6365L69.3437 46.7052L69.3933 46.7748L69.4426 46.8451L69.4917 46.9157L69.5408 46.9865L69.59 47.0571L69.6393 47.1273L69.6889 47.1968L69.7389 47.2654L69.7894 47.3328L69.8405 47.3988L69.8922 47.4631L69.9448 47.5255L69.9982 47.5858L70.0526 47.6439L70.108 47.6994L70.1645 47.7523L70.2222 47.8023L70.2811 47.8495L70.3413 47.8935L70.4028 47.9344L70.4657 47.972L70.5299 48.0063L70.5955 48.0373L70.6626 48.0649L70.731 48.0891L70.8008 48.11L70.872 48.1276L70.9445 48.1419L71.0184 48.1531L71.0935 48.1612L71.1698 48.1664L71.2473 48.1688L71.3259 48.1685L71.4055 48.1658L71.4861 48.1608L71.5675 48.1538L71.6497 48.1448L71.7326 48.1343L71.816 48.1223L71.9 48.1092L71.9843 48.0952L72.0688 48.0806L72.1536 48.0656L72.2383 48.0504L72.3231 48.0354L72.4076 48.0209L72.4919 48.007L72.5757 47.994L72.6591 47.9822L72.7419 47.9719L72.824 47.9632L72.9053 47.9563L72.9858 47.9516L73.0653 47.9492L73.1437 47.9493L73.2211 47.952L73.2973 47.9576L73.3722 47.9661L73.4459 47.9777L73.5183 47.9924L73.5893 48.0104L73.6589 48.0317L73.7272 48.0564L73.794 48.0844L73.8595 48.1158L73.9235 48.1505L73.9862 48.1885L74.0475 48.2298L74.1076 48.2743L74.1663 48.3218L74.2239 48.3722L74.2802 48.4254L74.3355 48.4813L74.3898 48.5396L74.4431 48.6002L74.4955 48.6629L74.5472 48.7274L74.5982 48.7936L74.6486 48.8612L74.6986 48.9299L74.7481 48.9995L74.7974 49.0698L74.8466 49.1404L74.8957 49.2112L74.9448 49.2818L74.9941 49.352L75.0438 49.4215L75.0937 49.4901L75.1442 49.5575L75.1953 49.6235L75.2471 49.6878L75.2996 49.7502L75.3531 49.8105L75.4074 49.8686L75.4629 49.9241L75.5194 49.977L75.5771 50.027L75.636 50.0742L75.6962 50.1182L75.7577 50.1591L75.8205 50.1967L75.8848 50.231L75.9504 50.262L76.0174 50.2896L76.0858 50.3138L76.1557 50.3347L76.2268 50.3523L76.2994 50.3666L76.3732 50.3778L76.4483 50.3859L76.5247 50.3911L76.6022 50.3935L76.6808 50.3932L76.7604 50.3905L76.8409 50.3855L76.9224 50.3785L77.0046 50.3695L77.0874 50.359L77.1709 50.347L77.2548 50.3339L77.3391 50.3199L77.4237 50.3053L77.5084 50.2903L77.5932 50.2751L77.6779 50.2601L77.7625 50.2456L77.8467 50.2317L77.9306 50.2187L78.014 50.2069L78.0968 50.1965L78.1789 50.1878L78.2602 50.181L78.3406 50.1763L78.4201 50.1739L78.4986 50.174L78.5759 50.1767L78.6521 50.1823L78.7271 50.1908L78.8008 50.2024L78.8731 50.2171L78.9441 50.2351L79.0138 50.2564L79.082 50.281L79.1489 50.3091L79.2143 50.3405L79.2784 50.3752L79.3411 50.4132L79.4024 50.4545L79.4624 50.499L79.5212 50.5465L79.5787 50.5969L79.6351 50.6501L79.6904 50.706L79.7446 50.7643L79.7979 50.8249L79.8504 50.8876L79.9021 50.9521L79.9531 51.0183L80.0035 51.0859L80.0534 51.1546L80.103 51.2242L80.1523 51.2945L80.2014 51.3651L80.2505 51.4359L80.2997 51.5065L80.349 51.5767L80.3986 51.6462L80.4486 51.7148L80.4991 51.7822L80.5502 51.8482L80.6019 51.9125L80.6545 51.9749L80.7079 52.0352L80.7623 52.0932L80.8177 52.1488L80.8742 52.2017L80.9319 52.2517L80.9908 52.2988L81.051 52.3429L81.1125 52.3838L81.1754 52.4214L81.2396 52.4557L81.3053 52.4867L81.3723 52.5143L81.4407 52.5385L81.5105 52.5594L81.5817 52.577L81.6542 52.5913L81.7281 52.6025L81.8032 52.6106L81.8795 52.6158L81.957 52.6182L82.0356 52.6179L82.1152 52.6152L82.1958 52.6102L82.2772 52.6032L82.3594 52.5942L82.4423 52.5837L82.5257 52.5717L82.6097 52.5586L82.694 52.5446L82.7786 52.53L82.8633 52.515L82.9481 52.4998L83.0328 52.4848L83.1173 52.4703L83.2016 52.4564L83.2855 52.4434L83.3689 52.4316L83.4516 52.4212L83.5337 52.4125L83.6151 52.4057L83.6955 52.401L83.775 52.3986L83.8535 52.3987L83.9308 52.4014L84.007 52.407L84.0819 52.4155L84.1556 52.4271L84.228 52.4418L84.299 52.4598L84.3686 52.4811L84.4369 52.5057L84.5037 52.5338L84.5692 52.5652L84.6332 52.5999L84.6959 52.6379L84.7573 52.6792L84.8173 52.7237L84.8761 52.7712L84.9336 52.8216L84.99 52.8748L85.0452 52.9307L85.0995 52.989L85.1528 53.0496L85.2053 53.1123L85.2569 53.1768L85.3079 53.243L85.3584 53.3106L85.4083 53.3793L85.4579 53.4489L85.5072 53.5192L85.5563 53.5898L85.6054 53.6606L85.6545 53.7312L85.7039 53.8014L85.7535 53.8709L85.8035 53.9395L85.854 54.0069L85.905 54.0728L85.9568 54.1372L86.0094 54.1996L86.0628 54.2599L86.1172 54.3179L86.1726 54.3735L86.2291 54.4264L86.2868 54.4764L86.3457 54.5235L86.4059 54.5676L86.4674 54.6085L86.5303 54.6461L86.5945 54.6804L86.6601 54.7114L86.7271 54.739L86.7956 54.7632L86.8654 54.7841L86.9366 54.8016L87.0091 54.816L87.0829 54.8272L87.1581 54.8353L87.2344 54.8405L87.3119 54.8429L87.3905 54.8426L87.4701 54.8399L87.5507 54.8349L87.6321 54.8278L87.7143 54.8189L87.7972 54.8084L87.8806 54.7964L87.9645 54.7833L88.0488 54.7693L88.1334 54.7547L88.2181 54.7397L88.3029 54.7245L88.3876 54.7095L88.4722 54.6949L88.5565 54.681L88.6403 54.6681L88.7237 54.6563L88.8065 54.6459L88.8886 54.6372L88.9699 54.6304L89.0504 54.6257L89.1299 54.6233L89.2083 54.6234L89.2857 54.6261L89.3619 54.6317L89.4368 54.6402L89.5105 54.6517L89.5829 54.6665L89.6539 54.6845L89.7235 54.7058L89.7918 54.7304L89.8586 54.7585L89.9241 54.7898L89.9881 54.8246L90.0508 54.8626L90.1121 54.9039L90.1722 54.9484L90.2309 54.9958L90.2885 55.0463L90.3448 55.0995L90.4001 55.1554L90.4544 55.2137L90.5077 55.2743L90.5601 55.337L90.6118 55.4015L90.6628 55.4677L90.7132 55.5353L90.7632 55.604L90.8127 55.6736L90.862 55.7439L90.9112 55.8145L90.9603 55.8852L91.0094 55.9559L91.0587 56.026L91.1083 56.0956L91.1583 56.1642L91.2088 56.2316L91.2599 56.2975L91.3117 56.3619L91.3642 56.4243L91.4176 56.4846L91.472 56.5426L91.5274 56.5982L91.584 56.6511L91.6417 56.7011L91.7006 56.7482L91.7608 56.7923L91.8223 56.8332L91.8851 56.8708L91.9494 56.9051L92.015 56.9361L92.082 56.9637L92.1504 56.9879L92.2202 57.0088L92.2914 57.0263L92.364 57.0407L92.4378 57.0518L92.5129 57.06L92.5893 57.0652L92.6668 57.0675L92.7453 57.0673L92.825 57.0646L92.9055 57.0596L92.9869 57.0525L93.0691 57.0436L93.152 57.0331L93.2355 57.0211L93.3194 57.008L93.4037 56.994L93.4883 56.9794L93.573 56.9643L93.6578 56.9492L93.7425 56.9342L93.827 56.9196L93.9113 56.9057" stroke="#2C2B23" stroke-width="0.84563" stroke-miterlimit="10" stroke-linecap="round" stroke-linejoin="round"/>
</g>
<ellipse cx="86.7188" cy="64.0771" rx="8.79455" ry="2.87514" transform="rotate(112.561 86.7188 64.0771)" fill="#15130E"/>
<path fill-rule="evenodd" clip-rule="evenodd" d="M85.4012 52.5497C85.3665 52.0007 85.0387 51.4751 84.4657 51.2371L72.3501 46.2036C72.31 46.1869 72.2695 46.1721 72.2288 46.1591C72.1922 46.1401 72.1548 46.1226 72.1165 46.1067C70.1757 45.3004 66.8594 48.8423 64.7092 54.0178C64.5284 54.4531 64.7426 54.9475 65.1779 55.1283L70.6198 57.3892L70.6391 57.3969L77.614 60.2947C77.898 60.4127 78.224 60.2782 78.3422 59.9942C78.3529 59.9685 78.3655 59.9437 78.3798 59.92C80.4795 55.1815 83.5216 51.9753 85.4012 52.5497Z" fill="#15130E"/>
<path d="M80.1738 50.7363C76.9261 50.2661 73.8175 55.9706 72.6692 58.8817L73.6843 59.3034C76.7268 52.5092 79.2784 50.7611 80.1738 50.7363Z" fill="#2C2B23"/>
<path d="M74.707 48.4648C71.4593 47.9947 68.3507 53.6992 67.2024 56.6102L68.2176 57.0319C71.26 50.2377 73.8116 48.4896 74.707 48.4648Z" fill="#2C2B23"/>
<ellipse cx="74.0817" cy="17.5247" rx="10.1476" ry="3.80533" transform="rotate(37.5606 74.0817 17.5247)" fill="#2C2B23"/>
<ellipse cx="59.3396" cy="36.6966" rx="10.1476" ry="3.80533" transform="rotate(37.5606 59.3396 36.6966)" fill="#2C2B23"/>
<g clip-path="url(#clip5_965_2256)">
<path d="M80.7197 24.0148L80.766 22.9836L66.5084 11.6994L65.7918 12.2151L64.9776 15.2159L62.2709 16.6548L61.4722 19.7742L58.7655 21.2131L57.8482 24.348L55.3272 25.8229L54.5645 28.7567L53.4561 29.5045L51.5641 30.7164L63.7642 40.0984L67.4613 42.0881L67.8374 40.3505L68.6003 38.8036L70.6883 38.1691L71.3481 36.7563L72.2088 34.1112L74.1833 33.0695L75.0081 31.9969L75.3533 30.0222L76.9566 28.9083L78.4363 28.2327L78.7093 26.6291L79.3226 24.8606L80.7197 24.0148Z" fill="#2C2B23"/>
<path d="M83.8517 19.5962L83.7715 19.629L83.6926 19.6627L83.6151 19.6975L83.5393 19.7336L83.4653 19.7711L83.3933 19.8102L83.3235 19.8509L83.256 19.8934L83.1909 19.9378L83.1285 19.9841L83.0687 20.0326L83.0116 20.0831L82.9574 20.1359L82.9061 20.1908L82.8578 20.248L82.8123 20.3075L82.7698 20.3692L82.7303 20.4332L82.6936 20.4994L82.6597 20.5678L82.6286 20.6383L82.6002 20.7108L82.5743 20.7853L82.5508 20.8617L82.5297 20.9398L82.5107 21.0196L82.4937 21.101L82.4785 21.1837L82.4649 21.2677L82.4528 21.3527L82.4419 21.4387L82.4319 21.5255L82.4228 21.6129L82.4142 21.7007L82.406 21.7888L82.3978 21.8769L82.3896 21.965L82.3809 22.0527L82.3717 22.14L82.3617 22.2267L82.3506 22.3126L82.3383 22.3976L82.3245 22.4814L82.3091 22.5639L82.2918 22.6451L82.2726 22.7247L82.2512 22.8026L82.2274 22.8788L82.2012 22.953L82.1725 23.0253L82.141 23.0955L82.1068 23.1636L82.0697 23.2295L82.0298 23.2932L81.9869 23.3547L81.9411 23.4139L81.8924 23.4708L81.8407 23.5254L81.7861 23.5779L81.7288 23.6282L81.6686 23.6764L81.6058 23.7225L81.5405 23.7666L81.4727 23.8089L81.4026 23.8494L81.3303 23.8882L81.2561 23.9255L81.18 23.9615L81.1024 23.9961L81.0233 24.0297L80.9429 24.0624L80.8616 24.0942L80.7795 24.1255L80.6968 24.1564L80.6139 24.1869L80.5308 24.2174L80.4478 24.248L80.3652 24.2789L80.2832 24.3103L80.202 24.3422L80.1218 24.375L80.0429 24.4087L79.9654 24.4435L79.8896 24.4796L79.8156 24.5171L79.7436 24.5562L79.6737 24.5969L79.6063 24.6394L79.5412 24.6838L79.4787 24.7301L79.4189 24.7786L79.3619 24.8291L79.3077 24.8819L79.2564 24.9368L79.2081 24.994L79.1626 25.0535L79.1201 25.1152L79.0806 25.1792L79.0439 25.2454L79.01 25.3138L78.9789 25.3843L78.9505 25.4568L78.9246 25.5313L78.9011 25.6077L78.88 25.6858L78.861 25.7656L78.844 25.847L78.8288 25.9297L78.8152 26.0137L78.8031 26.0987L78.7922 26.1847L78.7822 26.2715L78.7731 26.3589L78.7645 26.4467L78.7563 26.5348L78.7481 26.6229L78.7398 26.711L78.7312 26.7987L78.722 26.886L78.7119 26.9727L78.7009 27.0586L78.6886 27.1436L78.6748 27.2274L78.6594 27.3099L78.6421 27.3911L78.6229 27.4707L78.6015 27.5486L78.5777 27.6248L78.5515 27.699L78.5227 27.7713L78.4913 27.8415L78.4571 27.9096L78.42 27.9755L78.3801 28.0392L78.3372 28.1007L78.2914 28.1598L78.2426 28.2168L78.191 28.2714L78.1364 28.3239L78.079 28.3742L78.0189 28.4223L77.9561 28.4685L77.8908 28.5126L77.823 28.5549L77.7529 28.5954L77.6806 28.6342L77.6064 28.6715L77.5303 28.7075L77.4526 28.7421L77.3735 28.7757L77.2932 28.8084L77.2119 28.8402L77.1298 28.8715L77.0471 28.9023L76.9641 28.9329L76.881 28.9634L76.7981 28.994L76.7155 29.0249L76.6335 29.0563L76.5522 29.0882L76.4721 29.121L76.3931 29.1547L76.3157 29.1895L76.2398 29.2256L76.1658 29.2631L76.0939 29.3022L76.024 29.3429L75.9565 29.3854L75.8915 29.4298L75.829 29.4761L75.7692 29.5246L75.7122 29.5751L75.658 29.6279L75.6067 29.6828L75.5583 29.74L75.5129 29.7995L75.4704 29.8612L75.4308 29.9252L75.3942 29.9914L75.3603 30.0598L75.3292 30.1302L75.3007 30.2028L75.2749 30.2773L75.2514 30.3537L75.2303 30.4318L75.2113 30.5116L75.1943 30.593L75.1791 30.6757L75.1655 30.7597L75.1534 30.8447L75.1424 30.9307L75.1325 31.0175L75.1234 31.1049L75.1148 31.1927L75.1066 31.2808L75.0984 31.3689L75.0901 31.4569L75.0815 31.5447L75.0723 31.632L75.0622 31.7187L75.0512 31.8046L75.0388 31.8896L75.0251 31.9734L75.0097 32.0559L74.9924 32.1371L74.9732 32.2167L74.9517 32.2946L74.928 32.3708L74.9018 32.445L74.873 32.5173L74.8416 32.5875L74.8074 32.6556L74.7703 32.7215L74.7304 32.7852L74.6875 32.8467L74.6417 32.9058L74.5929 32.9628L74.5413 33.0174L74.4867 33.0699L74.4293 33.1202L74.3692 33.1683L74.3064 33.2145L74.241 33.2586L74.1732 33.3009L74.1031 33.3414L74.0309 33.3802L73.9566 33.4175L73.8806 33.4535L73.8029 33.4881L73.7238 33.5217L73.6435 33.5544L73.5622 33.5862L73.4801 33.6175L73.3974 33.6483L73.3144 33.6789L73.2313 33.7094L73.1484 33.74L73.0658 33.7709L72.9837 33.8023L72.9025 33.8342L72.8224 33.867L72.7434 33.9007L72.666 33.9355L72.5901 33.9716L72.5161 34.0091L72.4441 34.0482L72.3743 34.0889L72.3068 34.1314L72.2418 34.1758L72.1793 34.2221L72.1195 34.2706L72.0625 34.3211L72.0083 34.3739L71.957 34.4288L71.9086 34.486L71.8632 34.5455L71.8207 34.6072L71.7811 34.6712L71.7444 34.7374L71.7106 34.8058L71.6795 34.8762L71.651 34.9488L71.6251 35.0233L71.6017 35.0997L71.5806 35.1778L71.5616 35.2576L71.5446 35.339L71.5294 35.4217L71.5158 35.5056L71.5037 35.5907L71.4927 35.6767L71.4828 35.7635L71.4737 35.8509L71.4651 35.9387L71.4568 36.0268L71.4487 36.1149L71.4404 36.2029L71.4318 36.2907L71.4226 36.378L71.4125 36.4647L71.4015 36.5506L71.3891 36.6355L71.3754 36.7194L71.36 36.8019L71.3427 36.8831L71.3235 36.9627L71.302 37.0406L71.2783 37.1168L71.2521 37.191L71.2233 37.2633L71.1919 37.3335L71.1576 37.4016L71.1206 37.4675L71.0806 37.5312L71.0378 37.5927L70.992 37.6518L70.9432 37.7088L70.8916 37.7634L70.837 37.8159L70.7796 37.8662L70.7195 37.9143L70.6567 37.9605L70.5913 38.0046L70.5235 38.0469L70.4534 38.0874L70.3812 38.1262L70.3069 38.1635L70.2309 38.1995L70.1532 38.2341L70.0741 38.2677L69.9938 38.3004L69.9125 38.3322L69.8304 38.3635L69.7477 38.3943L69.6647 38.4249L69.5816 38.4554L69.4987 38.486L69.416 38.5169L69.334 38.5483L69.2528 38.5802L69.1726 38.613L69.0937 38.6467L69.0162 38.6815L68.9404 38.7176L68.8664 38.7551L68.7944 38.7942L68.7246 38.8349L68.6571 38.8774L68.5921 38.9218L68.5296 38.9681L68.4698 39.0166L68.4128 39.0671L68.3586 39.1199L68.3073 39.1748L68.2589 39.232L68.2135 39.2915L68.171 39.3532L68.1314 39.4172L68.0947 39.4834L68.0609 39.5518L68.0298 39.6222L68.0013 39.6948L67.9754 39.7693L67.952 39.8457L67.9308 39.9238L67.9119 40.0036L67.8949 40.0849L67.8797 40.1677L67.8661 40.2516L67.8539 40.3367L67.843 40.4227L67.8331 40.5095L67.824 40.5969L67.8154 40.6847L67.8071 40.7728L67.799 40.8609L67.7907 40.9489L67.7821 41.0367L67.7728 41.124L67.7628 41.2107L67.7517 41.2966L67.7394 41.3815L67.7257 41.4654L67.7102 41.5479L67.693 41.6291L67.6737 41.7087L67.6523 41.7866L67.6286 41.8628L67.6024 41.937L67.5736 42.0093L67.5422 42.0795L67.5079 42.1476L67.4709 42.2135L67.4309 42.2772L67.3881 42.3387L67.3423 42.3978L67.2935 42.4548L67.2418 42.5094L67.1873 42.5619L67.1299 42.6122L67.0698 42.6603L67.007 42.7065L66.9416 42.7506L66.8738 42.7929L66.8037 42.8334L66.7315 42.8722L66.6572 42.9095L66.5812 42.9455L66.5035 42.9801L66.4244 43.0137L66.3441 43.0464L66.2628 43.0782L66.1807 43.1095L66.098 43.1403L66.015 43.1709L65.9319 43.2014L65.8489 43.232L65.7663 43.2629L65.6843 43.2943" stroke="#2C2B23" stroke-width="0.84563" stroke-miterlimit="10" stroke-linecap="round" stroke-linejoin="round"/>
<path d="M51.3016 31.6883L51.3118 31.6047L51.3232 31.522L51.3361 31.4405L51.3505 31.3602L51.3668 31.2812L51.3851 31.2038L51.4054 31.1281L51.4281 31.0541L51.4532 30.9819L51.4808 30.9117L51.5111 30.8435L51.544 30.7775L51.5798 30.7135L51.6184 30.6518L51.6599 30.5922L51.7042 30.5349L51.7515 30.4798L51.8016 30.4269L51.8546 30.3762L51.9103 30.3277L51.9688 30.2812L52.0299 30.2367L52.0935 30.1942L52.1595 30.1535L52.2278 30.1146L52.2981 30.0773L52.3705 30.0415L52.4446 30.007L52.5203 29.9738L52.5974 29.9417L52.6757 29.9105L52.755 29.88L52.8351 29.8502L52.9157 29.8207L52.9967 29.7915L53.0778 29.7624L53.1587 29.7332L53.2392 29.7037L53.3192 29.6738L53.3984 29.6433L53.4766 29.612L53.5535 29.5797L53.6291 29.5463L53.703 29.5117L53.7751 29.4757L53.8452 29.4382L53.9132 29.3991L53.9789 29.3582L54.0422 29.3154L54.1029 29.2707L54.1611 29.224L54.2165 29.1751L54.2691 29.1242L54.3188 29.071L54.3657 29.0156L54.4097 28.958L54.4509 28.8982L54.4891 28.8362L54.5245 28.7719L54.5571 28.7056L54.587 28.6372L54.6143 28.5667L54.6391 28.4943L54.6614 28.4201L54.6815 28.3441L54.6995 28.2665L54.7156 28.1874L54.7298 28.1069L54.7425 28.0252L54.7537 27.9424L54.7638 27.8587L54.7729 27.7743L54.7811 27.6892L54.7889 27.6037L54.7963 27.518L54.8036 27.4322L54.8111 27.3465L54.8189 27.261L54.8273 27.1761L54.8364 27.0917L54.8466 27.0081L54.8581 26.9254L54.8709 26.8439L54.8854 26.7636L54.9016 26.6846L54.9199 26.6072L54.9403 26.5315L54.9629 26.4575L54.988 26.3853L55.0156 26.3151L55.0459 26.2469L55.0789 26.1808L55.1146 26.1169L55.1532 26.0552L55.1947 25.9956L55.2391 25.9383L55.2863 25.8832L55.3364 25.8303L55.3894 25.7796L55.4452 25.7311L55.5036 25.6846L55.5647 25.6401L55.6283 25.5976L55.6943 25.5569L55.7626 25.518L55.833 25.4807L55.9053 25.4449L55.9794 25.4104L56.0551 25.3772L56.1323 25.3451L56.2106 25.3139L56.2899 25.2834L56.37 25.2536L56.4506 25.2241L56.5315 25.1949L56.6126 25.1658L56.6935 25.1366L56.7741 25.1071L56.8541 25.0772L56.9333 25.0467L57.0114 25.0154L57.0884 24.9831L57.1639 24.9497L57.2378 24.9151L57.3099 24.8791L57.38 24.8416L57.448 24.8025L57.5137 24.7616L57.577 24.7188L57.6378 24.6741L57.6959 24.6274L57.7513 24.5785L57.8039 24.5275L57.8537 24.4744L57.9006 24.419L57.9446 24.3614L57.9857 24.3016L58.0239 24.2396L58.0593 24.1753L58.0919 24.109L58.1218 24.0406L58.1491 23.9701L58.1739 23.8977L58.1963 23.8235L58.2164 23.7475L58.2344 23.6699L58.2504 23.5908L58.2646 23.5103L58.2773 23.4286L58.2886 23.3458L58.2986 23.2621L58.3077 23.1777L58.316 23.0926L58.3237 23.0071L58.3311 22.9214L58.3385 22.8356L58.3459 22.7499L58.3537 22.6644L58.3621 22.5794L58.3713 22.4951L58.3815 22.4115L58.3929 22.3288L58.4057 22.2473L58.4202 22.167L58.4365 22.088L58.4547 22.0106L58.4751 21.9349L58.4978 21.8609L58.5229 21.7887L58.5505 21.7185L58.5807 21.6503L58.6137 21.5842L58.6494 21.5203L58.688 21.4586L58.7295 21.399L58.7739 21.3417L58.8211 21.2866L58.8713 21.2337L58.9242 21.183L58.98 21.1345L59.0385 21.088L59.0995 21.0435L59.1632 21.001L59.2292 20.9603L59.2974 20.9214L59.3678 20.8841L59.4401 20.8483L59.5143 20.8138L59.59 20.7806L59.6671 20.7485L59.7454 20.7173L59.8247 20.6868L59.9048 20.6569L59.9854 20.6275L60.0664 20.5983L60.1474 20.5692L60.2283 20.54L60.3089 20.5105L60.3889 20.4806L60.4681 20.4501L60.5463 20.4188L60.6232 20.3865L60.6987 20.3531L60.7726 20.3185L60.8447 20.2825L60.9149 20.245L60.9828 20.2059L61.0485 20.165L61.1118 20.1222L61.1726 20.0775L61.2307 20.0307L61.2861 19.9819L61.3387 19.9309L61.3885 19.8778L61.4354 19.8224L61.4794 19.7648L61.5205 19.705L61.5588 19.6429L61.5942 19.5787L61.6268 19.5124L61.6567 19.4439L61.684 19.3735L61.7087 19.3011L61.7311 19.2269L61.7512 19.1509L61.7692 19.0733L61.7852 18.9942L61.7995 18.9137L61.8121 18.832L61.8234 18.7492L61.8334 18.6655L61.8425 18.581L61.8508 18.496L61.8586 18.4105L61.866 18.3248L61.8733 18.239L61.8807 18.1533L61.8885 18.0678L61.8969 17.9828L61.9061 17.8985L61.9163 17.8149L61.9277 17.7322L61.9406 17.6507L61.955 17.5703L61.9713 17.4914L61.9896 17.414L62.0099 17.3383L62.0326 17.2642L62.0577 17.1921L62.0853 17.1219L62.1155 17.0537L62.1485 16.9876L62.1843 16.9237L62.2229 16.8619L62.2643 16.8024L62.3087 16.7451L62.356 16.69L62.4061 16.6371L62.4591 16.5864L62.5148 16.5378L62.5733 16.4914L62.6344 16.4469L62.698 16.4044L62.764 16.3637L62.8323 16.3248L62.9026 16.2875L62.975 16.2516L63.0491 16.2172L63.1248 16.184L63.2019 16.1519L63.2802 16.1206L63.3595 16.0902L63.4396 16.0603L63.5202 16.0309L63.6012 16.0017L63.6822 15.9726L63.7632 15.9434L63.8437 15.9139L63.9237 15.884L64.0029 15.8535L64.0811 15.8221L64.158 15.7899L64.2336 15.7565L64.3075 15.7219L64.3796 15.6859L64.4497 15.6484L64.5177 15.6093L64.5834 15.5684L64.6467 15.5256L64.7074 15.4809L64.7656 15.4341L64.821 15.3853L64.8736 15.3343L64.9233 15.2812L64.9702 15.2258L65.0142 15.1682L65.0553 15.1084L65.0936 15.0463L65.129 14.9821L65.1616 14.9158L65.1915 14.8473L65.2188 14.7769L65.2436 14.7045L65.2659 14.6303L65.286 14.5543L65.304 14.4767L65.3201 14.3976L65.3343 14.3171L65.347 14.2354L65.3582 14.1526L65.3683 14.0689L65.3773 13.9844L65.3856 13.8994L65.3934 13.8139L65.4008 13.7282L65.4081 13.6424L65.4156 13.5567L65.4234 13.4712L65.4318 13.3862L65.4409 13.3019L65.4511 13.2183L65.4626 13.1356L65.4754 13.054L65.4899 12.9737L65.5061 12.8948L65.5244 12.8174L65.5448 12.7416L65.5674 12.6676L65.5925 12.5955L65.6201 12.5253L65.6504 12.4571L65.6833 12.391L65.7191 12.3271L65.7577 12.2653L65.7992 12.2058L65.8435 12.1485L65.8908 12.0934L65.9409 12.0405L65.9939 11.9898L66.0497 11.9412L66.1081 11.8948L66.1692 11.8503L66.2328 11.8078L66.2988 11.7671L66.3671 11.7282L66.4375 11.6908L66.5098 11.655L66.5839 11.6206L66.6596 11.5874L66.7367 11.5553L66.8151 11.524L66.8944 11.4936L66.9744 11.4637L67.0551 11.4343L67.136 11.4051L67.2171 11.376L67.298 11.3468L67.3786 11.3173L67.4586 11.2874L67.5377 11.2569L67.6159 11.2255L67.6929 11.1933L67.7684 11.1599L67.8423 11.1253L67.9144 11.0893L67.9845 11.0518L68.0525 11.0127L68.1182 10.9717L68.1815 10.929L68.2423 10.8843L68.3004 10.8375L68.3558 10.7887L68.4084 10.7377L68.4582 10.6846L68.5051 10.6292L68.5491 10.5716L68.5902 10.5118L68.6284 10.4497L68.6638 10.3855L68.6964 10.3192L68.7263 10.2507L68.7536 10.1803L68.7784 10.1079L68.8008 10.0337L68.8209 9.95768L68.8389 9.88007L68.8549 9.80096L68.8691 9.72049L68.8818 9.63879L68.893 9.556L68.9031 9.4723L68.9122 9.38784L68.9205 9.30278L68.9282 9.2173L68.9356 9.13157L68.943 9.04576L68.9504 8.96005L68.9582 8.87461L68.9666 8.78962" stroke="#2C2B23" stroke-width="0.84563" stroke-miterlimit="10" stroke-linecap="round" stroke-linejoin="round"/>
</g>
<ellipse cx="74.0313" cy="17.5915" rx="8.79455" ry="2.87514" transform="rotate(37.5606 74.0313 17.5915)" fill="#15130E"/>
<path fill-rule="evenodd" clip-rule="evenodd" d="M62.5542 15.8811C62.0149 15.7724 61.4223 15.953 61.044 16.445L53.0463 26.8449C53.0209 26.8779 52.9971 26.9117 52.9748 26.946C52.9454 26.9779 52.9174 27.0111 52.8909 27.0456C51.6097 28.7116 54.1726 32.8317 58.6152 36.2481C58.9887 36.5353 59.5216 36.4563 59.8088 36.0829L61.725 33.5911C61.7371 33.5765 61.749 33.5616 61.7607 33.5464L68.0196 25.4075C68.2071 25.1636 68.1616 24.814 67.9178 24.6263C67.8923 24.6066 67.8685 24.5848 67.8469 24.5612C63.8207 21.3094 61.5161 17.5474 62.5542 15.8811Z" fill="#15130E"/>
<path d="M59.4512 20.4609C58.1564 23.4763 62.862 27.9554 65.3766 29.8181L66.0467 28.9466C60.2715 24.2494 59.2433 21.3323 59.4512 20.4609Z" fill="#2C2B23"/>
<path d="M55.8418 25.1533C54.5471 28.1687 59.2526 32.6478 61.7672 34.5104L62.4374 33.639C56.6621 28.9418 55.634 26.0247 55.8418 25.1533Z" fill="#2C2B23"/>
</g>
<defs>
<clipPath id="clip0_965_2256">
<rect width="100" height="100" fill="white"/>
</clipPath>
<clipPath id="clip1_965_2256">
<rect width="24.3541" height="30.4427" fill="white" transform="translate(6.25391 45.8965) rotate(-22.4394)"/>
</clipPath>
<clipPath id="clip2_965_2256">
<rect width="24.3541" height="30.4427" fill="white" transform="translate(40.1191 6.45117) rotate(52.5606)"/>
</clipPath>
<clipPath id="clip3_965_2256">
<rect width="24.3541" height="30.4427" fill="white" transform="translate(33.4023 88.915) rotate(-93.101)"/>
</clipPath>
<clipPath id="clip4_965_2256">
<rect width="24.3541" height="30.4427" fill="white" transform="translate(80.2949 79.5391) rotate(-157.439)"/>
</clipPath>
<clipPath id="clip5_965_2256">
<rect width="24.3541" height="30.4427" fill="white" transform="translate(87.3047 27.7988) rotate(127.561)"/>
</clipPath>
</defs>
</svg>
