<svg width="160" height="160" viewBox="0 0 160 160" fill="none" xmlns="http://www.w3.org/2000/svg">
<g clip-path="url(#clip0_1101_2183)">
<rect width="80" height="80" fill="#FFBA3C"/>
<circle cx="40.0195" cy="40.0494" r="3.19137" transform="rotate(45 40.0195 40.0494)" fill="#2E1F05" fill-opacity="0.1"/>
<path d="M35.2036 50.2774L34.8194 50.6616C33.4938 51.9723 32.3279 52.908 31.3217 53.4685C30.308 54.0216 29.341 54.3201 28.4207 54.3639C27.5003 54.4077 26.5361 54.3172 25.5278 54.0924C24.766 53.9331 24.0411 53.8334 23.3533 53.7934C22.6654 53.7533 22.0179 53.8214 21.4108 53.9976C20.7961 54.1815 20.244 54.5182 19.7544 55.0078C19.2347 55.5275 18.9015 56.1058 18.755 56.7426C18.6084 57.3794 18.6376 58.0113 18.8427 58.6382C19.0403 59.2576 19.388 59.8162 19.8857 60.3139C20.3685 60.7967 20.9346 61.1443 21.5839 61.3567C22.2256 61.5766 22.8948 61.6131 23.5915 61.4661C24.2806 61.3267 24.9451 60.9593 25.5851 60.3639L30.1311 64.9099C28.5875 66.3793 26.988 67.2656 25.3329 67.5688C23.6701 67.8796 22.0406 67.719 20.4443 67.0868C18.8405 66.4622 17.3663 65.4777 16.0218 64.1332C14.5436 62.655 13.4849 61.099 12.8455 59.4654C12.1986 57.8393 12.019 56.2361 12.3068 54.6558C12.5946 53.0755 13.3976 51.6263 14.7158 50.3081C15.5971 49.4268 16.5253 48.7883 17.5005 48.3925C18.4607 47.9969 19.4607 47.7917 20.5005 47.7769C21.5328 47.7697 22.6089 47.9043 23.729 48.1808C24.6698 48.4136 25.5218 48.5273 26.2848 48.522C27.0403 48.5092 27.7633 48.3434 28.4537 48.0244C29.1366 47.698 29.8509 47.1694 30.5965 46.4387L30.9807 46.0545L35.2036 50.2774Z" fill="#2E1F05" fill-opacity="0.05"/>
<path d="M50.2833 44.8296L50.6674 45.2138C51.9782 46.5394 52.9138 47.7053 53.4744 48.7115C54.0275 49.7252 54.3259 50.6922 54.3697 51.6125C54.4136 52.5329 54.3231 53.4971 54.0982 54.5054C53.939 55.2672 53.8393 55.9921 53.7992 56.68C53.7591 57.3678 53.8272 58.0153 54.0035 58.6224C54.1873 59.2371 54.524 59.7892 55.0136 60.2788C55.5334 60.7985 56.1117 61.1317 56.7485 61.2783C57.3853 61.4248 58.0171 61.3956 58.644 61.1905C59.2635 60.9929 59.8221 60.6452 60.3197 60.1475C60.8026 59.6647 61.1502 59.0986 61.3626 58.4493C61.5825 57.8076 61.619 57.1384 61.472 56.4417C61.3325 55.7526 60.9651 55.0881 60.3698 54.4481L64.9158 49.9021C66.3851 51.4457 67.2714 53.0452 67.5747 54.7003C67.8855 56.3631 67.7248 57.9926 67.0927 59.5889C66.4681 61.1927 65.4835 62.6669 64.139 64.0114C62.6608 65.4896 61.1049 66.5483 59.4713 67.1877C57.8451 67.8346 56.2419 68.0142 54.6617 67.7264C53.0814 67.4386 51.6321 66.6356 50.314 65.3174C49.4327 64.4361 48.7941 63.5079 48.3984 62.5327C48.0027 61.5726 47.7975 60.5725 47.7828 59.5327C47.7756 58.5004 47.9102 57.4243 48.1866 56.3042C48.4194 55.3634 48.5332 54.5114 48.5278 53.7484C48.5151 52.9929 48.3492 52.2699 48.0303 51.5795C47.7039 50.8966 47.1753 50.1823 46.4445 49.4367L46.0604 49.0525L50.2833 44.8296Z" fill="#2E1F05" fill-opacity="0.05"/>
<path d="M44.8296 29.7558L45.2138 29.3716C46.5394 28.0609 47.7053 27.1252 48.7115 26.5647C49.7252 26.0116 50.6922 25.7131 51.6125 25.6693C52.5329 25.6255 53.4971 25.716 54.5054 25.9409C55.2672 26.1001 55.9921 26.1998 56.68 26.2398C57.3678 26.2799 58.0153 26.2118 58.6224 26.0356C59.2371 25.8518 59.7892 25.515 60.2788 25.0254C60.7985 24.5057 61.1317 23.9274 61.2783 23.2906C61.4248 22.6538 61.3956 22.0219 61.1905 21.395C60.9929 20.7756 60.6452 20.217 60.1475 19.7193C59.6647 19.2365 59.0986 18.8889 58.4493 18.6765C57.8076 18.4566 57.1384 18.4201 56.4417 18.5671C55.7526 18.7065 55.0881 19.0739 54.4481 19.6693L49.9021 15.1233C51.4457 13.6539 53.0452 12.7676 54.7003 12.4644C56.3631 12.1536 57.9926 12.3142 59.5889 12.9464C61.1927 13.571 62.6669 14.5555 64.0114 15.9C65.4896 17.3782 66.5483 18.9342 67.1877 20.5678C67.8346 22.1939 68.0142 23.7971 67.7264 25.3774C67.4386 26.9577 66.6356 28.4069 65.3174 29.7251C64.4361 30.6064 63.5079 31.2449 62.5327 31.6407C61.5726 32.0363 60.5725 32.2415 59.5327 32.2563C58.5004 32.2635 57.4243 32.1289 56.3042 31.8524C55.3634 31.6196 54.5114 31.5059 53.7484 31.5112C52.9929 31.524 52.2699 31.6898 51.5795 32.0088C50.8966 32.3352 50.1823 32.8638 49.4367 33.5945L49.0525 33.9787L44.8296 29.7558Z" fill="#2E1F05" fill-opacity="0.05"/>
<path d="M29.7617 35.2036L29.3775 34.8194C28.0667 33.4938 27.1311 32.3279 26.5706 31.3217C26.0175 30.308 25.719 29.341 25.6752 28.4207C25.6314 27.5003 25.7219 26.5361 25.9467 25.5278C26.106 24.766 26.2056 24.0411 26.2457 23.3533C26.2858 22.6654 26.2177 22.0179 26.0414 21.4108C25.8576 20.7961 25.5209 20.244 25.0313 19.7544C24.5115 19.2347 23.9333 18.9015 23.2965 18.7549C22.6596 18.6084 22.0278 18.6376 21.4009 18.8427C20.7814 19.0403 20.2229 19.388 19.7252 19.8857C19.2423 20.3685 18.8947 20.9346 18.6823 21.5839C18.4624 22.2256 18.426 22.8948 18.5729 23.5915C18.7124 24.2806 19.0798 24.9451 19.6752 25.5851L15.1291 30.1311C13.6598 28.5875 12.7735 26.988 12.4702 25.3329C12.1594 23.6701 12.3201 22.0406 12.9522 20.4443C13.5768 18.8405 14.5614 17.3663 15.9059 16.0218C17.3841 14.5436 18.94 13.4849 20.5737 12.8455C22.1998 12.1986 23.803 12.019 25.3833 12.3068C26.9635 12.5946 28.4128 13.3976 29.731 14.7158C30.6123 15.5971 31.2508 16.5253 31.6465 17.5005C32.0422 18.4607 32.2474 19.4607 32.2621 20.5005C32.2693 21.5328 32.1347 22.6089 31.8583 23.729C31.6255 24.6698 31.5118 25.5218 31.5171 26.2848C31.5298 27.0403 31.6957 27.7633 32.0147 28.4537C32.3411 29.1366 32.8696 29.8509 33.6004 30.5965L33.9846 30.9807L29.7617 35.2036Z" fill="#2E1F05" fill-opacity="0.05"/>
</g>
<rect width="80" height="80" transform="translate(0 80)" fill="#FFBA3C"/>
<circle cx="40.041" cy="120.041" r="3.19137" fill="#2E1F05" fill-opacity="0.1"/>
<path d="M43.868 130.679L43.868 131.222C43.8575 133.086 43.6946 134.573 43.3795 135.68C43.0538 136.788 42.5811 137.683 41.9613 138.365C41.3415 139.047 40.5957 139.664 39.7238 140.218C39.0724 140.644 38.4894 141.087 37.9747 141.545C37.4599 142.003 37.0502 142.509 36.7456 143.063C36.441 143.627 36.2886 144.256 36.2886 144.948C36.2886 145.683 36.462 146.328 36.8086 146.882C37.1553 147.435 37.6228 147.862 38.211 148.16C38.7888 148.458 39.4296 148.607 40.1334 148.607C40.8163 148.607 41.4623 148.453 42.0716 148.144C42.6809 147.846 43.1799 147.398 43.5686 146.802C43.9573 146.216 44.1674 145.486 44.1989 144.613L50.6279 144.613C50.5754 146.743 50.0712 148.501 49.1152 149.886C48.1593 151.281 46.8934 152.32 45.3177 153.001C43.7419 153.694 42.0033 154.04 40.1019 154.04C38.0114 154.04 36.1626 153.689 34.5553 152.985C32.948 152.293 31.6874 151.286 30.7735 149.965C29.8596 148.645 29.4026 147.052 29.4026 145.188C29.4026 143.941 29.6075 142.834 30.0172 141.864C30.4163 140.905 30.9784 140.053 31.7032 139.308C32.428 138.573 33.2842 137.907 34.2717 137.31C35.1016 136.81 35.7844 136.288 36.3201 135.744C36.8454 135.201 37.2393 134.573 37.502 133.859C37.7541 133.145 37.8854 132.266 37.8959 131.222L37.8959 130.679L43.868 130.679Z" fill="#2E1F05" fill-opacity="0.05"/>
<path d="M50.679 116.163L51.2223 116.163C53.0865 116.174 54.5725 116.337 55.6804 116.652C56.7882 116.977 57.683 117.45 58.3648 118.07C59.0466 118.69 59.6644 119.436 60.2184 120.307C60.6445 120.959 61.0865 121.542 61.5446 122.057C62.0027 122.571 62.5087 122.981 63.0626 123.286C63.6272 123.59 64.2557 123.743 64.9481 123.743C65.6831 123.743 66.3276 123.569 66.8815 123.223C67.4355 122.876 67.8616 122.408 68.1598 121.82C68.4581 121.242 68.6072 120.602 68.6072 119.898C68.6072 119.215 68.4528 118.569 68.1439 117.96C67.8456 117.35 67.3982 116.851 66.8016 116.463C66.2157 116.074 65.486 115.864 64.6125 115.832L64.6125 109.403C66.743 109.456 68.5007 109.96 69.8855 110.916C71.281 111.872 72.3197 113.138 73.0014 114.714C73.6938 116.289 74.04 118.028 74.04 119.929C74.04 122.02 73.6885 123.869 72.9854 125.476C72.293 127.083 71.2864 128.344 69.9654 129.258C68.6445 130.172 67.052 130.629 65.1878 130.629C63.9414 130.629 62.8336 130.424 61.8642 130.014C60.9054 129.615 60.0532 129.053 59.3076 128.328C58.5725 127.603 57.9068 126.747 57.3102 125.76C56.8095 124.93 56.2876 124.247 55.7443 123.711C55.201 123.186 54.5725 122.792 53.8588 122.529C53.1451 122.277 52.2662 122.146 51.2223 122.135L50.679 122.135L50.679 116.163Z" fill="#2E1F05" fill-opacity="0.05"/>
<path d="M36.1633 109.361V108.818C36.1738 106.954 36.3366 105.468 36.6518 104.36C36.9774 103.252 37.4501 102.357 38.0699 101.675C38.6897 100.993 39.4356 100.376 40.3075 99.8217C40.9588 99.3956 41.5418 98.9535 42.0566 98.4954C42.5713 98.0374 42.981 97.5314 43.2857 96.9775C43.5903 96.4129 43.7426 95.7844 43.7426 95.092C43.7426 94.3569 43.5693 93.7124 43.2226 93.1585C42.876 92.6046 42.4085 92.1785 41.8202 91.8802C41.2424 91.5819 40.6016 91.4328 39.8978 91.4328C39.215 91.4328 38.5689 91.5873 37.9596 91.8962C37.3503 92.1945 36.8514 92.6419 36.4627 93.2384C36.074 93.8243 35.8639 94.554 35.8324 95.4275H29.4033C29.4558 93.297 29.9601 91.5393 30.916 90.1545C31.872 88.759 33.1378 87.7204 34.7136 87.0386C36.2893 86.3462 38.0279 86 39.9293 86C42.0198 86 43.8687 86.3515 45.4759 87.0546C47.0832 87.747 48.3438 88.7537 49.2577 90.0746C50.1717 91.3955 50.6286 92.9881 50.6286 94.8523C50.6286 96.0986 50.4238 97.2065 50.0141 98.1759C49.6149 99.1346 49.0529 99.9868 48.3281 100.732C47.6032 101.468 46.7471 102.133 45.7596 102.73C44.9297 103.231 44.2469 103.752 43.7111 104.296C43.1859 104.839 42.7919 105.468 42.5293 106.181C42.2772 106.895 42.1459 107.774 42.1354 108.818V109.361H36.1633Z" fill="#2E1F05" fill-opacity="0.05"/>
<path d="M29.361 123.868L28.8178 123.868C26.9536 123.857 25.4675 123.695 24.3597 123.379C23.2518 123.054 22.357 122.581 21.6752 121.961C20.9935 121.342 20.3756 120.596 19.8217 119.724C19.3956 119.072 18.9535 118.489 18.4954 117.975C18.0374 117.46 17.5314 117.05 16.9775 116.746C16.4129 116.441 15.7844 116.289 15.092 116.289C14.3569 116.289 13.7124 116.462 13.1585 116.809C12.6046 117.155 12.1785 117.623 11.8802 118.211C11.5819 118.789 11.4328 119.43 11.4328 120.133C11.4328 120.816 11.5873 121.462 11.8962 122.072C12.1945 122.681 12.6419 123.18 13.2384 123.569C13.8243 123.957 14.554 124.167 15.4275 124.199L15.4275 130.628C13.297 130.575 11.5393 130.071 10.1545 129.115C8.75901 128.159 7.72039 126.893 7.03862 125.318C6.34621 123.742 6 122.003 6 120.102C6 118.011 6.35153 116.163 7.0546 114.555C7.74702 112.948 8.75368 111.687 10.0746 110.774C11.3955 109.86 12.9881 109.403 14.8523 109.403C16.0986 109.403 17.2065 109.607 18.1759 110.017C19.1346 110.416 19.9868 110.978 20.7325 111.703C21.4675 112.428 22.1333 113.284 22.7298 114.272C23.2305 115.102 23.7525 115.784 24.2958 116.32C24.839 116.845 25.4675 117.239 26.1813 117.502C26.895 117.754 27.7738 117.885 28.8178 117.896L29.361 117.896L29.361 123.868Z" fill="#2E1F05" fill-opacity="0.05"/>
<rect width="80" height="80" transform="translate(80)" fill="#FFBA3C"/>
<circle cx="120.041" cy="40.041" r="3.19137" fill="#2E1F05" fill-opacity="0.1"/>
<path d="M123.868 50.679L123.868 51.2223C123.857 53.0865 123.695 54.5725 123.379 55.6804C123.054 56.7882 122.581 57.683 121.961 58.3648C121.342 59.0466 120.596 59.6644 119.724 60.2184C119.072 60.6445 118.489 61.0865 117.975 61.5446C117.46 62.0027 117.05 62.5087 116.746 63.0626C116.441 63.6272 116.289 64.2557 116.289 64.9481C116.289 65.6831 116.462 66.3276 116.809 66.8815C117.155 67.4355 117.623 67.8616 118.211 68.1598C118.789 68.4581 119.43 68.6072 120.133 68.6072C120.816 68.6072 121.462 68.4528 122.072 68.1439C122.681 67.8456 123.18 67.3982 123.569 66.8016C123.957 66.2157 124.167 65.486 124.199 64.6125L130.628 64.6125C130.575 66.743 130.071 68.5007 129.115 69.8855C128.159 71.281 126.893 72.3197 125.318 73.0014C123.742 73.6938 122.003 74.04 120.102 74.04C118.011 74.04 116.163 73.6885 114.555 72.9854C112.948 72.293 111.687 71.2864 110.774 69.9654C109.86 68.6445 109.403 67.052 109.403 65.1878C109.403 63.9414 109.607 62.8336 110.017 61.8642C110.416 60.9054 110.978 60.0532 111.703 59.3076C112.428 58.5725 113.284 57.9067 114.272 57.3102C115.102 56.8095 115.784 56.2876 116.32 55.7443C116.845 55.201 117.239 54.5725 117.502 53.8588C117.754 53.1451 117.885 52.2662 117.896 51.2223L117.896 50.679L123.868 50.679Z" fill="#2E1F05" fill-opacity="0.05"/>
<path d="M130.679 36.1633L131.222 36.1633C133.086 36.1738 134.573 36.3366 135.68 36.6518C136.788 36.9774 137.683 37.4501 138.365 38.0699C139.047 38.6897 139.664 39.4356 140.218 40.3075C140.644 40.9588 141.087 41.5418 141.545 42.0566C142.003 42.5713 142.509 42.981 143.063 43.2857C143.627 43.5903 144.256 43.7426 144.948 43.7426C145.683 43.7426 146.328 43.5693 146.882 43.2226C147.435 42.876 147.862 42.4085 148.16 41.8202C148.458 41.2424 148.607 40.6016 148.607 39.8978C148.607 39.215 148.453 38.5689 148.144 37.9596C147.846 37.3503 147.398 36.8514 146.802 36.4627C146.216 36.074 145.486 35.8639 144.613 35.8324L144.613 29.4033C146.743 29.4558 148.501 29.9601 149.886 30.916C151.281 31.872 152.32 33.1378 153.001 34.7136C153.694 36.2893 154.04 38.0279 154.04 39.9293C154.04 42.0198 153.689 43.8687 152.985 45.4759C152.293 47.0832 151.286 48.3438 149.965 49.2577C148.645 50.1717 147.052 50.6286 145.188 50.6286C143.941 50.6286 142.834 50.4238 141.864 50.0141C140.905 49.6149 140.053 49.0529 139.308 48.3281C138.573 47.6032 137.907 46.7471 137.31 45.7596C136.81 44.9297 136.288 44.2469 135.744 43.7111C135.201 43.1859 134.573 42.7919 133.859 42.5293C133.145 42.2772 132.266 42.1459 131.222 42.1354L130.679 42.1354L130.679 36.1633Z" fill="#2E1F05" fill-opacity="0.05"/>
<path d="M116.163 29.361V28.8178C116.174 26.9536 116.337 25.4675 116.652 24.3597C116.977 23.2518 117.45 22.357 118.07 21.6752C118.69 20.9935 119.436 20.3756 120.307 19.8217C120.959 19.3956 121.542 18.9535 122.057 18.4954C122.571 18.0374 122.981 17.5314 123.286 16.9775C123.59 16.4129 123.743 15.7844 123.743 15.092C123.743 14.3569 123.569 13.7124 123.223 13.1585C122.876 12.6046 122.408 12.1785 121.82 11.8802C121.242 11.5819 120.602 11.4328 119.898 11.4328C119.215 11.4328 118.569 11.5873 117.96 11.8962C117.35 12.1945 116.851 12.6419 116.463 13.2384C116.074 13.8243 115.864 14.554 115.832 15.4275H109.403C109.456 13.297 109.96 11.5393 110.916 10.1545C111.872 8.75901 113.138 7.72039 114.714 7.03862C116.289 6.34621 118.028 6 119.929 6C122.02 6 123.869 6.35153 125.476 7.0546C127.083 7.74702 128.344 8.75369 129.258 10.0746C130.172 11.3955 130.629 12.9881 130.629 14.8523C130.629 16.0986 130.424 17.2065 130.014 18.1759C129.615 19.1346 129.053 19.9868 128.328 20.7325C127.603 21.4675 126.747 22.1333 125.76 22.7298C124.93 23.2305 124.247 23.7525 123.711 24.2958C123.186 24.839 122.792 25.4675 122.529 26.1813C122.277 26.895 122.146 27.7738 122.135 28.8178V29.361H116.163Z" fill="#2E1F05" fill-opacity="0.05"/>
<path d="M109.361 43.868L108.818 43.868C106.954 43.8575 105.468 43.6946 104.36 43.3795C103.252 43.0538 102.357 42.5811 101.675 41.9613C100.993 41.3415 100.376 40.5957 99.8217 39.7238C99.3956 39.0724 98.9535 38.4894 98.4954 37.9747C98.0374 37.4599 97.5314 37.0502 96.9775 36.7456C96.4129 36.4409 95.7844 36.2886 95.092 36.2886C94.3569 36.2886 93.7124 36.462 93.1585 36.8086C92.6046 37.1553 92.1785 37.6228 91.8802 38.211C91.5819 38.7888 91.4328 39.4296 91.4328 40.1334C91.4328 40.8163 91.5873 41.4623 91.8962 42.0716C92.1945 42.6809 92.6419 43.1799 93.2384 43.5686C93.8243 43.9573 94.554 44.1674 95.4275 44.1989L95.4275 50.6279C93.297 50.5754 91.5393 50.0712 90.1545 49.1152C88.759 48.1593 87.7204 46.8934 87.0386 45.3177C86.3462 43.7419 86 42.0033 86 40.1019C86 38.0114 86.3515 36.1626 87.0546 34.5553C87.747 32.948 88.7537 31.6874 90.0746 30.7735C91.3955 29.8596 92.9881 29.4026 94.8523 29.4026C96.0986 29.4026 97.2065 29.6075 98.1759 30.0171C99.1346 30.4163 99.9868 30.9784 100.732 31.7032C101.468 32.428 102.133 33.2842 102.73 34.2717C103.231 35.1016 103.752 35.7844 104.296 36.3201C104.839 36.8454 105.468 37.2393 106.181 37.5019C106.895 37.7541 107.774 37.8854 108.818 37.8959L109.361 37.8959L109.361 43.868Z" fill="#2E1F05" fill-opacity="0.05"/>
<g clip-path="url(#clip1_1101_2183)">
<rect width="80" height="80" transform="translate(80 80)" fill="#FFBA3C"/>
<circle cx="120.02" cy="120.049" r="3.19137" transform="rotate(45 120.02 120.049)" fill="#2E1F05" fill-opacity="0.1"/>
<path d="M115.204 130.277L114.819 130.662C113.494 131.972 112.328 132.908 111.322 133.469C110.308 134.022 109.341 134.32 108.421 134.364C107.5 134.408 106.536 134.317 105.528 134.092C104.766 133.933 104.041 133.833 103.353 133.793C102.665 133.753 102.018 133.821 101.411 133.998C100.796 134.181 100.244 134.518 99.7544 135.008C99.2347 135.528 98.9015 136.106 98.755 136.743C98.6084 137.379 98.6376 138.011 98.8427 138.638C99.0403 139.258 99.388 139.816 99.8857 140.314C100.369 140.797 100.935 141.144 101.584 141.357C102.226 141.577 102.895 141.613 103.591 141.466C104.281 141.327 104.945 140.959 105.585 140.364L110.131 144.91C108.587 146.379 106.988 147.266 105.333 147.569C103.67 147.88 102.041 147.719 100.444 147.087C98.8405 146.462 97.3663 145.478 96.0218 144.133C94.5436 142.655 93.4849 141.099 92.8455 139.465C92.1986 137.839 92.019 136.236 92.3068 134.656C92.5946 133.076 93.3976 131.626 94.7158 130.308C95.5971 129.427 96.5253 128.788 97.5005 128.393C98.4607 127.997 99.4607 127.792 100.5 127.777C101.533 127.77 102.609 127.904 103.729 128.181C104.67 128.414 105.522 128.527 106.285 128.522C107.04 128.509 107.763 128.343 108.454 128.024C109.137 127.698 109.851 127.169 110.597 126.439L110.981 126.055L115.204 130.277Z" fill="#2E1F05" fill-opacity="0.05"/>
<path d="M130.283 124.83L130.667 125.214C131.978 126.539 132.914 127.705 133.474 128.712C134.027 129.725 134.326 130.692 134.37 131.613C134.414 132.533 134.323 133.497 134.098 134.505C133.939 135.267 133.839 135.992 133.799 136.68C133.759 137.368 133.827 138.015 134.004 138.622C134.187 139.237 134.524 139.789 135.014 140.279C135.533 140.799 136.112 141.132 136.748 141.278C137.385 141.425 138.017 141.396 138.644 141.19C139.263 140.993 139.822 140.645 140.32 140.148C140.803 139.665 141.15 139.099 141.363 138.449C141.582 137.808 141.619 137.138 141.472 136.442C141.333 135.753 140.965 135.088 140.37 134.448L144.916 129.902C146.385 131.446 147.271 133.045 147.575 134.7C147.885 136.363 147.725 137.993 147.093 139.589C146.468 141.193 145.484 142.667 144.139 144.011C142.661 145.49 141.105 146.548 139.471 147.188C137.845 147.835 136.242 148.014 134.662 147.726C133.081 147.439 131.632 146.636 130.314 145.317C129.433 144.436 128.794 143.508 128.398 142.533C128.003 141.573 127.798 140.573 127.783 139.533C127.776 138.5 127.91 137.424 128.187 136.304C128.419 135.363 128.533 134.511 128.528 133.748C128.515 132.993 128.349 132.27 128.03 131.58C127.704 130.897 127.175 130.182 126.445 129.437L126.06 129.053L130.283 124.83Z" fill="#2E1F05" fill-opacity="0.05"/>
<path d="M124.83 109.756L125.214 109.372C126.539 108.061 127.705 107.125 128.712 106.565C129.725 106.012 130.692 105.713 131.613 105.669C132.533 105.625 133.497 105.716 134.505 105.941C135.267 106.1 135.992 106.2 136.68 106.24C137.368 106.28 138.015 106.212 138.622 106.036C139.237 105.852 139.789 105.515 140.279 105.025C140.799 104.506 141.132 103.927 141.278 103.291C141.425 102.654 141.396 102.022 141.19 101.395C140.993 100.776 140.645 100.217 140.148 99.7193C139.665 99.2365 139.099 98.8889 138.449 98.6765C137.808 98.4566 137.138 98.4201 136.442 98.5671C135.753 98.7065 135.088 99.0739 134.448 99.6693L129.902 95.1233C131.446 93.6539 133.045 92.7676 134.7 92.4644C136.363 92.1536 137.993 92.3142 139.589 92.9464C141.193 93.571 142.667 94.5555 144.011 95.9C145.49 97.3782 146.548 98.9342 147.188 100.568C147.835 102.194 148.014 103.797 147.726 105.377C147.439 106.958 146.636 108.407 145.317 109.725C144.436 110.606 143.508 111.245 142.533 111.641C141.573 112.036 140.573 112.242 139.533 112.256C138.5 112.263 137.424 112.129 136.304 111.852C135.363 111.62 134.511 111.506 133.748 111.511C132.993 111.524 132.27 111.69 131.58 112.009C130.897 112.335 130.182 112.864 129.437 113.595L129.053 113.979L124.83 109.756Z" fill="#2E1F05" fill-opacity="0.05"/>
<path d="M109.762 115.204L109.377 114.819C108.067 113.494 107.131 112.328 106.571 111.322C106.017 110.308 105.719 109.341 105.675 108.421C105.631 107.5 105.722 106.536 105.947 105.528C106.106 104.766 106.206 104.041 106.246 103.353C106.286 102.665 106.218 102.018 106.041 101.411C105.858 100.796 105.521 100.244 105.031 99.7544C104.512 99.2347 103.933 98.9015 103.296 98.7549C102.66 98.6084 102.028 98.6376 101.401 98.8427C100.781 99.0403 100.223 99.388 99.7252 99.8857C99.2423 100.369 98.8947 100.935 98.6823 101.584C98.4624 102.226 98.426 102.895 98.5729 103.591C98.7124 104.281 99.0798 104.945 99.6752 105.585L95.1291 110.131C93.6598 108.587 92.7735 106.988 92.4702 105.333C92.1594 103.67 92.3201 102.041 92.9522 100.444C93.5768 98.8405 94.5614 97.3663 95.9059 96.0218C97.3841 94.5436 98.94 93.4849 100.574 92.8455C102.2 92.1986 103.803 92.019 105.383 92.3068C106.964 92.5946 108.413 93.3976 109.731 94.7158C110.612 95.5971 111.251 96.5253 111.647 97.5005C112.042 98.4607 112.247 99.4607 112.262 100.5C112.269 101.533 112.135 102.609 111.858 103.729C111.625 104.67 111.512 105.522 111.517 106.285C111.53 107.04 111.696 107.763 112.015 108.454C112.341 109.137 112.87 109.851 113.6 110.597L113.985 110.981L109.762 115.204Z" fill="#2E1F05" fill-opacity="0.05"/>
</g>
<defs>
<clipPath id="clip0_1101_2183">
<rect width="80" height="80" fill="white"/>
</clipPath>
<clipPath id="clip1_1101_2183">
<rect width="80" height="80" fill="white" transform="translate(80 80)"/>
</clipPath>
</defs>
</svg>
