<svg width="872" height="61" viewBox="0 0 872 61" fill="none" xmlns="http://www.w3.org/2000/svg">
<mask id="mask0_579_68" style="mask-type:alpha" maskUnits="userSpaceOnUse" x="3" y="6" width="867" height="55">
<path d="M3.51701 49V8.53458H19.4819C22.551 8.53458 25.1658 9.12075 27.326 10.2931C29.4863 11.4523 31.1328 13.0659 32.2656 15.1339C33.4116 17.1888 33.9846 19.5598 33.9846 22.247C33.9846 24.9341 33.4051 27.3052 32.2459 29.36C31.0867 31.4149 29.4072 33.0154 27.2075 34.1614C25.0209 35.3074 22.3732 35.8804 19.2645 35.8804H9.08891V29.0241H17.8814C19.528 29.0241 20.8847 28.7409 21.9517 28.1745C23.0318 27.595 23.8353 26.798 24.3622 25.7838C24.9023 24.7563 25.1723 23.5774 25.1723 22.247C25.1723 20.9034 24.9023 19.7311 24.3622 18.73C23.8353 17.7157 23.0318 16.9319 21.9517 16.3787C20.8716 15.8123 19.5016 15.5291 17.8419 15.5291H12.0724V49H3.51701ZM48.3572 8.53458V49H39.94V8.53458H48.3572ZM64.3104 49.573C62.374 49.573 60.6485 49.2371 59.1337 48.5653C57.6188 47.8804 56.4202 46.8727 55.5376 45.5423C54.6682 44.1987 54.2335 42.5258 54.2335 40.5236C54.2335 38.8375 54.5431 37.4215 55.1622 36.2755C55.7813 35.1295 56.6243 34.2075 57.6913 33.5093C58.7582 32.8112 59.9701 32.2843 61.3268 31.9287C62.6968 31.573 64.1326 31.3227 65.6342 31.1778C67.3993 30.9934 68.8219 30.8222 69.902 30.6641C70.9822 30.4929 71.7659 30.2426 72.2533 29.9133C72.7407 29.584 72.9844 29.0966 72.9844 28.4512V28.3326C72.9844 27.0812 72.5892 26.1131 71.7989 25.4281C71.0217 24.7431 69.9152 24.4007 68.4794 24.4007C66.9646 24.4007 65.7593 24.7366 64.8636 25.4083C63.9679 26.067 63.3751 26.8968 63.0854 27.8979L55.3005 27.2656C55.6957 25.4215 56.4728 23.8277 57.632 22.4841C58.7912 21.1273 60.2862 20.0867 62.1172 19.3622C63.9613 18.6246 66.0952 18.2558 68.5189 18.2558C70.205 18.2558 71.8186 18.4533 73.3598 18.8485C74.9141 19.2437 76.2906 19.8562 77.4893 20.6861C78.7012 21.5159 79.6562 22.5829 80.3543 23.8869C81.0524 25.1778 81.4015 26.7256 81.4015 28.5302V49H73.4191V44.7914H73.182C72.6946 45.7398 72.0425 46.5763 71.2259 47.3008C70.4092 48.0121 69.4278 48.5719 68.2818 48.9802C67.1358 49.3754 65.812 49.573 64.3104 49.573ZM66.7209 43.764C67.9591 43.764 69.0524 43.5203 70.0008 43.0329C70.9492 42.5324 71.6935 41.8606 72.2335 41.0176C72.7736 40.1745 73.0436 39.2195 73.0436 38.1526V34.9319C72.7802 35.1032 72.418 35.2613 71.9569 35.4061C71.5091 35.5379 71.0019 35.663 70.4355 35.7816C69.8691 35.8869 69.3027 35.9857 68.7363 36.0779C68.1699 36.157 67.6562 36.2294 67.1951 36.2953C66.2072 36.4402 65.3444 36.6707 64.6068 36.9868C63.8691 37.303 63.2961 37.7311 62.8878 38.2711C62.4794 38.798 62.2753 39.4566 62.2753 40.247C62.2753 41.393 62.6902 42.2689 63.52 42.8749C64.3631 43.4676 65.43 43.764 66.7209 43.764ZM102.2 49.5928C99.0918 49.5928 96.4178 48.9341 94.1785 47.6169C91.9524 46.2865 90.24 44.4424 89.0413 42.0845C87.8558 39.7267 87.263 37.0132 87.263 33.944C87.263 30.8353 87.8624 28.1087 89.0611 25.764C90.2729 23.4061 91.9919 21.5686 94.218 20.2514C96.4442 18.921 99.0918 18.2558 102.161 18.2558C104.809 18.2558 107.127 18.7366 109.116 19.6981C111.105 20.6597 112.679 22.0099 113.838 23.7486C114.997 25.4874 115.636 27.5291 115.755 29.8738H107.812C107.588 28.3589 106.995 27.1405 106.034 26.2184C105.085 25.2832 103.84 24.8156 102.299 24.8156C100.995 24.8156 99.8558 25.1712 98.881 25.8825C97.9195 26.5807 97.1686 27.6015 96.6286 28.9451C96.0885 30.2887 95.8185 31.9155 95.8185 33.8255C95.8185 35.7618 96.0819 37.4083 96.6088 38.7651C97.1489 40.1218 97.9063 41.1559 98.881 41.8672C99.8558 42.5785 100.995 42.9341 102.299 42.9341C103.261 42.9341 104.124 42.7366 104.888 42.3414C105.665 41.9462 106.304 41.3732 106.804 40.6224C107.318 39.8584 107.654 38.9429 107.812 37.876H115.755C115.623 40.1943 114.991 42.236 113.858 44.0011C112.738 45.753 111.191 47.1229 109.215 48.1109C107.239 49.0988 104.901 49.5928 102.2 49.5928ZM135.531 49.5928C132.409 49.5928 129.722 48.9605 127.47 47.6959C125.231 46.4182 123.505 44.6136 122.293 42.2821C121.081 39.9374 120.475 37.1647 120.475 33.9638C120.475 30.8419 121.081 28.1021 122.293 25.7442C123.505 23.3864 125.211 21.5488 127.411 20.2316C129.624 18.9144 132.218 18.2558 135.195 18.2558C137.198 18.2558 139.061 18.5785 140.787 19.2239C142.526 19.8562 144.041 20.8112 145.332 22.0889C146.636 23.3666 147.65 24.9737 148.374 26.91C149.099 28.8332 149.461 31.0856 149.461 33.6674V35.9791H123.834V30.7629H141.538C141.538 29.551 141.274 28.4775 140.748 27.5423C140.221 26.607 139.49 25.876 138.554 25.3491C137.632 24.809 136.559 24.539 135.334 24.539C134.056 24.539 132.923 24.8353 131.935 25.4281C130.96 26.0077 130.197 26.7914 129.643 27.7794C129.09 28.7541 128.807 29.8408 128.794 31.0395V35.9989C128.794 37.5005 129.07 38.798 129.624 39.8913C130.19 40.9846 130.987 41.8277 132.014 42.4204C133.042 43.0132 134.26 43.3095 135.67 43.3095C136.605 43.3095 137.461 43.1778 138.238 42.9144C139.015 42.6509 139.681 42.2558 140.234 41.7289C140.787 41.202 141.209 40.5565 141.498 39.7925L149.283 40.3063C148.888 42.1767 148.078 43.8101 146.853 45.2064C145.641 46.5895 144.074 47.6696 142.15 48.4468C140.24 49.2108 138.034 49.5928 135.531 49.5928ZM185.265 18.6509V24.9737H166.534V18.6509H185.265ZM170.821 49V16.4577C170.821 14.258 171.249 12.4336 172.106 10.9846C172.975 9.53567 174.161 8.44896 175.662 7.72448C177.164 7 178.87 6.63776 180.78 6.63776C182.071 6.63776 183.249 6.73655 184.316 6.93414C185.397 7.13172 186.2 7.30955 186.727 7.46762L185.225 13.7903C184.896 13.685 184.488 13.5862 184 13.494C183.526 13.4018 183.039 13.3557 182.538 13.3557C181.3 13.3557 180.437 13.6454 179.95 14.225C179.462 14.7914 179.219 15.5884 179.219 16.6158V49H170.821ZM203.589 49.5928C200.52 49.5928 197.866 48.9407 195.626 47.6367C193.4 46.3194 191.681 44.4885 190.469 42.1438C189.258 39.7859 188.652 37.0527 188.652 33.944C188.652 30.809 189.258 28.0692 190.469 25.7245C191.681 23.3666 193.4 21.5357 195.626 20.2316C197.866 18.9144 200.52 18.2558 203.589 18.2558C206.658 18.2558 209.306 18.9144 211.532 20.2316C213.771 21.5357 215.497 23.3666 216.709 25.7245C217.921 28.0692 218.527 30.809 218.527 33.944C218.527 37.0527 217.921 39.7859 216.709 42.1438C215.497 44.4885 213.771 46.3194 211.532 47.6367C209.306 48.9407 206.658 49.5928 203.589 49.5928ZM203.629 43.0724C205.025 43.0724 206.191 42.6773 207.126 41.8869C208.061 41.0834 208.766 39.9901 209.24 38.607C209.727 37.2239 209.971 35.6498 209.971 33.8847C209.971 32.1196 209.727 30.5456 209.24 29.1625C208.766 27.7794 208.061 26.6861 207.126 25.8825C206.191 25.079 205.025 24.6773 203.629 24.6773C202.219 24.6773 201.034 25.079 200.072 25.8825C199.124 26.6861 198.406 27.7794 197.918 29.1625C197.444 30.5456 197.207 32.1196 197.207 33.8847C197.207 35.6498 197.444 37.2239 197.918 38.607C198.406 39.9901 199.124 41.0834 200.072 41.8869C201.034 42.6773 202.219 43.0724 203.629 43.0724ZM224.556 49V18.6509H232.716V23.9462H233.032C233.586 22.0626 234.514 20.64 235.818 19.6784C237.122 18.7036 238.624 18.2162 240.323 18.2162C240.745 18.2162 241.199 18.2426 241.687 18.2953C242.174 18.348 242.602 18.4204 242.971 18.5126V25.9813C242.576 25.8628 242.029 25.7574 241.331 25.6652C240.633 25.573 239.994 25.5269 239.414 25.5269C238.176 25.5269 237.07 25.7969 236.095 26.337C235.133 26.8639 234.369 27.6015 233.803 28.5499C233.25 29.4984 232.973 30.5917 232.973 31.8299V49H224.556ZM256.947 60.3809L263.941 18.6509H272.24L271.39 23.7486H271.765C272.266 22.9319 272.931 22.1021 273.761 21.2591C274.604 20.4029 275.651 19.6915 276.903 19.1251C278.154 18.5456 279.623 18.2558 281.309 18.2558C283.535 18.2558 285.478 18.8353 287.138 19.9945C288.797 21.1405 289.996 22.8727 290.734 25.191C291.484 27.4962 291.57 30.3875 290.99 33.865C290.437 37.2503 289.416 40.1087 287.928 42.4402C286.453 44.7585 284.681 46.517 282.613 47.7157C280.558 48.9012 278.378 49.494 276.073 49.494C274.439 49.494 273.096 49.2239 272.042 48.6839C271.001 48.1438 270.191 47.4654 269.612 46.6487C269.032 45.8189 268.624 44.9824 268.387 44.1394H268.071L265.383 60.3809H256.947ZM269.651 33.8255C269.361 35.6301 269.348 37.2042 269.612 38.5477C269.888 39.8913 270.442 40.9385 271.271 41.6894C272.101 42.427 273.195 42.7958 274.551 42.7958C275.921 42.7958 277.14 42.4204 278.207 41.6696C279.274 40.9056 280.163 39.8518 280.874 38.5082C281.585 37.1515 282.093 35.5906 282.395 33.8255C282.672 32.0735 282.679 30.5324 282.415 29.202C282.152 27.8716 281.612 26.831 280.795 26.0801C279.978 25.3293 278.872 24.9539 277.476 24.9539C276.119 24.9539 274.9 25.3161 273.82 26.0406C272.753 26.7651 271.864 27.7925 271.153 29.1229C270.442 30.4533 269.941 32.0209 269.651 33.8255ZM309.739 8.53458L303.022 49H294.604L301.322 8.53458H309.739ZM318.896 49.573C316.973 49.573 315.306 49.2371 313.897 48.5653C312.501 47.8804 311.473 46.8661 310.815 45.5225C310.156 44.1789 309.991 42.5126 310.321 40.5236C310.61 38.8375 311.157 37.4281 311.961 36.2953C312.777 35.1493 313.772 34.2272 314.944 33.5291C316.116 32.831 317.414 32.2975 318.836 31.9287C320.272 31.5598 321.754 31.3096 323.282 31.1778C325.047 30.9934 326.483 30.8156 327.59 30.6443C328.709 30.4731 329.546 30.2294 330.099 29.9133C330.652 29.584 330.988 29.0966 331.107 28.4512V28.3326C331.304 27.0944 331.074 26.1328 330.415 25.4479C329.77 24.7497 328.736 24.4007 327.313 24.4007C325.811 24.4007 324.534 24.73 323.48 25.3886C322.439 26.0472 321.695 26.8836 321.247 27.8979L313.581 27.2656C314.266 25.4215 315.3 23.8277 316.683 22.4841C318.079 21.1273 319.759 20.0867 321.721 19.3622C323.684 18.6246 325.884 18.2558 328.321 18.2558C330.007 18.2558 331.581 18.4533 333.043 18.8485C334.518 19.2437 335.789 19.8562 336.856 20.6861C337.936 21.5159 338.714 22.5829 339.188 23.8869C339.675 25.1778 339.774 26.7256 339.484 28.5302L336.066 49H328.083L328.795 44.7914H328.558C327.912 45.7398 327.122 46.5763 326.187 47.3008C325.251 48.0121 324.178 48.5719 322.966 48.9802C321.754 49.3754 320.397 49.573 318.896 49.573ZM322.274 43.764C323.5 43.764 324.626 43.5203 325.653 43.0329C326.694 42.5324 327.55 41.8606 328.222 41.0176C328.907 40.1745 329.341 39.2195 329.526 38.1526L330.04 34.9319C329.776 35.1032 329.394 35.2547 328.894 35.3864C328.406 35.5181 327.873 35.6432 327.293 35.7618C326.727 35.8672 326.154 35.966 325.574 36.0582C324.995 36.1372 324.474 36.2162 324.013 36.2953C322.999 36.4402 322.09 36.6707 321.287 36.9868C320.483 37.303 319.831 37.7311 319.33 38.2711C318.83 38.798 318.52 39.4566 318.402 40.247C318.217 41.393 318.487 42.2689 319.212 42.8749C319.95 43.4676 320.97 43.764 322.274 43.764ZM345.405 60.3809C344.325 60.3809 343.337 60.2953 342.441 60.124C341.545 59.966 340.808 59.7618 340.228 59.5115L343.192 53.2283C344.127 53.5313 344.977 53.6894 345.741 53.7025C346.518 53.7157 347.229 53.5181 347.875 53.1098C348.52 52.7014 349.113 52.0296 349.653 51.0944L350.404 49.8101L344.713 18.6509H353.249L355.818 40.978H356.134L366.191 18.6509H375.418L358.05 52.2799C357.194 53.9265 356.18 55.3557 355.008 56.5675C353.848 57.7794 352.472 58.7146 350.878 59.3732C349.297 60.045 347.473 60.3809 345.405 60.3809ZM396.622 18.6509L395.575 24.9737H376.844L377.891 18.6509H396.622ZM377.101 49L382.534 16.4577C382.89 14.258 383.614 12.4336 384.708 10.9846C385.814 9.53567 387.178 8.44896 388.798 7.72448C390.431 7 392.196 6.63776 394.093 6.63776C395.384 6.63776 396.55 6.73655 397.59 6.93414C398.644 7.13172 399.408 7.30955 399.882 7.46762L397.373 13.7903C397.057 13.685 396.668 13.5862 396.207 13.494C395.746 13.4018 395.259 13.3557 394.745 13.3557C393.52 13.3557 392.618 13.6454 392.038 14.225C391.472 14.7914 391.09 15.5884 390.892 16.6158L385.498 49H377.101ZM418.859 36.0779L421.763 18.6509H430.18L425.122 49H417.041L417.95 43.4874H417.634C416.698 45.2656 415.335 46.6948 413.544 47.775C411.752 48.8551 409.717 49.3952 407.438 49.3952C405.41 49.3952 403.697 48.9341 402.301 48.0121C400.918 47.09 399.937 45.7794 399.357 44.0801C398.777 42.3809 398.679 40.3458 399.061 37.9748L402.301 18.6509H410.718L407.754 36.4731C407.478 38.2645 407.728 39.6806 408.505 40.7212C409.282 41.7618 410.468 42.2821 412.062 42.2821C413.076 42.2821 414.057 42.0516 415.006 41.5906C415.967 41.1164 416.797 40.4182 417.495 39.4962C418.193 38.5741 418.648 37.4347 418.859 36.0779ZM447.546 8.53458L440.828 49H432.411L439.129 8.53458H447.546ZM463.262 8.53458L456.544 49H448.127L454.845 8.53458H463.262ZM493.519 49.5928C490.41 49.5928 487.736 48.9341 485.497 47.6169C483.271 46.2865 481.558 44.4424 480.36 42.0845C479.174 39.7267 478.581 37.0132 478.581 33.944C478.581 30.8353 479.181 28.1087 480.379 25.764C481.591 23.4061 483.31 21.5686 485.536 20.2514C487.763 18.921 490.41 18.2558 493.479 18.2558C496.127 18.2558 498.445 18.7366 500.434 19.6981C502.423 20.6597 503.997 22.0099 505.157 23.7486C506.316 25.4874 506.955 27.5291 507.073 29.8738H499.13C498.906 28.3589 498.314 27.1405 497.352 26.2184C496.404 25.2832 495.159 24.8156 493.618 24.8156C492.314 24.8156 491.174 25.1712 490.199 25.8825C489.238 26.5807 488.487 27.6015 487.947 28.9451C487.407 30.2887 487.137 31.9155 487.137 33.8255C487.137 35.7618 487.4 37.4083 487.927 38.7651C488.467 40.1218 489.225 41.1559 490.199 41.8672C491.174 42.5785 492.314 42.9341 493.618 42.9341C494.579 42.9341 495.442 42.7366 496.206 42.3414C496.983 41.9462 497.622 41.3732 498.123 40.6224C498.636 39.8584 498.972 38.9429 499.13 37.876H507.073C506.942 40.1943 506.309 42.236 505.176 44.0011C504.057 45.753 502.509 47.1229 500.533 48.1109C498.557 49.0988 496.219 49.5928 493.519 49.5928ZM526.731 49.5928C523.662 49.5928 521.008 48.9407 518.768 47.6367C516.542 46.3194 514.823 44.4885 513.611 42.1438C512.4 39.7859 511.794 37.0527 511.794 33.944C511.794 30.809 512.4 28.0692 513.611 25.7245C514.823 23.3666 516.542 21.5357 518.768 20.2316C521.008 18.9144 523.662 18.2558 526.731 18.2558C529.8 18.2558 532.448 18.9144 534.674 20.2316C536.913 21.5357 538.639 23.3666 539.851 25.7245C541.063 28.0692 541.669 30.809 541.669 33.944C541.669 37.0527 541.063 39.7859 539.851 42.1438C538.639 44.4885 536.913 46.3194 534.674 47.6367C532.448 48.9407 529.8 49.5928 526.731 49.5928ZM526.771 43.0724C528.167 43.0724 529.333 42.6773 530.268 41.8869C531.203 41.0834 531.908 39.9901 532.382 38.607C532.869 37.2239 533.113 35.6498 533.113 33.8847C533.113 32.1196 532.869 30.5456 532.382 29.1625C531.908 27.7794 531.203 26.6861 530.268 25.8825C529.333 25.079 528.167 24.6773 526.771 24.6773C525.361 24.6773 524.176 25.079 523.214 25.8825C522.266 26.6861 521.548 27.7794 521.06 29.1625C520.586 30.5456 520.349 32.1196 520.349 33.8847C520.349 35.6498 520.586 37.2239 521.06 38.607C521.548 39.9901 522.266 41.0834 523.214 41.8869C524.176 42.6773 525.361 43.0724 526.771 43.0724ZM556.115 31.4544V49H547.698V18.6509H555.72V24.0055H556.076C556.748 22.2404 557.874 20.8441 559.454 19.8167C561.035 18.7761 562.952 18.2558 565.204 18.2558C567.312 18.2558 569.149 18.7168 570.717 19.6389C572.284 20.5609 573.503 21.8782 574.372 23.5906C575.241 25.2898 575.676 27.3183 575.676 29.6762V49H567.259V31.1778C567.272 29.3205 566.798 27.8716 565.836 26.831C564.875 25.7772 563.551 25.2503 561.865 25.2503C560.732 25.2503 559.731 25.494 558.862 25.9813C558.005 26.4687 557.334 27.18 556.846 28.1153C556.372 29.0373 556.128 30.1504 556.115 31.4544ZM610.074 18.6509L599.464 49H589.98L579.369 18.6509H588.261L594.563 40.3655H594.88L601.163 18.6509H610.074ZM627.791 49.5928C624.669 49.5928 621.982 48.9605 619.729 47.6959C617.49 46.4182 615.764 44.6136 614.552 42.2821C613.341 39.9374 612.735 37.1647 612.735 33.9638C612.735 30.8419 613.341 28.1021 614.552 25.7442C615.764 23.3864 617.47 21.5488 619.67 20.2316C621.883 18.9144 624.478 18.2558 627.455 18.2558C629.457 18.2558 631.321 18.5785 633.046 19.2239C634.785 19.8562 636.3 20.8112 637.591 22.0889C638.895 23.3666 639.909 24.9737 640.634 26.91C641.358 28.8332 641.72 31.0856 641.72 33.6674V35.9791H616.094V30.7629H633.797C633.797 29.551 633.534 28.4775 633.007 27.5423C632.48 26.607 631.749 25.876 630.814 25.3491C629.892 24.809 628.818 24.539 627.593 24.539C626.315 24.539 625.182 24.8353 624.195 25.4281C623.22 26.0077 622.456 26.7914 621.903 27.7794C621.349 28.7541 621.066 29.8408 621.053 31.0395V35.9989C621.053 37.5005 621.33 38.798 621.883 39.8913C622.449 40.9846 623.246 41.8277 624.274 42.4204C625.301 43.0132 626.519 43.3095 627.929 43.3095C628.864 43.3095 629.72 43.1778 630.498 42.9144C631.275 42.6509 631.94 42.2558 632.493 41.7289C633.046 41.202 633.468 40.5565 633.758 39.7925L641.543 40.3063C641.147 42.1767 640.337 43.8101 639.112 45.2064C637.9 46.5895 636.333 47.6696 634.41 48.4468C632.5 49.2108 630.293 49.5928 627.791 49.5928ZM647.77 49V18.6509H655.93V23.9462H656.246C656.799 22.0626 657.728 20.64 659.032 19.6784C660.336 18.7036 661.838 18.2162 663.537 18.2162C663.958 18.2162 664.413 18.2426 664.9 18.2953C665.388 18.348 665.816 18.4204 666.185 18.5126V25.9813C665.789 25.8628 665.243 25.7574 664.545 25.6652C663.846 25.573 663.208 25.5269 662.628 25.5269C661.39 25.5269 660.283 25.7969 659.309 26.337C658.347 26.8639 657.583 27.6015 657.017 28.5499C656.463 29.4984 656.187 30.5917 656.187 31.8299V49H647.77ZM696.344 27.3052L688.638 27.7794C688.507 27.1207 688.223 26.528 687.789 26.0011C687.354 25.461 686.781 25.0329 686.07 24.7168C685.372 24.3875 684.535 24.2228 683.56 24.2228C682.256 24.2228 681.156 24.4995 680.261 25.0527C679.365 25.5928 678.917 26.3172 678.917 27.2261C678.917 27.9506 679.207 28.5631 679.786 29.0637C680.366 29.5642 681.361 29.966 682.77 30.2689L688.263 31.3754C691.213 31.9813 693.413 32.9561 694.862 34.2997C696.311 35.6432 697.036 37.4083 697.036 39.595C697.036 41.584 696.449 43.3293 695.277 44.831C694.118 46.3326 692.524 47.5049 690.496 48.348C688.48 49.1778 686.155 49.5928 683.521 49.5928C679.503 49.5928 676.302 48.7563 673.918 47.0834C671.547 45.3974 670.157 43.1054 669.749 40.2075L678.028 39.7728C678.278 40.9978 678.884 41.933 679.846 42.5785C680.807 43.2108 682.039 43.5269 683.541 43.5269C685.016 43.5269 686.201 43.2437 687.097 42.6773C688.006 42.0977 688.467 41.3535 688.48 40.4446C688.467 39.6806 688.144 39.0549 687.512 38.5675C686.88 38.067 685.905 37.685 684.588 37.4215L679.332 36.3743C676.368 35.7816 674.162 34.7541 672.713 33.292C671.277 31.8299 670.559 29.966 670.559 27.7003C670.559 25.7508 671.086 24.0713 672.14 22.6619C673.207 21.2525 674.702 20.1658 676.625 19.4018C678.561 18.6378 680.827 18.2558 683.422 18.2558C687.255 18.2558 690.272 19.0659 692.471 20.6861C694.684 22.3063 695.975 24.5126 696.344 27.3052ZM711.546 49.573C709.61 49.573 707.885 49.2371 706.37 48.5653C704.855 47.8804 703.656 46.8727 702.774 45.5423C701.904 44.1987 701.47 42.5258 701.47 40.5236C701.47 38.8375 701.779 37.4215 702.398 36.2755C703.017 35.1295 703.86 34.2075 704.927 33.5093C705.994 32.8112 707.206 32.2843 708.563 31.9287C709.933 31.573 711.369 31.3227 712.87 31.1778C714.635 30.9934 716.058 30.8222 717.138 30.6641C718.218 30.4929 719.002 30.2426 719.489 29.9133C719.977 29.584 720.22 29.0966 720.22 28.4512V28.3326C720.22 27.0812 719.825 26.1131 719.035 25.4281C718.258 24.7431 717.151 24.4007 715.716 24.4007C714.201 24.4007 712.995 24.7366 712.1 25.4083C711.204 26.067 710.611 26.8968 710.321 27.8979L702.537 27.2656C702.932 25.4215 703.709 23.8277 704.868 22.4841C706.027 21.1273 707.522 20.0867 709.353 19.3622C711.197 18.6246 713.331 18.2558 715.755 18.2558C717.441 18.2558 719.055 18.4533 720.596 18.8485C722.15 19.2437 723.527 19.8562 724.725 20.6861C725.937 21.5159 726.892 22.5829 727.59 23.8869C728.289 25.1778 728.638 26.7256 728.638 28.5302V49H720.655V44.7914H720.418C719.931 45.7398 719.279 46.5763 718.462 47.3008C717.645 48.0121 716.664 48.5719 715.518 48.9802C714.372 49.3754 713.048 49.573 711.546 49.573ZM713.957 43.764C715.195 43.764 716.289 43.5203 717.237 43.0329C718.185 42.5324 718.93 41.8606 719.47 41.0176C720.01 40.1745 720.28 39.2195 720.28 38.1526V34.9319C720.016 35.1032 719.654 35.2613 719.193 35.4061C718.745 35.5379 718.238 35.663 717.672 35.7816C717.105 35.8869 716.539 35.9857 715.972 36.0779C715.406 36.157 714.892 36.2294 714.431 36.2953C713.443 36.4402 712.581 36.6707 711.843 36.9868C711.105 37.303 710.532 37.7311 710.124 38.2711C709.716 38.798 709.511 39.4566 709.511 40.247C709.511 41.393 709.926 42.2689 710.756 42.8749C711.599 43.4676 712.666 43.764 713.957 43.764ZM751.867 18.6509V24.9737H733.59V18.6509H751.867ZM737.74 11.3798H746.157V39.674C746.157 40.4512 746.275 41.0571 746.512 41.4918C746.749 41.9133 747.079 42.2097 747.5 42.3809C747.935 42.5521 748.435 42.6378 749.002 42.6378C749.397 42.6378 749.792 42.6048 750.187 42.539C750.583 42.4599 750.886 42.4007 751.096 42.3611L752.42 48.6246C751.999 48.7563 751.406 48.9078 750.642 49.079C749.878 49.2634 748.949 49.3754 747.856 49.4149C745.827 49.494 744.049 49.2239 742.521 48.6048C741.006 47.9857 739.827 47.0241 738.984 45.7201C738.141 44.416 737.726 42.7695 737.74 40.7805V11.3798ZM757.906 49V18.6509H766.323V49H757.906ZM762.135 14.7387C760.883 14.7387 759.81 14.3238 758.914 13.494C758.031 12.6509 757.59 11.6432 757.59 10.4709C757.59 9.31175 758.031 8.31723 758.914 7.48738C759.81 6.64435 760.883 6.22283 762.135 6.22283C763.386 6.22283 764.453 6.64435 765.335 7.48738C766.231 8.31723 766.679 9.31175 766.679 10.4709C766.679 11.6432 766.231 12.6509 765.335 13.494C764.453 14.3238 763.386 14.7387 762.135 14.7387ZM787.335 49.5928C784.266 49.5928 781.611 48.9407 779.372 47.6367C777.146 46.3194 775.427 44.4885 774.215 42.1438C773.003 39.7859 772.397 37.0527 772.397 33.944C772.397 30.809 773.003 28.0692 774.215 25.7245C775.427 23.3666 777.146 21.5357 779.372 20.2316C781.611 18.9144 784.266 18.2558 787.335 18.2558C790.404 18.2558 793.052 18.9144 795.278 20.2316C797.517 21.5357 799.243 23.3666 800.454 25.7245C801.666 28.0692 802.272 30.809 802.272 33.944C802.272 37.0527 801.666 39.7859 800.454 42.1438C799.243 44.4885 797.517 46.3194 795.278 47.6367C793.052 48.9407 790.404 49.5928 787.335 49.5928ZM787.374 43.0724C788.771 43.0724 789.936 42.6773 790.872 41.8869C791.807 41.0834 792.512 39.9901 792.986 38.607C793.473 37.2239 793.717 35.6498 793.717 33.8847C793.717 32.1196 793.473 30.5456 792.986 29.1625C792.512 27.7794 791.807 26.6861 790.872 25.8825C789.936 25.079 788.771 24.6773 787.374 24.6773C785.965 24.6773 784.779 25.079 783.818 25.8825C782.869 26.6861 782.151 27.7794 781.664 29.1625C781.19 30.5456 780.953 32.1196 780.953 33.8847C780.953 35.6498 781.19 37.2239 781.664 38.607C782.151 39.9901 782.869 41.0834 783.818 41.8869C784.779 42.6773 785.965 43.0724 787.374 43.0724ZM816.719 31.4544V49H808.302V18.6509H816.324V24.0055H816.679C817.351 22.2404 818.477 20.8441 820.058 19.8167C821.639 18.7761 823.555 18.2558 825.808 18.2558C827.915 18.2558 829.753 18.7168 831.32 19.6389C832.888 20.5609 834.106 21.8782 834.976 23.5906C835.845 25.2898 836.28 27.3183 836.28 29.6762V49H827.863V31.1778C827.876 29.3205 827.402 27.8716 826.44 26.831C825.478 25.7772 824.155 25.2503 822.469 25.2503C821.336 25.2503 820.335 25.494 819.465 25.9813C818.609 26.4687 817.937 27.18 817.45 28.1153C816.976 29.0373 816.732 30.1504 816.719 31.4544ZM868.721 27.3052L861.016 27.7794C860.884 27.1207 860.601 26.528 860.166 26.0011C859.731 25.461 859.158 25.0329 858.447 24.7168C857.749 24.3875 856.912 24.2228 855.938 24.2228C854.634 24.2228 853.534 24.4995 852.638 25.0527C851.742 25.5928 851.294 26.3172 851.294 27.2261C851.294 27.9506 851.584 28.5631 852.164 29.0637C852.743 29.5642 853.738 29.966 855.147 30.2689L860.64 31.3754C863.591 31.9813 865.791 32.9561 867.24 34.2997C868.689 35.6432 869.413 37.4083 869.413 39.595C869.413 41.584 868.827 43.3293 867.655 44.831C866.495 46.3326 864.901 47.5049 862.873 48.348C860.858 49.1778 858.533 49.5928 855.898 49.5928C851.881 49.5928 848.68 48.7563 846.296 47.0834C843.925 45.3974 842.535 43.1054 842.127 40.2075L850.405 39.7728C850.656 40.9978 851.262 41.933 852.223 42.5785C853.185 43.2108 854.416 43.5269 855.918 43.5269C857.393 43.5269 858.579 43.2437 859.474 42.6773C860.383 42.0977 860.844 41.3535 860.858 40.4446C860.844 39.6806 860.522 39.0549 859.889 38.5675C859.257 38.067 858.282 37.685 856.965 37.4215L851.709 36.3743C848.746 35.7816 846.539 34.7541 845.09 33.292C843.655 31.8299 842.937 29.966 842.937 27.7003C842.937 25.7508 843.464 24.0713 844.517 22.6619C845.584 21.2525 847.079 20.1658 849.002 19.4018C850.939 18.6378 853.204 18.2558 855.799 18.2558C859.633 18.2558 862.649 19.0659 864.849 20.6861C867.062 22.3063 868.353 24.5126 868.721 27.3052Z" fill="#FFFFE0"/>
</mask>
<g mask="url(#mask0_579_68)">
<rect x="-224" y="-329" width="1126" height="831" fill="url(#paint0_linear_579_68)"/>
</g>
<defs>
<linearGradient id="paint0_linear_579_68" x1="-281.814" y1="-5.14428" x2="952.243" y2="-5.1443" gradientUnits="userSpaceOnUse">
<stop stop-color="#6F8BEC"/>
<stop offset="0.494792" stop-color="#DF5B56"/>
<stop offset="1" stop-color="#FFA500"/>
</linearGradient>
</defs>
</svg>
