<svg width="1002" height="310" viewBox="0 0 1002 310" fill="none" xmlns="http://www.w3.org/2000/svg">
<g clip-path="url(#clip0_729_175)">
<rect width="1002" height="310" rx="20" fill="url(#paint0_radial_729_175)"/>
<rect x="-0.5" y="-0.5" width="1003" height="311" rx="20.5" stroke="#FFFFE0" stroke-opacity="0.18"/>
<rect x="-0.5" y="-0.5" width="1003" height="311" rx="20.5" stroke="#FFFFE0" stroke-opacity="0.18"/>
<ellipse cx="840.145" cy="79.823" rx="56.2912" ry="21.1092" transform="rotate(-36.1271 840.145 79.823)" fill="#15130E"/>
<ellipse cx="919.235" cy="188.182" rx="56.2912" ry="21.1092" transform="rotate(-36.1271 919.235 188.182)" fill="#15130E"/>
<g clip-path="url(#clip1_729_175)">
<path d="M885.077 54.5609L879.701 52.6774L798.695 110.065L800.342 114.67L814.966 123.742L818.499 140.328L833.772 149.506L837.305 166.093L852.483 175.922L856.485 191.585L870.832 200.278L873.116 207.322L876.674 219.244L944.545 169.703L960.605 153.334L951.994 148.585L944.971 142.096L944.757 130.056L938.287 124.325L925.611 115.574L923.076 103.486L918.651 97.4236L908.741 92.4611L905.267 82.2201L903.921 73.3291L895.863 69.3377L887.445 63.2864L885.077 54.5609Z" fill="#15130E"/>
<path d="M866.379 31.0435L866.429 31.5214L866.485 31.9941L866.55 32.4609L866.624 32.9208L866.708 33.3732L866.804 33.8173L866.912 34.2525L867.033 34.678L867.168 35.0935L867.317 35.4983L867.482 35.8921L867.662 36.2745L867.859 36.6451L868.071 37.0039L868.301 37.3506L868.546 37.6851L868.809 38.0075L869.088 38.3179L869.383 38.6164L869.694 38.9032L870.021 39.1786L870.363 39.4431L870.719 39.697L871.089 39.9408L871.473 40.1751L871.868 40.4005L872.274 40.6178L872.691 40.8276L873.117 41.0306L873.551 41.2279L873.992 41.42L874.438 41.6081L874.889 41.7929L875.344 41.9754L875.8 42.1565L876.256 42.3372L876.712 42.5184L877.166 42.7011L877.616 42.8863L878.062 43.0748L878.502 43.2676L878.935 43.4655L879.36 43.6694L879.776 43.8801L880.181 44.0983L880.574 44.3248L880.956 44.5603L881.324 44.8054L881.679 45.0606L882.019 45.3264L882.344 45.6033L882.653 45.8915L882.946 46.1915L883.223 46.5034L883.483 46.8274L883.727 47.1634L883.954 47.5117L884.165 47.8719L884.359 48.2441L884.537 48.6279L884.7 49.0231L884.848 49.4293L884.981 49.8461L885.1 50.2729L885.207 50.7092L885.301 51.1544L885.384 51.6078L885.457 52.0687L885.52 52.5362L885.576 53.0097L885.625 53.4881L885.668 53.9707L885.706 54.4566L885.741 54.9447L885.775 55.4342L885.808 55.9242L885.842 56.4136L885.877 56.9015L885.916 57.387L885.96 57.8691L886.009 58.347L886.066 58.8197L886.131 59.2865L886.205 59.7464L886.289 60.1988L886.385 60.6429L886.493 61.0781L886.614 61.5036L886.749 61.9191L886.898 62.3239L887.063 62.7177L887.243 63.1001L887.44 63.4707L887.652 63.8295L887.882 64.1761L888.127 64.5107L888.39 64.8331L888.669 65.1435L888.964 65.442L889.275 65.7288L889.602 66.0042L889.944 66.2687L890.3 66.5225L890.67 66.7664L891.054 67.0007L891.449 67.2261L891.855 67.4434L892.272 67.6531L892.698 67.8562L893.132 68.0534L893.573 68.2456L894.019 68.4336L894.47 68.6184L894.924 68.8009L895.38 68.9821L895.837 69.1628L896.293 69.344L896.747 69.5267L897.197 69.7119L897.643 69.9004L898.083 70.0932L898.516 70.2911L898.941 70.495L899.357 70.7056L899.762 70.9239L900.155 71.1504L900.537 71.3859L900.905 71.631L901.26 71.8862L901.6 72.152L901.925 72.4288L902.234 72.7171L902.527 73.0171L902.804 73.329L903.064 73.6529L903.308 73.989L903.535 74.3372L903.746 74.6975L903.94 75.0697L904.118 75.4535L904.281 75.8487L904.429 76.2549L904.562 76.6717L904.681 77.0985L904.788 77.5348L904.882 77.98L904.965 78.4334L905.038 78.8943L905.101 79.3618L905.157 79.8352L905.206 80.3137L905.249 80.7963L905.287 81.2821L905.322 81.7703L905.356 82.2598L905.389 82.7498L905.423 83.2392L905.458 83.7271L905.497 84.2125L905.541 84.6947L905.59 85.1726L905.647 85.6453L905.712 86.112L905.786 86.572L905.87 87.0244L905.966 87.4685L906.074 87.9036L906.195 88.3292L906.33 88.7447L906.479 89.1495L906.644 89.5433L906.824 89.9256L907.021 90.2963L907.233 90.655L907.463 91.0017L907.708 91.3363L907.971 91.6587L908.25 91.9691L908.545 92.2675L908.856 92.5544L909.183 92.8298L909.525 93.0942L909.881 93.3481L910.251 93.5919L910.634 93.8263L911.03 94.0517L911.436 94.2689L911.853 94.4787L912.279 94.6818L912.713 94.879L913.154 95.0712L913.6 95.2592L914.051 95.444L914.505 95.6265L914.961 95.8076L915.418 95.9883L915.874 96.1696L916.328 96.3523L916.778 96.5375L917.224 96.726L917.664 96.9187L918.097 97.1166L918.522 97.3205L918.937 97.5312L919.343 97.7495L919.736 97.976L920.118 98.2115L920.486 98.4566L920.841 98.7117L921.181 98.9776L921.506 99.2544L921.815 99.5427L922.108 99.8427L922.385 100.155L922.645 100.479L922.889 100.815L923.116 101.163L923.327 101.523L923.521 101.895L923.699 102.279L923.862 102.674L924.01 103.08L924.143 103.497L924.262 103.924L924.369 104.36L924.463 104.806L924.546 105.259L924.619 105.72L924.682 106.187L924.738 106.661L924.786 107.139L924.829 107.622L924.868 108.108L924.903 108.596L924.937 109.085L924.97 109.575L925.004 110.065L925.039 110.553L925.078 111.038L925.122 111.52L925.171 111.998L925.228 112.471L925.293 112.938L925.367 113.398L925.451 113.85L925.547 114.294L925.655 114.729L925.776 115.155L925.911 115.57L926.06 115.975L926.225 116.369L926.405 116.751L926.602 117.122L926.814 117.481L927.044 117.827L927.289 118.162L927.552 118.484L927.831 118.795L928.126 119.093L928.437 119.38L928.764 119.655L929.106 119.92L929.462 120.174L929.832 120.418L930.215 120.652L930.611 120.877L931.017 121.095L931.434 121.304L931.86 121.507L932.294 121.705L932.735 121.897L933.181 122.085L933.632 122.27L934.086 122.452L934.542 122.633L934.999 122.814L935.455 122.995L935.909 123.178L936.359 123.363L936.805 123.552L937.245 123.744L937.678 123.942L938.103 124.146L938.518 124.357L938.924 124.575L939.317 124.802L939.699 125.037L940.067 125.282L940.422 125.537L940.762 125.803L941.087 126.08L941.396 126.368L941.689 126.668L941.966 126.98L942.226 127.304L942.47 127.64L942.697 127.988L942.908 128.349L943.102 128.721L943.28 129.105L943.443 129.5L943.591 129.906L943.724 130.323L943.843 130.75L943.95 131.186L944.044 131.631L944.127 132.085L944.2 132.545L944.263 133.013L944.319 133.486L944.367 133.965L944.41 134.447L944.449 134.933L944.484 135.421L944.518 135.911L944.551 136.401L944.584 136.89L944.62 137.378L944.659 137.864L944.703 138.346L944.752 138.824L944.809 139.296L944.874 139.763L944.948 140.223L945.032 140.676L945.128 141.12L945.236 141.555L945.357 141.98L945.492 142.396L945.641 142.801L945.806 143.194L945.986 143.577L946.183 143.947L946.395 144.306L946.624 144.653L946.87 144.987L947.133 145.31L947.412 145.62L947.707 145.919L948.018 146.206L948.345 146.481L948.687 146.745L949.043 146.999L949.413 147.243L949.796 147.477L950.192 147.703L950.598 147.92L951.015 148.13L951.441 148.333L951.875 148.53L952.316 148.722L952.762 148.91L953.213 149.095L953.667 149.278L954.123 149.459L954.58 149.64L955.036 149.821L955.49 150.003L955.94 150.189L956.386 150.377L956.826 150.57L957.259 150.768L957.684 150.972L958.099 151.182L958.505 151.401L958.898 151.627L959.28 151.863L959.648 152.108L960.003 152.363L960.343 152.629L960.668 152.906L960.977 153.194L961.27 153.494L961.547 153.806L961.807 154.13L962.051 154.466L962.278 154.814L962.489 155.174L962.683 155.546L962.861 155.93L963.024 156.325L963.172 156.732L963.305 157.148L963.424 157.575L963.531 158.012L963.625 158.457L963.708 158.91L963.781 159.371L963.844 159.839L963.9 160.312L963.948 160.79L963.991 161.273L964.03 161.759L964.065 162.247L964.099 162.737L964.132 163.227L964.165 163.716L964.201 164.204L964.24 164.689" stroke="#15130E" stroke-width="4.69094" stroke-miterlimit="10" stroke-linecap="round" stroke-linejoin="round"/>
<path d="M880.046 223.173L879.617 222.989L879.194 222.799L878.78 222.603L878.375 222.401L877.98 222.192L877.597 221.974L877.225 221.747L876.866 221.511L876.521 221.266L876.191 221.009L875.875 220.742L875.574 220.463L875.29 220.173L875.021 219.872L874.769 219.558L874.533 219.233L874.313 218.895L874.109 218.546L873.922 218.185L873.75 217.812L873.594 217.429L873.452 217.034L873.325 216.629L873.211 216.214L873.11 215.79L873.021 215.358L872.944 214.917L872.876 214.468L872.817 214.013L872.766 213.553L872.722 213.087L872.683 212.618L872.649 212.145L872.618 211.67L872.589 211.193L872.56 210.716L872.531 210.24L872.499 209.765L872.464 209.293L872.425 208.823L872.38 208.358L872.328 207.899L872.269 207.444L872.199 206.997L872.12 206.557L872.03 206.125L871.927 205.702L871.812 205.289L871.683 204.885L871.539 204.492L871.381 204.11L871.207 203.739L871.018 203.379L870.812 203.031L870.591 202.696L870.353 202.372L870.098 202.059L869.828 201.759L869.541 201.471L869.238 201.194L868.921 200.928L868.588 200.673L868.241 200.428L867.881 200.193L867.508 199.968L867.123 199.751L866.726 199.543L866.32 199.341L865.905 199.147L865.482 198.958L865.052 198.774L864.616 198.594L864.176 198.417L863.733 198.243L863.288 198.07L862.843 197.897L862.398 197.724L861.955 197.549L861.516 197.372L861.081 197.192L860.652 197.007L860.23 196.818L859.816 196.622L859.411 196.42L859.016 196.211L858.632 195.993L858.26 195.766L857.902 195.53L857.557 195.284L857.226 195.028L856.91 194.761L856.61 194.482L856.325 194.192L856.056 193.89L855.804 193.577L855.568 193.251L855.348 192.914L855.145 192.565L854.957 192.204L854.786 191.831L854.629 191.447L854.488 191.053L854.361 190.648L854.247 190.233L854.146 189.809L854.057 189.376L853.979 188.935L853.911 188.487L853.852 188.032L853.801 187.572L853.757 187.106L853.719 186.636L853.684 186.164L853.653 185.688L853.624 185.212L853.595 184.735L853.566 184.259L853.535 183.784L853.5 183.311L853.461 182.842L853.416 182.377L853.364 181.917L853.304 181.463L853.235 181.016L853.156 180.576L853.065 180.144L852.963 179.721L852.847 179.308L852.718 178.904L852.575 178.511L852.416 178.129L852.243 177.758L852.053 177.398L851.848 177.05L851.626 176.714L851.388 176.39L851.134 176.078L850.863 175.778L850.576 175.49L850.274 175.212L849.956 174.947L849.623 174.692L849.277 174.447L848.916 174.212L848.543 173.987L848.158 173.77L847.762 173.561L847.356 173.36L846.94 173.166L846.517 172.977L846.087 172.793L845.652 172.613L845.212 172.436L844.769 172.262L844.324 172.089L843.878 171.916L843.434 171.743L842.991 171.568L842.551 171.391L842.117 171.211L841.687 171.026L841.265 170.837L840.851 170.641L840.446 170.439L840.051 170.229L839.667 170.012L839.296 169.785L838.937 169.549L838.592 169.303L838.261 169.047L837.945 168.779L837.645 168.501L837.36 168.211L837.092 167.909L836.839 167.596L836.603 167.27L836.384 166.933L836.18 166.583L835.993 166.222L835.821 165.85L835.665 165.466L835.523 165.072L835.396 164.667L835.282 164.252L835.181 163.828L835.092 163.395L835.014 162.954L834.946 162.506L834.888 162.051L834.837 161.59L834.793 161.125L834.754 160.655L834.72 160.182L834.689 159.707L834.659 159.231L834.631 158.754L834.601 158.278L834.57 157.803L834.535 157.33L834.496 156.861L834.451 156.396L834.399 155.936L834.339 155.482L834.27 155.035L834.191 154.595L834.1 154.163L833.998 153.74L833.883 153.326L833.753 152.923L833.61 152.53L833.452 152.147L833.278 151.776L833.089 151.417L832.883 151.069L832.662 150.733L832.423 150.409L832.169 150.097L831.898 149.797L831.612 149.508L831.309 149.231L830.991 148.965L830.659 148.71L830.312 148.466L829.952 148.231L829.578 148.006L829.193 147.789L828.797 147.58L828.391 147.379L827.976 147.184L827.552 146.995L827.122 146.811L826.687 146.632L826.247 146.455L825.804 146.28L825.359 146.107L824.914 145.935L824.469 145.762L824.026 145.587L823.587 145.41L823.152 145.23L822.723 145.045L822.3 144.855L821.886 144.66L821.481 144.458L821.086 144.248L820.703 144.03L820.331 143.804L819.972 143.568L819.627 143.322L819.297 143.066L818.981 142.798L818.68 142.52L818.396 142.23L818.127 141.928L817.875 141.614L817.639 141.289L817.419 140.952L817.216 140.602L817.028 140.241L816.857 139.869L816.7 139.485L816.559 139.091L816.431 138.686L816.318 138.271L816.217 137.847L816.128 137.414L816.05 136.973L815.982 136.525L815.923 136.07L815.872 135.609L815.828 135.144L815.789 134.674L815.755 134.201L815.724 133.726L815.695 133.25L815.666 132.773L815.637 132.296L815.605 131.822L815.571 131.349L815.531 130.88L815.486 130.415L815.435 129.955L815.375 129.501L815.306 129.054L815.226 128.614L815.136 128.182L815.033 127.759L814.918 127.345L814.789 126.942L814.645 126.549L814.487 126.166L814.314 125.795L814.124 125.436L813.919 125.088L813.697 124.752L813.459 124.428L813.204 124.116L812.934 123.816L812.647 123.527L812.345 123.25L812.027 122.984L811.694 122.729L811.347 122.485L810.987 122.25L810.614 122.024L810.229 121.808L809.833 121.599L809.426 121.398L809.011 121.203L808.588 121.014L808.158 120.83L807.722 120.65L807.282 120.474L806.839 120.299L806.394 120.126L805.949 119.954L805.504 119.78L805.062 119.606L804.622 119.429L804.187 119.248L803.758 119.064L803.336 118.874L802.922 118.679L802.517 118.477L802.122 118.267L801.738 118.049L801.367 117.823L801.008 117.587L800.663 117.341L800.332 117.084L800.016 116.817L799.716 116.539L799.431 116.249L799.162 115.947L798.91 115.633L798.674 115.308L798.454 114.97L798.251 114.621L798.064 114.26L797.892 113.888L797.736 113.504L797.594 113.109L797.467 112.704L797.353 112.29L797.252 111.866L797.163 111.433L797.085 110.992L797.017 110.544L796.958 110.089L796.907 109.628L796.863 109.163L796.825 108.693L796.791 108.22L796.759 107.745L796.73 107.268L796.702 106.792L796.672 106.315L796.641 105.84L796.606 105.368L796.567 104.899L796.522 104.434L796.47 103.974L796.41 103.52L796.341 103.072L796.262 102.632L796.171 102.201L796.069 101.778L795.953 101.364L795.824 100.961L795.681 100.567L795.523 100.185L795.349 99.8141L795.16 99.4545L794.954 99.1067L794.732 98.7708L794.494 98.4468L794.24 98.1347L793.969 97.8345L793.682 97.5459L793.38 97.2689L793.062 97.003L792.73 96.748L792.383 96.5033L792.022 96.2686L791.649 96.0432L791.264 95.8265L790.868 95.6179L790.462 95.4166L790.046 95.2219L789.623 95.033L789.193 94.8491L788.758 94.6692L788.318 94.4925L787.875 94.3181L787.43 94.145L786.984 93.9724L786.54 93.7992L786.097 93.6245L785.658 93.4475" stroke="#15130E" stroke-width="4.69094" stroke-miterlimit="10" stroke-linecap="round" stroke-linejoin="round"/>
</g>
<ellipse cx="840.417" cy="80.1985" rx="48.7857" ry="15.9492" transform="rotate(-36.1271 840.417 80.1985)" fill="#EC7933"/>
<path fill-rule="evenodd" clip-rule="evenodd" d="M833.781 140.693L864.344 182.809C856.834 193.084 854.022 202.275 857.819 207.477C864.692 216.893 890.621 209.668 915.732 191.339C917.364 190.147 917.694 187.859 916.506 186.223L896.098 158.1C896.075 158.068 896.051 158.037 896.028 158.006L871.156 123.733C870.719 123.131 869.996 122.864 869.311 122.983C856.743 131.921 844.072 138.055 833.781 140.693Z" fill="#EA7538"/>
<path d="M832.973 162.295C847.009 173.886 878.187 155.813 892.022 145.327L888.427 140.402C854.42 163.83 837.288 164.759 832.973 162.295Z" fill="#15130E"/>
<path d="M852.328 188.816C866.364 200.408 897.543 182.334 911.377 171.849L907.782 166.923C873.776 190.352 856.643 191.281 852.328 188.816Z" fill="#15130E"/>
<rect x="852.713" y="192.3" width="14.7412" height="32.2343" transform="rotate(-38.5504 852.713 192.3)" fill="#15130E"/>
<ellipse rx="47.384" ry="17.769" transform="matrix(0.807712 -0.589578 -0.589578 -0.807712 799.013 229.088)" fill="#15130E"/>
<ellipse rx="47.384" ry="17.769" transform="matrix(0.807712 -0.589578 -0.589578 -0.807712 732.423 137.835)" fill="#15130E"/>
<g clip-path="url(#clip2_729_175)">
<path d="M830.757 199.569L830.852 204.388L762.979 255.398L759.694 252.907L756.244 238.804L743.777 231.771L740.413 217.116L727.946 210.083L724.031 195.342L712.435 188.162L709.217 174.378L704.131 170.758L695.44 164.88L753.487 122.51L770.977 113.654L772.53 121.809L775.91 129.119L785.583 132.324L788.498 138.996L792.207 151.444L801.302 156.538L805.027 161.641L806.408 170.9L813.762 176.287L820.59 179.613L821.677 187.13L824.334 195.458L830.757 199.569Z" fill="#15130E"/>
<path d="M844.864 220.561L844.493 220.399L844.129 220.232L843.771 220.061L843.421 219.883L843.08 219.7L842.749 219.509L842.428 219.311L842.118 219.105L841.819 218.89L841.533 218.666L841.259 218.433L840.999 218.19L840.752 217.938L840.519 217.675L840.3 217.403L840.095 217.12L839.904 216.826L839.727 216.523L839.563 216.21L839.413 215.887L839.276 215.554L839.152 215.212L839.04 214.861L838.939 214.502L838.85 214.135L838.77 213.76L838.7 213.379L838.639 212.991L838.586 212.597L838.539 212.198L838.498 211.796L838.462 211.389L838.429 210.981L838.399 210.57L838.371 210.158L838.343 209.745L838.315 209.333L838.285 208.922L838.252 208.514L838.215 208.108L838.174 207.706L838.126 207.308L838.072 206.915L838.009 206.528L837.938 206.147L837.858 205.773L837.767 205.407L837.665 205.049L837.551 204.699L837.426 204.358L837.287 204.027L837.135 203.705L836.97 203.393L836.791 203.091L836.598 202.799L836.391 202.517L836.17 202.246L835.935 201.985L835.687 201.733L835.425 201.492L835.15 201.26L834.862 201.038L834.562 200.824L834.25 200.619L833.928 200.421L833.595 200.232L833.253 200.049L832.902 199.872L832.544 199.701L832.178 199.535L831.807 199.373L831.431 199.215L831.052 199.06L830.669 198.906L830.286 198.753L829.901 198.601L829.518 198.449L829.136 198.295L828.756 198.139L828.381 197.98L828.011 197.818L827.646 197.652L827.289 197.48L826.939 197.303L826.598 197.119L826.266 196.928L825.945 196.73L825.635 196.524L825.337 196.309L825.05 196.085L824.777 195.852L824.517 195.609L824.27 195.357L824.037 195.094L823.818 194.822L823.612 194.539L823.421 194.246L823.244 193.942L823.081 193.629L822.93 193.306L822.793 192.973L822.669 192.631L822.557 192.281L822.457 191.921L822.367 191.554L822.288 191.179L822.218 190.798L822.157 190.41L822.103 190.016L822.056 189.618L822.015 189.215L821.979 188.809L821.947 188.4L821.917 187.989L821.889 187.577L821.861 187.164L821.833 186.752L821.803 186.342L821.77 185.933L821.733 185.527L821.691 185.125L821.644 184.727L821.589 184.334L821.527 183.947L821.456 183.566L821.375 183.192L821.284 182.826L821.182 182.468L821.069 182.118L820.943 181.777L820.804 181.446L820.653 181.124L820.487 180.812L820.308 180.51L820.115 180.218L819.908 179.936L819.688 179.665L819.453 179.404L819.204 179.153L818.942 178.911L818.667 178.679L818.379 178.457L818.079 178.243L817.768 178.038L817.445 177.841L817.113 177.651L816.77 177.468L816.42 177.291L816.061 177.12L815.696 176.954L815.325 176.793L814.949 176.634L814.569 176.479L814.187 176.325L813.803 176.173L813.419 176.021L813.035 175.868L812.653 175.714L812.274 175.558L811.898 175.4L811.528 175.237L811.164 175.071L810.806 174.899L810.456 174.722L810.115 174.538L809.784 174.347L809.463 174.149L809.152 173.943L808.854 173.728L808.568 173.504L808.294 173.271L808.034 173.029L807.787 172.776L807.554 172.514L807.335 172.241L807.13 171.958L806.939 171.665L806.762 171.362L806.598 171.048L806.448 170.725L806.311 170.393L806.187 170.051L806.074 169.7L805.974 169.341L805.884 168.973L805.805 168.599L805.735 168.217L805.674 167.829L805.62 167.435L805.574 167.037L805.533 166.634L805.497 166.228L805.464 165.819L805.434 165.408L805.406 164.996L805.378 164.583L805.35 164.172L805.32 163.761L805.287 163.352L805.25 162.946L805.209 162.544L805.161 162.146L805.107 161.753L805.044 161.366L804.973 160.985L804.893 160.611L804.802 160.245L804.7 159.887L804.586 159.537L804.46 159.196L804.322 158.865L804.17 158.543L804.005 158.231L803.826 157.929L803.633 157.637L803.426 157.356L803.205 157.084L802.97 156.823L802.722 156.572L802.46 156.33L802.185 156.098L801.897 155.876L801.597 155.662L801.285 155.457L800.963 155.26L800.63 155.07L800.288 154.887L799.937 154.71L799.579 154.54L799.213 154.374L798.842 154.212L798.466 154.053L798.087 153.898L797.704 153.744L797.321 153.592L796.936 153.44L796.552 153.287L796.17 153.133L795.791 152.977L795.416 152.819L795.046 152.657L794.681 152.49L794.323 152.318L793.974 152.141L793.633 151.957L793.301 151.767L792.98 151.568L792.67 151.362L792.371 151.147L792.085 150.924L791.812 150.69L791.551 150.448L791.305 150.195L791.072 149.933L790.853 149.66L790.647 149.377L790.456 149.084L790.279 148.781L790.115 148.467L789.965 148.144L789.828 147.812L789.704 147.47L789.592 147.119L789.491 146.76L789.402 146.392L789.323 146.018L789.253 145.636L789.191 145.248L789.138 144.855L789.091 144.456L789.05 144.053L789.014 143.647L788.982 143.238L788.952 142.827L788.924 142.415L788.896 142.003L788.867 141.591L788.837 141.18L788.805 140.771L788.768 140.365L788.726 139.963L788.679 139.565L788.624 139.172L788.562 138.785L788.491 138.404L788.41 138.031L788.319 137.664L788.217 137.306L788.104 136.956L787.978 136.616L787.839 136.284L787.687 135.962L787.522 135.65L787.343 135.348L787.15 135.056L786.943 134.775L786.722 134.503L786.488 134.242L786.239 133.991L785.977 133.749L785.702 133.518L785.414 133.295L785.114 133.081L784.803 132.876L784.48 132.679L784.148 132.489L783.805 132.306L783.455 132.13L783.096 131.959L782.731 131.793L782.36 131.631L781.984 131.473L781.604 131.317L781.222 131.163L780.838 131.011L780.454 130.859L780.07 130.706L779.688 130.553L779.309 130.397L778.933 130.238L778.563 130.076L778.198 129.909L777.841 129.737L777.491 129.56L777.15 129.376L776.819 129.186L776.497 128.988L776.187 128.781L775.889 128.566L775.603 128.343L775.329 128.11L775.069 127.867L774.822 127.614L774.589 127.352L774.37 127.079L774.165 126.796L773.974 126.503L773.796 126.2L773.633 125.887L773.483 125.564L773.346 125.231L773.221 124.889L773.109 124.538L773.009 124.179L772.919 123.812L772.84 123.437L772.77 123.055L772.709 122.667L772.655 122.274L772.609 121.875L772.568 121.472L772.531 121.066L772.499 120.657L772.469 120.246L772.441 119.834L772.413 119.422L772.385 119.01L772.355 118.599L772.322 118.191L772.285 117.785L772.244 117.382L772.196 116.984L772.142 116.592L772.079 116.204L772.008 115.824L771.928 115.45L771.837 115.083L771.735 114.725L771.621 114.376L771.495 114.035L771.357 113.703L771.205 113.381L771.04 113.069L770.861 112.767L770.668 112.476L770.461 112.194L770.24 111.923L770.005 111.661L769.757 111.41L769.495 111.169L769.219 110.937L768.932 110.714L768.632 110.501L768.32 110.295L767.998 110.098L767.665 109.908L767.323 109.725L766.972 109.549L766.613 109.378L766.248 109.212L765.877 109.05L765.501 108.892L765.122 108.736L764.739 108.583L764.355 108.43L763.971 108.278L763.587 108.126L763.205 107.972L762.826 107.816" stroke="#15130E" stroke-width="4.91302" stroke-miterlimit="10" stroke-linecap="round" stroke-linejoin="round"/>
<path d="M694.328 160.312L694.365 160.703L694.409 161.091L694.46 161.473L694.518 161.849L694.584 162.22L694.661 162.583L694.747 162.939L694.844 163.287L694.953 163.627L695.073 163.958L695.207 164.28L695.353 164.592L695.512 164.895L695.685 165.187L695.872 165.47L696.072 165.743L696.286 166.006L696.514 166.258L696.756 166.501L697.01 166.734L697.278 166.958L697.558 167.173L697.85 167.379L698.153 167.576L698.467 167.766L698.791 167.949L699.125 168.124L699.467 168.294L699.816 168.458L700.172 168.617L700.534 168.771L700.901 168.923L701.271 169.072L701.644 169.218L702.019 169.364L702.394 169.509L702.768 169.655L703.141 169.802L703.511 169.951L703.877 170.103L704.238 170.258L704.593 170.418L704.942 170.582L705.283 170.753L705.615 170.929L705.938 171.112L706.251 171.303L706.553 171.502L706.843 171.709L707.122 171.925L707.388 172.15L707.641 172.384L707.88 172.628L708.106 172.882L708.319 173.146L708.517 173.42L708.702 173.704L708.874 173.998L709.031 174.302L709.176 174.616L709.308 174.939L709.427 175.271L709.534 175.611L709.63 175.961L709.715 176.318L709.789 176.682L709.855 177.053L709.912 177.43L709.962 177.813L710.005 178.201L710.042 178.593L710.074 178.988L710.103 179.386L710.129 179.786L710.154 180.187L710.178 180.589L710.203 180.99L710.229 181.389L710.258 181.787L710.291 182.182L710.329 182.573L710.373 182.961L710.423 183.343L710.481 183.719L710.548 184.09L710.624 184.453L710.711 184.809L710.808 185.157L710.916 185.497L711.037 185.828L711.17 186.15L711.316 186.462L711.476 186.765L711.649 187.058L711.836 187.34L712.036 187.613L712.25 187.876L712.478 188.128L712.719 188.371L712.974 188.605L713.241 188.828L713.521 189.043L713.813 189.249L714.117 189.447L714.431 189.636L714.755 189.819L715.088 189.994L715.43 190.164L715.78 190.328L716.136 190.487L716.498 190.641L716.865 190.793L717.235 190.942L717.608 191.088L717.982 191.234L718.357 191.379L718.732 191.525L719.104 191.672L719.474 191.821L719.84 191.973L720.202 192.128L720.557 192.288L720.906 192.453L721.247 192.623L721.579 192.799L721.902 192.982L722.215 193.173L722.517 193.372L722.807 193.579L723.086 193.795L723.351 194.02L723.604 194.254L723.844 194.498L724.07 194.752L724.283 195.016L724.481 195.29L724.666 195.574L724.837 195.868L724.995 196.172L725.14 196.486L725.271 196.809L725.39 197.141L725.498 197.481L725.593 197.831L725.678 198.188L725.753 198.552L725.819 198.923L725.876 199.3L725.925 199.683L725.968 200.071L726.005 200.463L726.038 200.858L726.067 201.256L726.093 201.656L726.118 202.057L726.142 202.459L726.166 202.86L726.193 203.259L726.222 203.657L726.255 204.052L726.293 204.443L726.337 204.831L726.387 205.213L726.445 205.589L726.512 205.96L726.588 206.323L726.674 206.679L726.771 207.027L726.88 207.367L727.001 207.698L727.134 208.02L727.28 208.332L727.44 208.635L727.613 208.928L727.799 209.21L728 209.483L728.214 209.746L728.442 209.998L728.683 210.241L728.938 210.475L729.205 210.698L729.485 210.913L729.777 211.119L730.08 211.317L730.395 211.506L730.719 211.689L731.052 211.864L731.394 212.034L731.744 212.198L732.1 212.357L732.462 212.511L732.828 212.663L733.199 212.812L733.572 212.958L733.946 213.104L734.321 213.249L734.695 213.395L735.068 213.542L735.438 213.691L735.804 213.843L736.165 213.998L736.521 214.158L736.869 214.323L737.21 214.493L737.543 214.669L737.866 214.852L738.179 215.043L738.48 215.242L738.771 215.449L739.049 215.665L739.315 215.89L739.568 216.124L739.808 216.368L740.034 216.622L740.246 216.886L740.445 217.16L740.63 217.444L740.801 217.738L740.959 218.042L741.103 218.356L741.235 218.679L741.354 219.011L741.461 219.351L741.557 219.701L741.642 220.058L741.717 220.422L741.783 220.793L741.84 221.17L741.889 221.553L741.932 221.941L741.969 222.333L742.002 222.728L742.03 223.126L742.057 223.526L742.081 223.927L742.105 224.329L742.13 224.73L742.157 225.129L742.186 225.527L742.219 225.922L742.257 226.314L742.3 226.701L742.351 227.083L742.409 227.459L742.476 227.83L742.552 228.193L742.638 228.549L742.735 228.897L742.844 229.237L742.965 229.568L743.098 229.89L743.244 230.202L743.403 230.505L743.576 230.798L743.763 231.08L743.963 231.353L744.178 231.616L744.405 231.869L744.647 232.111L744.901 232.345L745.169 232.568L745.449 232.783L745.741 232.989L746.044 233.187L746.358 233.376L746.682 233.559L747.016 233.734L747.358 233.904L747.707 234.068L748.064 234.227L748.426 234.382L748.792 234.533L749.163 234.682L749.535 234.828L749.91 234.974L750.285 235.12L750.659 235.265L751.032 235.412L751.402 235.561L751.768 235.713L752.129 235.868L752.485 236.028L752.833 236.193L753.174 236.363L753.506 236.539L753.829 236.723L754.142 236.913L754.444 237.112L754.735 237.319L755.013 237.535L755.279 237.76L755.532 237.994L755.771 238.238L755.998 238.492L756.21 238.756L756.409 239.03L756.594 239.314L756.765 239.608L756.923 239.912L757.067 240.226L757.199 240.549L757.318 240.881L757.425 241.222L757.521 241.571L757.606 241.928L757.681 242.292L757.746 242.663L757.803 243.041L757.853 243.423L757.896 243.811L757.933 244.203L757.965 244.598L757.994 244.996L758.02 245.396L758.045 245.797L758.069 246.199L758.094 246.6L758.12 246.999L758.15 247.397L758.183 247.792L758.22 248.184L758.264 248.571L758.314 248.953L758.373 249.33L758.439 249.7L758.515 250.063L758.602 250.419L758.699 250.767L758.808 251.107L758.928 251.438L759.062 251.76L759.208 252.072L759.367 252.375L759.54 252.668L759.727 252.95L759.927 253.223L760.141 253.486L760.369 253.739L760.611 253.981L760.865 254.215L761.133 254.438L761.413 254.653L761.704 254.859L762.008 255.057L762.322 255.246L762.646 255.429L762.98 255.604L763.322 255.774L763.671 255.938L764.027 256.097L764.389 256.252L764.756 256.403L765.126 256.552L765.499 256.699L765.874 256.844L766.249 256.99L766.623 257.135L766.996 257.282L767.366 257.431L767.732 257.583L768.093 257.739L768.448 257.898L768.797 258.063L769.138 258.233L769.47 258.409L769.793 258.593L770.106 258.783L770.408 258.982L770.698 259.189L770.977 259.405L771.243 259.63L771.496 259.864L771.735 260.108L771.961 260.362L772.174 260.626L772.372 260.9L772.557 261.184L772.729 261.478L772.886 261.782L773.031 262.096L773.162 262.419L773.282 262.751L773.389 263.092L773.485 263.441L773.569 263.798L773.644 264.162L773.71 264.533L773.767 264.911L773.817 265.293L773.86 265.681L773.897 266.073L773.929 266.468L773.958 266.866L773.984 267.266L774.009 267.667L774.033 268.069L774.058 268.47L774.084 268.87L774.113 269.267" stroke="#15130E" stroke-width="4.91302" stroke-miterlimit="10" stroke-linecap="round" stroke-linejoin="round"/>
</g>
<ellipse rx="41.0661" ry="13.4255" transform="matrix(0.807712 -0.589578 -0.589578 -0.807712 798.776 228.771)" fill="#E46847"/>
<path fill-rule="evenodd" clip-rule="evenodd" d="M744.558 234.515C741.497 234.957 738.23 233.805 736.175 230.973L702.781 184.956C702.252 184.226 701.85 183.443 701.571 182.632C701.443 182.485 701.322 182.333 701.207 182.176C695.421 174.249 707.866 155.316 729.003 139.887C730.604 138.718 732.839 139.106 734.004 140.71L743.975 154.451C744.017 154.507 744.059 154.562 744.1 154.619L771.253 192.036C771.936 192.977 771.898 194.226 771.244 195.117C752.456 209.377 741.147 226.182 744.558 234.515Z" fill="#E05E52"/>
<path d="M731.053 213.672C725.361 199.445 747.85 179.086 759.806 170.685L762.832 174.831C735.325 196.083 730.184 209.58 731.053 213.672Z" fill="#15130E"/>
<path d="M714.76 191.35C709.068 177.123 731.557 156.764 743.513 148.362L746.539 152.509C719.032 173.761 713.891 187.258 714.76 191.35Z" fill="#15130E"/>
<path d="M690.5 -15.5127L746.307 126.783L736.722 131.271L497 -21.0127L690.5 -15.5127Z" fill="#15130E"/>
<path d="M982.999 443L922.34 201.344L931.696 196.397L1049.5 279L982.999 443Z" fill="#15130E"/>
<path d="M49.1406 181V133.36H67.9363C71.5496 133.36 74.6279 134.05 77.1712 135.43C79.7145 136.795 81.653 138.694 82.9867 141.129C84.3359 143.548 85.0105 146.34 85.0105 149.503C85.0105 152.667 84.3282 155.458 82.9635 157.878C81.5988 160.297 79.6215 162.181 77.0317 163.53C74.4574 164.879 71.3403 165.554 67.6804 165.554H55.7005V157.482H66.052C67.9905 157.482 69.5879 157.149 70.844 156.482C72.1157 155.8 73.0616 154.861 73.682 153.667C74.3178 152.458 74.6357 151.07 74.6357 149.503C74.6357 147.922 74.3178 146.541 73.682 145.363C73.0616 144.169 72.1157 143.246 70.844 142.595C69.5723 141.928 67.9595 141.594 66.0055 141.594H59.213V181H49.1406ZM101.931 133.36V181H92.0219V133.36H101.931ZM120.713 181.675C118.434 181.675 116.402 181.279 114.619 180.488C112.835 179.682 111.424 178.495 110.385 176.929C109.362 175.347 108.85 173.378 108.85 171.021C108.85 169.036 109.214 167.369 109.943 166.019C110.672 164.67 111.664 163.585 112.921 162.763C114.177 161.941 115.604 161.32 117.201 160.902C118.814 160.483 120.504 160.188 122.272 160.018C124.35 159.801 126.025 159.599 127.296 159.413C128.568 159.211 129.491 158.917 130.065 158.529C130.638 158.141 130.925 157.567 130.925 156.808V156.668C130.925 155.195 130.46 154.055 129.53 153.249C128.615 152.442 127.312 152.039 125.622 152.039C123.838 152.039 122.419 152.434 121.365 153.225C120.31 154.001 119.612 154.978 119.271 156.156L110.106 155.412C110.571 153.241 111.486 151.364 112.851 149.782C114.216 148.185 115.976 146.96 118.131 146.107C120.302 145.239 122.815 144.804 125.668 144.804C127.653 144.804 129.553 145.037 131.367 145.502C133.197 145.968 134.818 146.689 136.229 147.666C137.656 148.643 138.78 149.899 139.602 151.434C140.424 152.954 140.835 154.776 140.835 156.901V181H131.437V176.045H131.158C130.584 177.162 129.817 178.147 128.855 178.999C127.894 179.837 126.738 180.496 125.389 180.977C124.04 181.442 122.481 181.675 120.713 181.675ZM123.551 174.836C125.009 174.836 126.296 174.549 127.413 173.975C128.529 173.386 129.406 172.595 130.041 171.602C130.677 170.61 130.995 169.485 130.995 168.229V164.438C130.685 164.639 130.259 164.825 129.716 164.996C129.188 165.151 128.591 165.298 127.925 165.438C127.258 165.562 126.591 165.678 125.924 165.787C125.257 165.88 124.652 165.965 124.11 166.043C122.947 166.213 121.931 166.485 121.062 166.857C120.194 167.229 119.519 167.733 119.039 168.369C118.558 168.989 118.317 169.764 118.317 170.695C118.317 172.044 118.806 173.075 119.783 173.789C120.775 174.487 122.032 174.836 123.551 174.836ZM165.322 181.698C161.662 181.698 158.514 180.922 155.877 179.372C153.257 177.805 151.241 175.634 149.829 172.858C148.434 170.082 147.736 166.888 147.736 163.274C147.736 159.615 148.441 156.404 149.853 153.644C151.279 150.868 153.303 148.705 155.924 147.154C158.545 145.588 161.662 144.804 165.275 144.804C168.392 144.804 171.122 145.37 173.464 146.503C175.805 147.635 177.658 149.224 179.023 151.271C180.388 153.318 181.14 155.722 181.28 158.482H171.928C171.665 156.699 170.967 155.265 169.835 154.179C168.718 153.078 167.253 152.527 165.438 152.527C163.903 152.527 162.561 152.946 161.414 153.784C160.282 154.605 159.398 155.807 158.762 157.389C158.126 158.971 157.808 160.886 157.808 163.135C157.808 165.415 158.118 167.353 158.739 168.95C159.375 170.548 160.266 171.765 161.414 172.602C162.561 173.44 163.903 173.859 165.438 173.859C166.57 173.859 167.586 173.626 168.485 173.161C169.4 172.695 170.153 172.021 170.742 171.137C171.347 170.237 171.742 169.16 171.928 167.904H181.28C181.124 170.633 180.38 173.037 179.046 175.115C177.728 177.177 175.906 178.79 173.58 179.953C171.254 181.116 168.501 181.698 165.322 181.698ZM204.563 181.698C200.887 181.698 197.724 180.953 195.072 179.465C192.435 177.96 190.404 175.836 188.977 173.091C187.55 170.331 186.837 167.066 186.837 163.298C186.837 159.622 187.55 156.397 188.977 153.621C190.404 150.845 192.412 148.681 195.002 147.131C197.607 145.58 200.662 144.804 204.167 144.804C206.524 144.804 208.719 145.184 210.75 145.944C212.797 146.689 214.581 147.813 216.101 149.317C217.636 150.822 218.83 152.714 219.683 154.993C220.536 157.257 220.962 159.909 220.962 162.949V165.67H190.792V159.529H211.634C211.634 158.103 211.324 156.839 210.704 155.738C210.083 154.636 209.223 153.776 208.122 153.155C207.036 152.52 205.772 152.202 204.33 152.202C202.826 152.202 201.492 152.551 200.329 153.249C199.181 153.931 198.282 154.854 197.631 156.017C196.979 157.164 196.646 158.444 196.63 159.855V165.694C196.63 167.462 196.956 168.989 197.607 170.276C198.274 171.563 199.212 172.556 200.422 173.254C201.632 173.952 203.066 174.301 204.725 174.301C205.827 174.301 206.835 174.145 207.749 173.835C208.664 173.525 209.448 173.06 210.099 172.44C210.75 171.819 211.247 171.059 211.588 170.16L220.753 170.765C220.288 172.967 219.334 174.89 217.892 176.534C216.465 178.162 214.62 179.434 212.355 180.349C210.107 181.248 207.509 181.698 204.563 181.698ZM263.114 145.27V152.714H241.062V145.27H263.114ZM246.11 181V142.688C246.11 140.098 246.614 137.95 247.622 136.244C248.646 134.538 250.041 133.259 251.809 132.406C253.577 131.553 255.585 131.126 257.834 131.126C259.354 131.126 260.742 131.243 261.998 131.475C263.27 131.708 264.216 131.917 264.836 132.103L263.068 139.547C262.68 139.423 262.2 139.307 261.626 139.198C261.067 139.09 260.494 139.035 259.904 139.035C258.447 139.035 257.431 139.377 256.857 140.059C256.283 140.726 255.996 141.664 255.996 142.874V181H246.11ZM284.688 181.698C281.074 181.698 277.95 180.93 275.313 179.395C272.692 177.844 270.669 175.689 269.242 172.928C267.815 170.152 267.102 166.934 267.102 163.274C267.102 159.584 267.815 156.358 269.242 153.597C270.669 150.822 272.692 148.666 275.313 147.131C277.95 145.58 281.074 144.804 284.688 144.804C288.301 144.804 291.418 145.58 294.039 147.131C296.675 148.666 298.707 150.822 300.134 153.597C301.56 156.358 302.274 159.584 302.274 163.274C302.274 166.934 301.56 170.152 300.134 172.928C298.707 175.689 296.675 177.844 294.039 179.395C291.418 180.93 288.301 181.698 284.688 181.698ZM284.734 174.021C286.378 174.021 287.751 173.556 288.852 172.626C289.953 171.68 290.782 170.393 291.341 168.764C291.915 167.136 292.201 165.283 292.201 163.205C292.201 161.127 291.915 159.273 291.341 157.645C290.782 156.017 289.953 154.73 288.852 153.784C287.751 152.838 286.378 152.365 284.734 152.365C283.075 152.365 281.679 152.838 280.547 153.784C279.431 154.73 278.585 156.017 278.012 157.645C277.453 159.273 277.174 161.127 277.174 163.205C277.174 165.283 277.453 167.136 278.012 168.764C278.585 170.393 279.431 171.68 280.547 172.626C281.679 173.556 283.075 174.021 284.734 174.021ZM309.372 181V145.27H318.98V151.504H319.352C320.003 149.286 321.096 147.611 322.632 146.479C324.167 145.332 325.935 144.758 327.935 144.758C328.432 144.758 328.967 144.789 329.541 144.851C330.114 144.913 330.618 144.998 331.053 145.107V153.9C330.587 153.76 329.944 153.636 329.122 153.528C328.3 153.419 327.548 153.365 326.865 153.365C325.408 153.365 324.105 153.683 322.957 154.319C321.825 154.939 320.926 155.807 320.259 156.924C319.608 158.04 319.282 159.328 319.282 160.785V181H309.372ZM347.506 194.399L355.741 145.27H365.511L364.511 151.271H364.953C365.542 150.31 366.325 149.333 367.302 148.34C368.295 147.332 369.527 146.495 371.001 145.828C372.474 145.146 374.203 144.804 376.188 144.804C378.809 144.804 381.096 145.487 383.05 146.851C385.004 148.201 386.416 150.24 387.284 152.969C388.168 155.683 388.269 159.087 387.587 163.181C386.935 167.167 385.733 170.532 383.981 173.277C382.244 176.006 380.158 178.077 377.723 179.488C375.304 180.884 372.738 181.582 370.024 181.582C368.101 181.582 366.519 181.264 365.278 180.628C364.053 179.992 363.099 179.193 362.417 178.232C361.735 177.255 361.254 176.27 360.975 175.278H360.603L357.439 194.399H347.506ZM362.464 163.135C362.122 165.259 362.107 167.113 362.417 168.694C362.743 170.276 363.394 171.509 364.371 172.393C365.348 173.262 366.635 173.696 368.233 173.696C369.845 173.696 371.28 173.254 372.536 172.37C373.792 171.47 374.839 170.23 375.676 168.648C376.514 167.051 377.111 165.213 377.468 163.135C377.793 161.072 377.801 159.258 377.491 157.692C377.181 156.125 376.545 154.9 375.583 154.016C374.622 153.132 373.319 152.69 371.675 152.69C370.078 152.69 368.644 153.117 367.372 153.97C366.116 154.823 365.069 156.032 364.232 157.599C363.394 159.165 362.805 161.01 362.464 163.135ZM409.66 133.36L401.751 181H391.841L399.75 133.36H409.66ZM420.44 181.675C418.176 181.675 416.214 181.279 414.555 180.488C412.911 179.682 411.701 178.488 410.926 176.906C410.15 175.324 409.956 173.362 410.344 171.021C410.685 169.036 411.329 167.376 412.275 166.043C413.236 164.693 414.407 163.608 415.787 162.786C417.168 161.964 418.695 161.336 420.37 160.902C422.06 160.467 423.805 160.173 425.604 160.018C427.682 159.801 429.372 159.591 430.675 159.39C431.993 159.188 432.978 158.901 433.629 158.529C434.281 158.141 434.676 157.567 434.816 156.808V156.668C435.048 155.21 434.777 154.078 434.001 153.272C433.242 152.45 432.024 152.039 430.349 152.039C428.581 152.039 427.077 152.427 425.837 153.202C424.611 153.977 423.735 154.962 423.208 156.156L414.182 155.412C414.989 153.241 416.206 151.364 417.834 149.782C419.478 148.185 421.456 146.96 423.766 146.107C426.077 145.239 428.667 144.804 431.536 144.804C433.521 144.804 435.374 145.037 437.095 145.502C438.832 145.968 440.329 146.689 441.585 147.666C442.857 148.643 443.771 149.899 444.33 151.434C444.904 152.954 445.02 154.776 444.679 156.901L440.654 181H431.257L432.094 176.045H431.815C431.055 177.162 430.124 178.147 429.023 178.999C427.922 179.837 426.658 180.496 425.232 180.977C423.805 181.442 422.208 181.675 420.44 181.675ZM424.418 174.836C425.86 174.836 427.186 174.549 428.395 173.975C429.62 173.386 430.628 172.595 431.419 171.602C432.226 170.61 432.738 169.485 432.955 168.229L433.559 164.438C433.249 164.639 432.8 164.817 432.21 164.973C431.637 165.128 431.008 165.275 430.326 165.415C429.659 165.539 428.985 165.655 428.302 165.763C427.62 165.856 427.007 165.95 426.465 166.043C425.27 166.213 424.2 166.485 423.254 166.857C422.308 167.229 421.541 167.733 420.952 168.369C420.362 168.989 419.998 169.764 419.858 170.695C419.641 172.044 419.959 173.075 420.812 173.789C421.68 174.487 422.882 174.836 424.418 174.836ZM451.649 194.399C450.378 194.399 449.215 194.298 448.16 194.096C447.106 193.91 446.237 193.67 445.555 193.375L449.044 185.978C450.145 186.335 451.145 186.521 452.045 186.536C452.96 186.552 453.797 186.319 454.557 185.838C455.317 185.358 456.015 184.567 456.651 183.466L457.535 181.954L450.835 145.27H460.884L463.908 171.556H464.281L476.121 145.27H486.984L466.537 184.861C465.529 186.8 464.335 188.483 462.955 189.909C461.59 191.336 459.969 192.437 458.093 193.213C456.232 194.003 454.084 194.399 451.649 194.399ZM511.948 145.27L510.715 152.714H488.663L489.896 145.27H511.948ZM488.965 181L495.362 142.688C495.781 140.098 496.634 137.95 497.921 136.244C499.224 134.538 500.829 133.259 502.736 132.406C504.659 131.553 506.737 131.126 508.97 131.126C510.49 131.126 511.863 131.243 513.088 131.475C514.328 131.708 515.228 131.917 515.786 132.103L512.832 139.547C512.46 139.423 512.002 139.307 511.46 139.198C510.917 139.09 510.343 139.035 509.738 139.035C508.296 139.035 507.234 139.377 506.551 140.059C505.884 140.726 505.435 141.664 505.202 142.874L498.852 181H488.965ZM538.127 165.787L541.547 145.27H551.456L545.501 181H535.987L537.057 174.51H536.685C535.584 176.603 533.979 178.286 531.87 179.558C529.761 180.829 527.365 181.465 524.682 181.465C522.294 181.465 520.278 180.922 518.634 179.837C517.005 178.751 515.85 177.208 515.168 175.208C514.485 173.207 514.369 170.811 514.819 168.02L518.634 145.27H528.543L525.054 166.252C524.728 168.361 525.023 170.028 525.938 171.253C526.853 172.478 528.249 173.091 530.125 173.091C531.319 173.091 532.475 172.82 533.591 172.277C534.723 171.718 535.7 170.897 536.522 169.811C537.344 168.725 537.879 167.384 538.127 165.787ZM571.901 133.36L563.992 181H554.083L561.992 133.36H571.901ZM65.0983 253.698C61.4384 253.698 58.2903 252.922 55.654 251.372C53.0331 249.805 51.0171 247.634 49.6059 244.858C48.2101 242.082 47.5123 238.888 47.5123 235.274C47.5123 231.615 48.2179 228.404 49.6291 225.644C51.0559 222.868 53.0796 220.705 55.7005 219.154C58.3213 217.588 61.4384 216.804 65.0518 216.804C68.1689 216.804 70.8983 217.37 73.24 218.503C75.5817 219.635 77.4349 221.224 78.7996 223.271C80.1643 225.318 80.9164 227.722 81.056 230.482H71.7047C71.4411 228.699 70.7432 227.265 69.6111 226.179C68.4945 225.078 67.029 224.527 65.2146 224.527C63.6793 224.527 62.3379 224.946 61.1903 225.784C60.0582 226.605 59.1743 227.807 58.5384 229.389C57.9026 230.971 57.5847 232.886 57.5847 235.135C57.5847 237.415 57.8949 239.353 58.5152 240.95C59.151 242.548 60.0427 243.765 61.1903 244.602C62.3379 245.44 63.6793 245.859 65.2146 245.859C66.3467 245.859 67.3625 245.626 68.2619 245.161C69.1769 244.695 69.929 244.021 70.5183 243.137C71.1231 242.237 71.5186 241.16 71.7047 239.904H81.056C80.9009 242.633 80.1565 245.037 78.8228 247.115C77.5047 249.177 75.6825 250.79 73.3563 251.953C71.0301 253.116 68.2774 253.698 65.0983 253.698ZM104.2 253.698C100.586 253.698 97.4613 252.93 94.8249 251.395C92.2041 249.844 90.1803 247.689 88.7536 244.928C87.3269 242.152 86.6135 238.934 86.6135 235.274C86.6135 231.584 87.3269 228.358 88.7536 225.597C90.1803 222.822 92.2041 220.666 94.8249 219.131C97.4613 217.58 100.586 216.804 104.2 216.804C107.813 216.804 110.93 217.58 113.551 219.131C116.187 220.666 118.219 222.822 119.645 225.597C121.072 228.358 121.786 231.584 121.786 235.274C121.786 238.934 121.072 242.152 119.645 244.928C118.219 247.689 116.187 249.844 113.551 251.395C110.93 252.93 107.813 253.698 104.2 253.698ZM104.246 246.021C105.89 246.021 107.262 245.556 108.363 244.626C109.464 243.68 110.294 242.393 110.852 240.764C111.426 239.136 111.713 237.283 111.713 235.205C111.713 233.127 111.426 231.273 110.852 229.645C110.294 228.017 109.464 226.73 108.363 225.784C107.262 224.838 105.89 224.365 104.246 224.365C102.587 224.365 101.191 224.838 100.059 225.784C98.9423 226.73 98.0971 228.017 97.5233 229.645C96.965 231.273 96.6859 233.127 96.6859 235.205C96.6859 237.283 96.965 239.136 97.5233 240.764C98.0971 242.393 98.9423 243.68 100.059 244.626C101.191 245.556 102.587 246.021 104.246 246.021ZM138.794 232.343V253H128.884V217.27H138.328V223.574H138.747C139.538 221.496 140.864 219.852 142.725 218.642C144.586 217.417 146.842 216.804 149.494 216.804C151.975 216.804 154.139 217.347 155.984 218.433C157.83 219.518 159.264 221.069 160.288 223.085C161.311 225.086 161.823 227.474 161.823 230.25V253H151.913V232.018C151.929 229.831 151.371 228.125 150.239 226.9C149.106 225.659 147.548 225.039 145.563 225.039C144.229 225.039 143.051 225.326 142.027 225.9C141.019 226.474 140.228 227.311 139.654 228.412C139.096 229.498 138.809 230.808 138.794 232.343ZM202.32 217.27L189.828 253H178.663L166.171 217.27H176.639L184.059 242.835H184.432L191.829 217.27H202.32ZM223.178 253.698C219.503 253.698 216.339 252.953 213.687 251.465C211.051 249.96 209.019 247.836 207.592 245.091C206.166 242.331 205.452 239.066 205.452 235.298C205.452 231.622 206.166 228.397 207.592 225.621C209.019 222.845 211.027 220.681 213.617 219.131C216.223 217.58 219.278 216.804 222.783 216.804C225.14 216.804 227.334 217.184 229.366 217.944C231.413 218.689 233.196 219.813 234.716 221.317C236.251 222.822 237.445 224.714 238.298 226.993C239.151 229.257 239.578 231.909 239.578 234.949V237.67H209.407V231.529H230.25C230.25 230.103 229.939 228.839 229.319 227.738C228.699 226.636 227.838 225.776 226.737 225.155C225.651 224.52 224.388 224.202 222.945 224.202C221.441 224.202 220.107 224.551 218.944 225.249C217.797 225.931 216.897 226.854 216.246 228.017C215.595 229.164 215.261 230.444 215.246 231.855V237.694C215.246 239.462 215.571 240.989 216.223 242.276C216.889 243.563 217.828 244.556 219.037 245.254C220.247 245.952 221.681 246.301 223.341 246.301C224.442 246.301 225.45 246.145 226.365 245.835C227.28 245.525 228.063 245.06 228.714 244.44C229.366 243.819 229.862 243.059 230.203 242.16L239.368 242.765C238.903 244.967 237.949 246.89 236.507 248.534C235.08 250.162 233.235 251.434 230.971 252.349C228.722 253.248 226.124 253.698 223.178 253.698ZM246.699 253V217.27H256.307V223.504H256.679C257.33 221.286 258.424 219.611 259.959 218.479C261.494 217.332 263.262 216.758 265.263 216.758C265.759 216.758 266.294 216.789 266.868 216.851C267.441 216.913 267.945 216.998 268.38 217.107V225.9C267.914 225.76 267.271 225.636 266.449 225.528C265.627 225.419 264.875 225.365 264.192 225.365C262.735 225.365 261.432 225.683 260.284 226.319C259.152 226.939 258.253 227.807 257.586 228.924C256.935 230.04 256.609 231.328 256.609 232.785V253H246.699ZM303.887 227.458L294.815 228.017C294.66 227.241 294.326 226.543 293.814 225.923C293.303 225.287 292.628 224.783 291.791 224.411C290.969 224.023 289.984 223.83 288.836 223.83C287.301 223.83 286.006 224.155 284.952 224.807C283.897 225.442 283.37 226.295 283.37 227.365C283.37 228.218 283.711 228.939 284.393 229.529C285.076 230.118 286.247 230.591 287.906 230.948L294.373 232.25C297.846 232.964 300.436 234.111 302.142 235.693C303.848 237.275 304.701 239.353 304.701 241.927C304.701 244.269 304.011 246.324 302.631 248.092C301.266 249.86 299.39 251.24 297.001 252.232C294.629 253.209 291.891 253.698 288.79 253.698C284.06 253.698 280.291 252.713 277.485 250.744C274.693 248.759 273.057 246.06 272.576 242.648L282.323 242.137C282.618 243.579 283.331 244.68 284.463 245.44C285.595 246.184 287.045 246.556 288.813 246.556C290.55 246.556 291.946 246.223 293 245.556C294.07 244.874 294.613 243.998 294.629 242.928C294.613 242.028 294.233 241.291 293.489 240.718C292.744 240.128 291.597 239.679 290.046 239.369L283.858 238.136C280.369 237.438 277.771 236.228 276.066 234.507C274.375 232.785 273.53 230.591 273.53 227.924C273.53 225.628 274.15 223.651 275.391 221.992C276.647 220.333 278.407 219.053 280.671 218.154C282.951 217.254 285.618 216.804 288.674 216.804C293.186 216.804 296.738 217.758 299.327 219.666C301.933 221.573 303.453 224.171 303.887 227.458ZM321.785 253.675C319.505 253.675 317.474 253.279 315.69 252.488C313.907 251.682 312.496 250.495 311.456 248.929C310.433 247.347 309.921 245.378 309.921 243.021C309.921 241.036 310.286 239.369 311.015 238.019C311.743 236.67 312.736 235.585 313.992 234.763C315.248 233.941 316.675 233.32 318.272 232.902C319.885 232.483 321.575 232.188 323.343 232.018C325.421 231.801 327.096 231.599 328.368 231.413C329.64 231.211 330.562 230.917 331.136 230.529C331.71 230.141 331.997 229.567 331.997 228.808V228.668C331.997 227.195 331.532 226.055 330.601 225.249C329.686 224.442 328.383 224.039 326.693 224.039C324.91 224.039 323.491 224.434 322.436 225.225C321.382 226.001 320.684 226.978 320.343 228.156L311.177 227.412C311.643 225.241 312.558 223.364 313.922 221.782C315.287 220.185 317.047 218.96 319.203 218.107C321.374 217.239 323.886 216.804 326.74 216.804C328.725 216.804 330.624 217.037 332.439 217.502C334.269 217.968 335.889 218.689 337.3 219.666C338.727 220.643 339.852 221.899 340.673 223.434C341.495 224.954 341.906 226.776 341.906 228.901V253H332.509V248.045H332.229C331.656 249.162 330.888 250.147 329.926 250.999C328.965 251.837 327.81 252.496 326.46 252.977C325.111 253.442 323.553 253.675 321.785 253.675ZM324.623 246.836C326.08 246.836 327.368 246.549 328.484 245.975C329.601 245.386 330.477 244.595 331.113 243.602C331.749 242.61 332.067 241.485 332.067 240.229V236.438C331.756 236.639 331.33 236.825 330.787 236.996C330.26 237.151 329.663 237.298 328.996 237.438C328.329 237.562 327.662 237.678 326.995 237.787C326.329 237.88 325.724 237.965 325.181 238.043C324.018 238.213 323.002 238.485 322.134 238.857C321.265 239.229 320.591 239.733 320.11 240.369C319.629 240.989 319.389 241.764 319.389 242.695C319.389 244.044 319.877 245.075 320.854 245.789C321.847 246.487 323.103 246.836 324.623 246.836ZM369.254 217.27V224.714H347.737V217.27H369.254ZM352.622 208.709H362.532V242.02C362.532 242.935 362.671 243.649 362.95 244.16C363.23 244.657 363.617 245.006 364.114 245.207C364.625 245.409 365.215 245.51 365.881 245.51C366.347 245.51 366.812 245.471 367.277 245.393C367.742 245.3 368.099 245.231 368.347 245.184L369.906 252.558C369.41 252.713 368.712 252.891 367.812 253.093C366.913 253.31 365.819 253.442 364.532 253.489C362.144 253.582 360.051 253.264 358.252 252.535C356.468 251.806 355.08 250.674 354.088 249.139C353.095 247.603 352.607 245.665 352.622 243.323V208.709ZM376.365 253V217.27H386.274V253H376.365ZM381.343 212.664C379.87 212.664 378.606 212.175 377.551 211.198C376.512 210.206 375.993 209.019 375.993 207.639C375.993 206.275 376.512 205.104 377.551 204.127C378.606 203.134 379.87 202.638 381.343 202.638C382.816 202.638 384.072 203.134 385.111 204.127C386.166 205.104 386.693 206.275 386.693 207.639C386.693 209.019 386.166 210.206 385.111 211.198C384.072 212.175 382.816 212.664 381.343 212.664ZM411.011 253.698C407.398 253.698 404.273 252.93 401.637 251.395C399.016 249.844 396.992 247.689 395.565 244.928C394.139 242.152 393.425 238.934 393.425 235.274C393.425 231.584 394.139 228.358 395.565 225.597C396.992 222.822 399.016 220.666 401.637 219.131C404.273 217.58 407.398 216.804 411.011 216.804C414.625 216.804 417.742 217.58 420.363 219.131C422.999 220.666 425.03 222.822 426.457 225.597C427.884 228.358 428.597 231.584 428.597 235.274C428.597 238.934 427.884 242.152 426.457 244.928C425.03 247.689 422.999 249.844 420.363 251.395C417.742 252.93 414.625 253.698 411.011 253.698ZM411.058 246.021C412.702 246.021 414.074 245.556 415.175 244.626C416.276 243.68 417.106 242.393 417.664 240.764C418.238 239.136 418.525 237.283 418.525 235.205C418.525 233.127 418.238 231.273 417.664 229.645C417.106 228.017 416.276 226.73 415.175 225.784C414.074 224.838 412.702 224.365 411.058 224.365C409.398 224.365 408.003 224.838 406.871 225.784C405.754 226.73 404.909 228.017 404.335 229.645C403.777 231.273 403.498 233.127 403.498 235.205C403.498 237.283 403.777 239.136 404.335 240.764C404.909 242.393 405.754 243.68 406.871 244.626C408.003 245.556 409.398 246.021 411.058 246.021ZM445.605 232.343V253H435.696V217.27H445.14V223.574H445.559C446.35 221.496 447.676 219.852 449.537 218.642C451.398 217.417 453.654 216.804 456.306 216.804C458.787 216.804 460.951 217.347 462.796 218.433C464.641 219.518 466.076 221.069 467.099 223.085C468.123 225.086 468.635 227.474 468.635 230.25V253H458.725V232.018C458.741 229.831 458.182 228.125 457.05 226.9C455.918 225.659 454.36 225.039 452.375 225.039C451.041 225.039 449.862 225.326 448.839 225.9C447.831 226.474 447.04 227.311 446.466 228.412C445.908 229.498 445.621 230.808 445.605 232.343ZM506.829 227.458L497.757 228.017C497.602 227.241 497.268 226.543 496.756 225.923C496.245 225.287 495.57 224.783 494.733 224.411C493.911 224.023 492.926 223.83 491.778 223.83C490.243 223.83 488.948 224.155 487.894 224.807C486.839 225.442 486.312 226.295 486.312 227.365C486.312 228.218 486.653 228.939 487.335 229.529C488.018 230.118 489.188 230.591 490.848 230.948L497.315 232.25C500.788 232.964 503.378 234.111 505.084 235.693C506.79 237.275 507.643 239.353 507.643 241.927C507.643 244.269 506.953 246.324 505.573 248.092C504.208 249.86 502.331 251.24 499.943 252.232C497.57 253.209 494.833 253.698 491.732 253.698C487.002 253.698 483.233 252.713 480.426 250.744C477.635 248.759 475.999 246.06 475.518 242.648L485.265 242.137C485.56 243.579 486.273 244.68 487.405 245.44C488.537 246.184 489.987 246.556 491.755 246.556C493.492 246.556 494.888 246.223 495.942 245.556C497.012 244.874 497.555 243.998 497.57 242.928C497.555 242.028 497.175 241.291 496.431 240.718C495.686 240.128 494.539 239.679 492.988 239.369L486.8 238.136C483.311 237.438 480.713 236.228 479.007 234.507C477.317 232.785 476.472 230.591 476.472 227.924C476.472 225.628 477.092 223.651 478.333 221.992C479.589 220.333 481.349 219.053 483.613 218.154C485.893 217.254 488.56 216.804 491.615 216.804C496.128 216.804 499.68 217.758 502.269 219.666C504.875 221.573 506.395 224.171 506.829 227.458Z" fill="#15130E"/>
</g>
<defs>
<radialGradient id="paint0_radial_729_175" cx="0" cy="0" r="1" gradientUnits="userSpaceOnUse" gradientTransform="translate(1.53147e-05 289.528) rotate(-13.0067) scale(1368.1 795.959)">
<stop offset="0.000900743" stop-color="#6F8BEC"/>
<stop offset="0.494792" stop-color="#DF5B56"/>
<stop offset="1" stop-color="#FFA500"/>
</radialGradient>
<clipPath id="clip0_729_175">
<rect width="1002" height="310" rx="20" fill="white"/>
</clipPath>
<clipPath id="clip1_729_175">
<rect width="135.099" height="168.874" fill="white" transform="translate(915.434 25.4375) rotate(53.8729)"/>
</clipPath>
<clipPath id="clip2_729_175">
<rect width="113.722" height="142.152" fill="white" transform="matrix(-0.589578 -0.807712 -0.807712 0.589578 861.934 182.676)"/>
</clipPath>
</defs>
</svg>
