<svg width="64" height="64" viewBox="0 0 64 64" fill="none" xmlns="http://www.w3.org/2000/svg">
<g clip-path="url(#clip0_444_69)">
<rect width="64" height="64" rx="12.0509" fill="white"/>
<rect x="-5" y="-2" width="79" height="33" fill="#231F16"/>
<ellipse cx="55.5258" cy="30.7205" rx="10.7331" ry="4.02493" transform="rotate(90 55.5258 30.7205)" fill="#231F16"/>
<ellipse cx="29.9458" cy="30.7205" rx="10.7331" ry="4.02493" transform="rotate(90 29.9458 30.7205)" fill="#231F16"/>
<g clip-path="url(#clip1_444_69)">
<path d="M54.3626 40.47L55.2571 39.8439L55.5254 20.6136L54.631 20.3453L51.5899 21.5975L48.6383 20.2559L45.5078 21.5975L42.5562 20.2559L39.3362 21.5081L36.474 20.3453L33.5224 21.5975L32.1808 21.1503L29.9447 20.3453L29.9447 36.6239L30.6603 41.0066L32.3597 40.2016L34.1485 39.8439L36.0268 41.1855L37.6368 40.8277L40.4095 39.8439L42.5562 40.8277L43.9873 40.8277L45.8656 39.8439L47.8333 40.47L49.3538 41.2749L50.8744 40.47L52.7527 39.8439L54.3626 40.47Z" fill="#231F16"/>
<path d="M60.0859 40.2466L60.0068 40.2005L59.9276 40.1561L59.8485 40.1135L59.7693 40.0732L59.6902 40.0354L59.611 40.0002L59.5318 39.9679L59.4527 39.9387L59.3735 39.9128L59.2944 39.8903L59.2152 39.8714L59.1361 39.8562L59.0569 39.8448L58.9777 39.8372L58.8986 39.8335L58.8194 39.8338L58.7403 39.8379L58.6611 39.846L58.582 39.8579L58.5028 39.8736L58.4236 39.893L58.3445 39.9159L58.2653 39.9422L58.1862 39.9718L58.107 40.0045L58.0279 40.04L57.9487 40.0782L57.8695 40.1188L57.7904 40.1616L57.7112 40.2063L57.6321 40.2525L57.5529 40.3002L57.4738 40.3489L57.3946 40.3983L57.3154 40.4482L57.2363 40.4982L57.1571 40.548L57.078 40.5973L56.9988 40.6459L56.9197 40.6934L56.8405 40.7395L56.7613 40.7839L56.6822 40.8264L56.603 40.8667L56.5239 40.9046L56.4447 40.9398L56.3656 40.9721L56.2864 41.0012L56.2072 41.0272L56.1281 41.0496L56.0489 41.0685L55.9698 41.0838L55.8906 41.0952L55.8115 41.1028L55.7323 41.1064L55.6531 41.1062L55.574 41.102L55.4948 41.094L55.4157 41.082L55.3365 41.0664L55.2574 41.047L55.1782 41.0241L55.099 40.9977L55.0199 40.9681L54.9407 40.9355L54.8616 40.8999L54.7824 40.8618L54.7033 40.8212L54.6241 40.7784L54.5449 40.7337L54.4658 40.6874L54.3866 40.6398L54.3075 40.5911L54.2283 40.5417L54.1492 40.4918L54.07 40.4418L53.9908 40.392L53.9117 40.3426L53.8325 40.2941L53.7534 40.2466L53.6742 40.2005L53.5951 40.1561L53.5159 40.1135L53.4368 40.0732L53.3576 40.0354L53.2784 40.0002L53.1993 39.9679L53.1201 39.9387L53.041 39.9128L52.9618 39.8903L52.8827 39.8714L52.8035 39.8562L52.7243 39.8448L52.6452 39.8372L52.566 39.8335L52.4869 39.8338L52.4077 39.8379L52.3286 39.846L52.2494 39.8579L52.1702 39.8736L52.0911 39.893L52.0119 39.9159L51.9328 39.9422L51.8536 39.9718L51.7745 40.0045L51.6953 40.04L51.6161 40.0782L51.537 40.1188L51.4578 40.1616L51.3787 40.2063L51.2995 40.2525L51.2204 40.3002L51.1412 40.3489L51.062 40.3983L50.9829 40.4482L50.9037 40.4982L50.8246 40.548L50.7454 40.5973L50.6663 40.6459L50.5871 40.6934L50.5079 40.7395L50.4288 40.7839L50.3496 40.8264L50.2705 40.8667L50.1913 40.9046L50.1122 40.9398L50.033 40.9721L49.9538 41.0012L49.8747 41.0272L49.7955 41.0496L49.7164 41.0685L49.6372 41.0838L49.5581 41.0952L49.4789 41.1028L49.3997 41.1064L49.3206 41.1062L49.2414 41.102L49.1623 41.094L49.0831 41.082L49.004 41.0664L48.9248 41.047L48.8456 41.0241L48.7665 40.9977L48.6873 40.9681L48.6082 40.9355L48.529 40.8999L48.4499 40.8618L48.3707 40.8212L48.2915 40.7784L48.2124 40.7337L48.1332 40.6874L48.0541 40.6398L47.9749 40.5911L47.8958 40.5417L47.8166 40.4918L47.7374 40.4418L47.6583 40.392L47.5791 40.3426L47.5 40.2941L47.4208 40.2466L47.3417 40.2005L47.2625 40.1561L47.1833 40.1135L47.1042 40.0732L47.025 40.0354L46.9459 40.0002L46.8667 39.9679L46.7876 39.9387L46.7084 39.9128L46.6292 39.8903L46.5501 39.8714L46.4709 39.8562L46.3918 39.8448L46.3126 39.8372L46.2335 39.8335L46.1543 39.8338L46.0752 39.8379L45.996 39.846L45.9168 39.8579L45.8377 39.8736L45.7585 39.893L45.6794 39.9159L45.6002 39.9422L45.5211 39.9718L45.4419 40.0045L45.3627 40.04L45.2836 40.0782L45.2044 40.1188L45.1253 40.1616L45.0461 40.2063L44.967 40.2525L44.8878 40.3002L44.8086 40.3489L44.7295 40.3983L44.6503 40.4482L44.5712 40.4982L44.492 40.548L44.4129 40.5973L44.3337 40.6459L44.2545 40.6934L44.1754 40.7395L44.0962 40.7839L44.0171 40.8264L43.9379 40.8667L43.8588 40.9046L43.7796 40.9398L43.7004 40.9721L43.6213 41.0012L43.5421 41.0272L43.463 41.0496L43.3838 41.0685L43.3047 41.0838L43.2255 41.0952L43.1463 41.1028L43.0672 41.1064L42.988 41.1062L42.9089 41.102L42.8297 41.094L42.7506 41.082L42.6714 41.0664L42.5922 41.047L42.5131 41.0241L42.4339 40.9977L42.3548 40.9681L42.2756 40.9355L42.1965 40.8999L42.1173 40.8617L42.0381 40.8211L41.959 40.7784L41.8798 40.7337L41.8007 40.6874L41.7215 40.6398L41.6424 40.5911L41.5632 40.5417L41.484 40.4918L41.4049 40.4418L41.3257 40.392L41.2466 40.3426L41.1674 40.2941L41.0883 40.2466L41.0091 40.2005L40.9299 40.1561L40.8508 40.1135L40.7716 40.0732L40.6925 40.0354L40.6133 40.0002L40.5342 39.9679L40.455 39.9387L40.3758 39.9128L40.2967 39.8903L40.2175 39.8714L40.1384 39.8562L40.0592 39.8448L39.9801 39.8372L39.9009 39.8335L39.8217 39.8338L39.7426 39.8379L39.6634 39.846L39.5843 39.8579L39.5051 39.8736L39.426 39.893L39.3468 39.9159L39.2676 39.9422L39.1885 39.9718L39.1093 40.0045L39.0302 40.04L38.951 40.0782L38.8719 40.1188L38.7927 40.1616L38.7136 40.2062L38.6344 40.2525L38.5552 40.3002L38.4761 40.3489L38.3969 40.3983L38.3178 40.4482L38.2386 40.4982L38.1595 40.548L38.0803 40.5973L38.0011 40.6459L37.922 40.6934L37.8428 40.7395L37.7637 40.7839L37.6845 40.8264L37.6054 40.8667L37.5262 40.9046L37.447 40.9398L37.3679 40.9721L37.2887 41.0012L37.2096 41.0272L37.1304 41.0496L37.0513 41.0685L36.9721 41.0838L36.8929 41.0952L36.8138 41.1028L36.7346 41.1064L36.6555 41.1062L36.5763 41.102L36.4972 41.094L36.418 41.082L36.3388 41.0664L36.2597 41.047L36.1805 41.0241L36.1014 40.9977L36.0222 40.9681L35.9431 40.9355L35.8639 40.8999L35.7847 40.8617L35.7056 40.8211L35.6264 40.7784L35.5473 40.7337L35.4681 40.6874L35.389 40.6398L35.3098 40.5911L35.2306 40.5417L35.1515 40.4918L35.0723 40.4418L34.9932 40.392L34.914 40.3426L34.8349 40.2941L34.7557 40.2466L34.6765 40.2005L34.5974 40.1561L34.5182 40.1135L34.4391 40.0732L34.3599 40.0354L34.2808 40.0002L34.2016 39.9679L34.1224 39.9387L34.0433 39.9128L33.9641 39.8903L33.885 39.8714L33.8058 39.8562L33.7267 39.8448L33.6475 39.8372L33.5683 39.8335L33.4892 39.8338L33.41 39.8379L33.3309 39.846L33.2517 39.8579L33.1726 39.8736L33.0934 39.893L33.0142 39.9159L32.9351 39.9422L32.8559 39.9718L32.7768 40.0045L32.6976 40.04L32.6185 40.0782L32.5393 40.1188L32.4601 40.1616L32.381 40.2062L32.3018 40.2525L32.2227 40.3002L32.1435 40.3489L32.0644 40.3983L31.9852 40.4482L31.9061 40.4982L31.8269 40.548L31.7477 40.5973L31.6686 40.6459L31.5894 40.6934L31.5103 40.7395L31.4311 40.7839L31.352 40.8264L31.2728 40.8667L31.1936 40.9046L31.1145 40.9398L31.0353 40.9721L30.9562 41.0012L30.877 41.0272L30.7979 41.0496L30.7187 41.0685L30.6395 41.0838L30.5604 41.0952L30.4812 41.1028L30.4021 41.1064L30.3229 41.1062L30.2438 41.102L30.1646 41.094L30.0854 41.082L30.0063 41.0664L29.9271 41.047L29.848 41.0241L29.7688 40.9977L29.6897 40.9681L29.6105 40.9355L29.5313 40.8999L29.4522 40.8617L29.373 40.8211L29.2939 40.7784L29.2147 40.7337L29.1356 40.6874L29.0564 40.6398L28.9772 40.5911L28.8981 40.5417L28.8189 40.4918L28.7398 40.4418L28.6606 40.392L28.5815 40.3426L28.5023 40.2941" stroke="#231F16" stroke-width="0.894429" stroke-miterlimit="10" stroke-linecap="round" stroke-linejoin="round"/>
<path d="M28.959 20.7518L29.0356 20.7064L29.1123 20.6627L29.189 20.6209L29.2656 20.5813L29.3423 20.544L29.419 20.5094L29.4956 20.4777L29.5723 20.4489L29.649 20.4234L29.7256 20.4013L29.8023 20.3827L29.879 20.3678L29.9556 20.3565L30.0323 20.3491L30.109 20.3455L30.1856 20.3457L30.2623 20.3498L30.339 20.3577L30.4156 20.3695L30.4923 20.3849L30.569 20.4039L30.6456 20.4265L30.7223 20.4524L30.799 20.4815L30.8756 20.5136L30.9523 20.5486L31.0289 20.5862L31.1056 20.6261L31.1823 20.6682L31.2589 20.7121L31.3356 20.7577L31.4123 20.8045L31.4889 20.8524L31.5656 20.901L31.6423 20.9501L31.7189 20.9993L31.7956 21.0483L31.8723 21.0968L31.9489 21.1446L32.0256 21.1913L32.1023 21.2367L32.1789 21.2804L32.2556 21.3222L32.3323 21.3618L32.4089 21.3991L32.4856 21.4337L32.5623 21.4655L32.6389 21.4942L32.7156 21.5197L32.7923 21.5418L32.8689 21.5604L32.9456 21.5753L33.0222 21.5866L33.0989 21.594L33.1756 21.5977L33.2522 21.5974L33.3289 21.5933L33.4056 21.5854L33.4822 21.5736L33.5589 21.5582L33.6356 21.5392L33.7122 21.5166L33.7889 21.4907L33.8656 21.4616L33.9422 21.4295L34.0189 21.3945L34.0956 21.3569L34.1722 21.317L34.2489 21.2749L34.3256 21.231L34.4022 21.1855L34.4789 21.1386L34.5556 21.0907L34.6322 21.0421L34.7089 20.993L34.7856 20.9438L34.8622 20.8948L34.9389 20.8463L35.0155 20.7985L35.0922 20.7518L35.1689 20.7064L35.2455 20.6627L35.3222 20.6209L35.3989 20.5813L35.4755 20.544L35.5522 20.5094L35.6289 20.4777L35.7055 20.4489L35.7822 20.4234L35.8589 20.4013L35.9355 20.3827L36.0122 20.3678L36.0889 20.3565L36.1655 20.3491L36.2422 20.3455L36.3189 20.3457L36.3955 20.3498L36.4722 20.3577L36.5489 20.3695L36.6255 20.3849L36.7022 20.4039L36.7789 20.4265L36.8555 20.4524L36.9322 20.4815L37.0088 20.5136L37.0855 20.5486L37.1622 20.5862L37.2388 20.6261L37.3155 20.6682L37.3922 20.7121L37.4688 20.7577L37.5455 20.8045L37.6222 20.8524L37.6988 20.901L37.7755 20.9501L37.8522 20.9993L37.9288 21.0483L38.0055 21.0968L38.0822 21.1446L38.1588 21.1913L38.2355 21.2367L38.3122 21.2804L38.3888 21.3222L38.4655 21.3618L38.5422 21.3991L38.6188 21.4337L38.6955 21.4655L38.7722 21.4942L38.8488 21.5197L38.9255 21.5418L39.0021 21.5604L39.0788 21.5753L39.1555 21.5866L39.2321 21.594L39.3088 21.5977L39.3855 21.5974L39.4621 21.5933L39.5388 21.5854L39.6155 21.5737L39.6921 21.5582L39.7688 21.5392L39.8455 21.5166L39.9221 21.4907L39.9988 21.4616L40.0755 21.4295L40.1521 21.3945L40.2288 21.3569L40.3055 21.317L40.3821 21.2749L40.4588 21.231L40.5355 21.1855L40.6121 21.1386L40.6888 21.0907L40.7655 21.0421L40.8421 20.993L40.9188 20.9438L40.9954 20.8948L41.0721 20.8463L41.1488 20.7985L41.2254 20.7518L41.3021 20.7064L41.3788 20.6627L41.4554 20.6209L41.5321 20.5813L41.6088 20.544L41.6854 20.5094L41.7621 20.4777L41.8388 20.4489L41.9154 20.4234L41.9921 20.4013L42.0688 20.3827L42.1454 20.3678L42.2221 20.3565L42.2988 20.3491L42.3754 20.3455L42.4521 20.3457L42.5288 20.3498L42.6054 20.3577L42.6821 20.3695L42.7587 20.3849L42.8354 20.4039L42.9121 20.4265L42.9887 20.4524L43.0654 20.4815L43.1421 20.5136L43.2187 20.5486L43.2954 20.5862L43.3721 20.6261L43.4487 20.6682L43.5254 20.7121L43.6021 20.7577L43.6787 20.8045L43.7554 20.8524L43.8321 20.901L43.9087 20.9501L43.9854 20.9993L44.0621 21.0483L44.1387 21.0968L44.2154 21.1446L44.2921 21.1913L44.3687 21.2367L44.4454 21.2804L44.5221 21.3222L44.5987 21.3618L44.6754 21.3991L44.752 21.4337L44.8287 21.4655L44.9054 21.4942L44.982 21.5197L45.0587 21.5418L45.1354 21.5604L45.212 21.5753L45.2887 21.5866L45.3654 21.594L45.442 21.5977L45.5187 21.5974L45.5954 21.5933L45.672 21.5854L45.7487 21.5737L45.8254 21.5582L45.902 21.5392L45.9787 21.5166L46.0554 21.4907L46.132 21.4616L46.2087 21.4295L46.2854 21.3945L46.362 21.3569L46.4387 21.317L46.5154 21.2749L46.592 21.231L46.6687 21.1855L46.7453 21.1386L46.822 21.0907L46.8987 21.0421L46.9753 20.993L47.052 20.9438L47.1287 20.8948L47.2053 20.8463L47.282 20.7985L47.3587 20.7518L47.4353 20.7065L47.512 20.6627L47.5887 20.6209L47.6653 20.5813L47.742 20.544L47.8187 20.5094L47.8953 20.4777L47.972 20.4489L48.0487 20.4234L48.1253 20.4013L48.202 20.3827L48.2787 20.3678L48.3553 20.3565L48.432 20.3491L48.5087 20.3455L48.5853 20.3457L48.662 20.3498L48.7386 20.3577L48.8153 20.3695L48.892 20.3849L48.9686 20.4039L49.0453 20.4265L49.122 20.4524L49.1986 20.4815L49.2753 20.5136L49.352 20.5486L49.4286 20.5862L49.5053 20.6261L49.582 20.6682L49.6586 20.7121L49.7353 20.7577L49.812 20.8045L49.8886 20.8524L49.9653 20.901L50.042 20.9501L50.1186 20.9993L50.1953 21.0483L50.272 21.0968L50.3486 21.1446L50.4253 21.1913L50.502 21.2367L50.5786 21.2804L50.6553 21.3222L50.7319 21.3618L50.8086 21.3991L50.8853 21.4337L50.9619 21.4655L51.0386 21.4942L51.1153 21.5197L51.1919 21.5418L51.2686 21.5604L51.3453 21.5753L51.4219 21.5866L51.4986 21.594L51.5753 21.5977L51.6519 21.5974L51.7286 21.5933L51.8053 21.5854L51.8819 21.5737L51.9586 21.5582L52.0353 21.5392L52.1119 21.5166L52.1886 21.4907L52.2653 21.4616L52.3419 21.4295L52.4186 21.3945L52.4953 21.3569L52.5719 21.317L52.6486 21.2749L52.7252 21.231L52.8019 21.1855L52.8786 21.1386L52.9552 21.0907L53.0319 21.0421L53.1086 20.993L53.1852 20.9438L53.2619 20.8948L53.3386 20.8463L53.4152 20.7985L53.4919 20.7518L53.5686 20.7065L53.6452 20.6627L53.7219 20.6209L53.7986 20.5813L53.8752 20.544L53.9519 20.5094L54.0286 20.4777L54.1052 20.4489L54.1819 20.4234L54.2586 20.4013L54.3352 20.3827L54.4119 20.3678L54.4886 20.3565L54.5652 20.3491L54.6419 20.3455L54.7185 20.3457L54.7952 20.3498L54.8719 20.3577L54.9485 20.3695L55.0252 20.3849L55.1019 20.4039L55.1785 20.4265L55.2552 20.4524L55.3319 20.4815L55.4085 20.5136L55.4852 20.5486L55.5619 20.5862L55.6385 20.6261L55.7152 20.6682L55.7919 20.7121L55.8685 20.7577L55.9452 20.8045L56.0219 20.8524L56.0985 20.901L56.1752 20.9501L56.2519 20.9993L56.3285 21.0483L56.4052 21.0968L56.4819 21.1446L56.5585 21.1913L56.6352 21.2367L56.7118 21.2804L56.7885 21.3222L56.8652 21.3618L56.9418 21.3991L57.0185 21.4337L57.0952 21.4655L57.1718 21.4942L57.2485 21.5197L57.3252 21.5418L57.4018 21.5604L57.4785 21.5753L57.5552 21.5866L57.6318 21.594L57.7085 21.5977L57.7852 21.5974L57.8618 21.5933L57.9385 21.5854L58.0152 21.5737L58.0918 21.5582L58.1685 21.5392L58.2452 21.5166L58.3218 21.4907L58.3985 21.4616L58.4751 21.4295L58.5518 21.3945L58.6285 21.3569L58.7051 21.317L58.7818 21.2749L58.8585 21.231L58.9351 21.1855L59.0118 21.1386L59.0885 21.0907L59.1651 21.0421L59.2418 20.993L59.3185 20.9438L59.3951 20.8948L59.4718 20.8463L59.5485 20.7985" stroke="#231F16" stroke-width="0.894429" stroke-miterlimit="10" stroke-linecap="round" stroke-linejoin="round"/>
</g>
<ellipse cx="55.498" cy="30.5" rx="8.5" ry="2.5" transform="rotate(90 55.498 30.5)" fill="white"/>
<path fill-rule="evenodd" clip-rule="evenodd" d="M48.2812 20.5975C46.5024 21.3786 45.4974 21.4685 44.1976 20.8685C43.7457 20.6598 43.2296 20.6128 42.7628 20.7856C40.5036 21.6219 39.164 21.7022 37.6224 20.875C37.2153 20.6565 36.7439 20.5724 36.2948 20.6807C36.0444 20.7412 35.8115 20.7926 35.5933 20.835C35.1439 20.6141 34.6297 20.5 34.1047 20.5L33.9437 20.5C32.7156 20.5 31.5463 21.1244 31.1282 22.2792C30.4292 24.2098 29.9993 26.8376 29.9993 29.7332C29.9993 30.2839 30.4528 30.7204 31.0035 30.7204L37.0449 30.7204L37.0557 30.7204L45.0218 30.7204C45.3397 30.7204 45.5975 30.4628 45.5977 30.1448C45.5977 30.1145 45.6001 30.0843 45.6049 30.0545C45.7055 25.6718 46.7925 21.9999 48.2812 20.5975Z" fill="white"/>
<path d="M43.6289 20.3457C40.2659 21.2044 39.5443 28.0378 39.604 31.3472L40.7667 31.3472C40.9814 23.4762 42.7643 20.7333 43.6289 20.3457Z" fill="#231F16"/>
<path d="M37.3691 20.3457C34.0061 21.2044 33.2846 28.0378 33.3442 31.3472L34.507 31.3472C34.7216 23.4762 36.5045 20.7333 37.3691 20.3457Z" fill="#231F16"/>
<path d="M27.5417 30.6142C23.9232 30.0202 20.2022 30.0777 16.5538 30.2923C13.8788 30.4496 9.02538 31.0666 9.02538 31.0666C9.02538 31.0666 5.43162 32.288 4.92206 33.6468C4.12096 35.7831 5.85637 37.6716 7.39381 38.8811C10.109 41.017 13.0742 42.7922 16.3046 44.0323C20.1198 45.4969 24.4261 46.8173 27.8117 49.1627C28.7221 49.7934 29.6239 50.7544 29.5357 51.946C29.3948 53.8477 26.8805 54.4631 25.423 54.9163C12.4693 58.9439 -1.23673 60.9677 -14.6857 62.3523C-26.7389 63.5932 -38.859 64.0763 -50.9727 64.0763" stroke="#231F16" stroke-width="2.32552" stroke-linecap="round"/>
</g>
<defs>
<clipPath id="clip0_444_69">
<rect width="64" height="64" rx="12.0509" fill="white"/>
</clipPath>
<clipPath id="clip1_444_69">
<rect width="25.7596" height="32.1995" fill="white" transform="translate(55.4355 48.4307) rotate(-180)"/>
</clipPath>
</defs>
</svg>
