<svg width="393" height="393" viewBox="0 0 393 393" fill="none" xmlns="http://www.w3.org/2000/svg">
<g clip-path="url(#clip0_405_956)">
<rect width="393" height="393" rx="74" fill="black"/>
<ellipse cx="334.34" cy="198.063" rx="60" ry="22.5" transform="rotate(90 334.34 198.063)" fill="white"/>
<ellipse cx="191.34" cy="198.063" rx="60" ry="22.5" transform="rotate(90 191.34 198.063)" fill="white"/>
<g clip-path="url(#clip1_405_956)">
<path d="M327.84 252.563L332.84 249.063L334.34 141.563L329.34 140.063L312.34 147.063L295.84 139.563L278.34 147.063L261.84 139.563L243.84 146.563L227.84 140.063L211.34 147.063L203.84 144.563L191.34 140.063L191.34 231.063L195.34 255.563L204.84 251.063L214.84 249.063L225.34 256.563L234.34 254.563L249.84 249.063L261.84 254.563L269.84 254.563L280.34 249.063L291.34 252.563L299.84 257.063L308.34 252.563L318.84 249.063L327.84 252.563Z" fill="white"/>
<path d="M359.84 251.314L359.397 251.056L358.955 250.808L358.512 250.57L358.07 250.345L357.627 250.133L357.185 249.937L356.742 249.756L356.3 249.593L355.857 249.448L355.415 249.322L354.972 249.217L354.53 249.132L354.087 249.068L353.645 249.025L353.202 249.005L352.76 249.006L352.317 249.03L351.875 249.075L351.432 249.141L350.99 249.229L350.547 249.337L350.105 249.465L349.662 249.613L349.22 249.778L348.777 249.961L348.335 250.159L347.892 250.373L347.45 250.6L347.007 250.839L346.565 251.088L346.122 251.347L345.68 251.613L345.237 251.886L344.795 252.162L344.352 252.441L343.91 252.72L343.467 252.999L343.025 253.275L342.582 253.546L342.14 253.811L341.697 254.069L341.255 254.318L340.812 254.555L340.37 254.781L339.927 254.992L339.485 255.189L339.042 255.369L338.6 255.533L338.157 255.677L337.715 255.803L337.272 255.909L336.83 255.994L336.387 256.058L335.945 256.1L335.502 256.121L335.06 256.119L334.617 256.096L334.175 256.051L333.732 255.984L333.29 255.896L332.847 255.788L332.405 255.66L331.962 255.513L331.52 255.347L331.077 255.165L330.635 254.966L330.192 254.753L329.75 254.526L329.307 254.287L328.865 254.037L328.422 253.778L327.98 253.512L327.537 253.24L327.095 252.964L326.652 252.685L326.21 252.405L325.767 252.127L325.325 251.851L324.882 251.579L324.44 251.314L323.997 251.056L323.555 250.808L323.112 250.57L322.67 250.345L322.227 250.133L321.785 249.937L321.342 249.756L320.9 249.593L320.457 249.448L320.015 249.322L319.572 249.217L319.13 249.132L318.687 249.068L318.245 249.025L317.802 249.005L317.36 249.006L316.917 249.029L316.475 249.075L316.032 249.141L315.59 249.229L315.147 249.337L314.705 249.465L314.262 249.613L313.82 249.778L313.377 249.961L312.935 250.159L312.492 250.373L312.05 250.6L311.607 250.839L311.165 251.088L310.722 251.347L310.28 251.613L309.837 251.886L309.395 252.162L308.952 252.441L308.51 252.72L308.067 252.999L307.625 253.275L307.182 253.546L306.74 253.811L306.297 254.069L305.855 254.318L305.412 254.555L304.97 254.781L304.527 254.992L304.085 255.189L303.642 255.369L303.2 255.533L302.757 255.677L302.315 255.803L301.872 255.909L301.43 255.994L300.987 256.058L300.545 256.1L300.102 256.121L299.66 256.119L299.217 256.096L298.775 256.051L298.332 255.984L297.89 255.896L297.447 255.788L297.005 255.66L296.562 255.513L296.12 255.347L295.677 255.165L295.235 254.966L294.792 254.753L294.35 254.526L293.907 254.287L293.465 254.037L293.022 253.778L292.58 253.512L292.137 253.24L291.695 252.964L291.252 252.685L290.81 252.405L290.367 252.127L289.925 251.851L289.482 251.579L289.04 251.314L288.597 251.056L288.155 250.808L287.712 250.57L287.27 250.345L286.827 250.133L286.385 249.937L285.942 249.756L285.5 249.593L285.057 249.448L284.615 249.322L284.172 249.217L283.73 249.132L283.287 249.068L282.845 249.025L282.402 249.005L281.96 249.006L281.517 249.029L281.075 249.075L280.632 249.141L280.19 249.229L279.747 249.337L279.305 249.465L278.862 249.613L278.42 249.778L277.977 249.961L277.535 250.159L277.092 250.373L276.65 250.6L276.207 250.839L275.765 251.088L275.322 251.347L274.88 251.613L274.437 251.886L273.995 252.162L273.552 252.441L273.11 252.72L272.667 252.999L272.225 253.275L271.782 253.546L271.34 253.811L270.897 254.069L270.455 254.318L270.012 254.555L269.57 254.781L269.127 254.992L268.685 255.189L268.242 255.369L267.8 255.533L267.357 255.677L266.915 255.803L266.472 255.909L266.03 255.994L265.587 256.058L265.145 256.1L264.702 256.121L264.26 256.119L263.817 256.096L263.375 256.051L262.932 255.984L262.49 255.896L262.047 255.788L261.605 255.66L261.162 255.513L260.72 255.347L260.277 255.165L259.835 254.966L259.392 254.753L258.95 254.526L258.507 254.287L258.065 254.037L257.622 253.778L257.18 253.512L256.737 253.24L256.295 252.964L255.852 252.685L255.41 252.405L254.967 252.127L254.525 251.851L254.082 251.579L253.64 251.314L253.197 251.056L252.755 250.808L252.312 250.57L251.87 250.345L251.427 250.133L250.985 249.937L250.542 249.756L250.1 249.593L249.657 249.448L249.215 249.322L248.772 249.217L248.33 249.132L247.887 249.068L247.445 249.025L247.002 249.005L246.56 249.006L246.117 249.029L245.675 249.075L245.232 249.141L244.79 249.229L244.347 249.337L243.905 249.465L243.462 249.613L243.02 249.778L242.577 249.961L242.135 250.159L241.692 250.373L241.25 250.6L240.807 250.839L240.365 251.088L239.922 251.347L239.48 251.613L239.037 251.886L238.595 252.162L238.152 252.441L237.71 252.72L237.267 252.999L236.825 253.275L236.382 253.546L235.94 253.811L235.497 254.069L235.055 254.318L234.612 254.555L234.17 254.781L233.727 254.992L233.285 255.189L232.842 255.369L232.4 255.533L231.957 255.677L231.515 255.803L231.072 255.909L230.63 255.994L230.187 256.058L229.745 256.1L229.302 256.121L228.86 256.119L228.417 256.096L227.975 256.051L227.532 255.984L227.09 255.896L226.647 255.788L226.205 255.66L225.762 255.513L225.32 255.347L224.877 255.165L224.435 254.966L223.992 254.753L223.55 254.526L223.107 254.287L222.665 254.037L222.222 253.778L221.78 253.512L221.337 253.24L220.895 252.964L220.452 252.685L220.01 252.405L219.567 252.127L219.125 251.851L218.682 251.579L218.24 251.314L217.797 251.056L217.355 250.808L216.912 250.57L216.47 250.345L216.027 250.133L215.585 249.936L215.142 249.756L214.7 249.593L214.257 249.448L213.815 249.322L213.372 249.217L212.93 249.132L212.487 249.068L212.045 249.025L211.602 249.005L211.16 249.006L210.717 249.029L210.275 249.075L209.832 249.141L209.39 249.229L208.947 249.337L208.505 249.465L208.062 249.613L207.62 249.778L207.177 249.961L206.735 250.159L206.292 250.373L205.85 250.6L205.407 250.839L204.965 251.088L204.522 251.347L204.08 251.613L203.637 251.886L203.195 252.162L202.752 252.441L202.31 252.72L201.867 252.999L201.425 253.275L200.982 253.546L200.54 253.811L200.097 254.069L199.655 254.318L199.212 254.555L198.77 254.781L198.327 254.992L197.885 255.189L197.442 255.369L197 255.533L196.557 255.677L196.115 255.803L195.672 255.909L195.23 255.994L194.787 256.058L194.345 256.1L193.902 256.121L193.46 256.119L193.017 256.096L192.575 256.051L192.132 255.984L191.69 255.896L191.247 255.788L190.805 255.66L190.362 255.513L189.92 255.347L189.477 255.165L189.035 254.966L188.592 254.753L188.15 254.526L187.707 254.287L187.265 254.037L186.822 253.778L186.38 253.512L185.937 253.24L185.495 252.964L185.052 252.685L184.61 252.405L184.167 252.127L183.725 251.851L183.282 251.579" stroke="white" stroke-width="5" stroke-miterlimit="10" stroke-linecap="round" stroke-linejoin="round"/>
<path d="M185.84 142.335L186.268 142.081L186.697 141.837L187.126 141.603L187.554 141.381L187.983 141.173L188.411 140.98L188.84 140.802L189.268 140.641L189.697 140.499L190.126 140.375L190.554 140.271L190.983 140.188L191.411 140.125L191.84 140.083L192.268 140.063L192.697 140.064L193.126 140.087L193.554 140.132L193.983 140.197L194.411 140.283L194.84 140.39L195.268 140.516L195.697 140.661L196.126 140.824L196.554 141.003L196.983 141.199L197.411 141.409L197.84 141.632L198.268 141.867L198.697 142.113L199.126 142.367L199.554 142.629L199.983 142.897L200.411 143.169L200.84 143.443L201.268 143.718L201.697 143.992L202.126 144.263L202.554 144.53L202.983 144.791L203.411 145.045L203.84 145.289L204.268 145.523L204.697 145.745L205.126 145.953L205.554 146.146L205.983 146.324L206.411 146.484L206.84 146.627L207.268 146.751L207.697 146.855L208.126 146.938L208.554 147.001L208.983 147.043L209.411 147.063L209.84 147.062L210.268 147.039L210.697 146.994L211.126 146.929L211.554 146.843L211.983 146.736L212.411 146.61L212.84 146.465L213.268 146.302L213.697 146.123L214.126 145.927L214.554 145.717L214.983 145.494L215.411 145.259L215.84 145.013L216.268 144.759L216.697 144.497L217.126 144.229L217.554 143.957L217.983 143.683L218.411 143.408L218.84 143.134L219.268 142.863L219.697 142.596L220.126 142.335L220.554 142.081L220.983 141.837L221.411 141.603L221.84 141.381L222.268 141.173L222.697 140.98L223.126 140.802L223.554 140.641L223.983 140.499L224.411 140.375L224.84 140.271L225.268 140.188L225.697 140.125L226.126 140.083L226.554 140.063L226.983 140.064L227.411 140.087L227.84 140.132L228.268 140.197L228.697 140.283L229.126 140.39L229.554 140.516L229.983 140.661L230.411 140.824L230.84 141.003L231.268 141.199L231.697 141.409L232.126 141.632L232.554 141.867L232.983 142.113L233.411 142.367L233.84 142.629L234.268 142.897L234.697 143.169L235.126 143.443L235.554 143.718L235.983 143.992L236.411 144.263L236.84 144.53L237.268 144.791L237.697 145.045L238.126 145.289L238.554 145.523L238.983 145.745L239.411 145.953L239.84 146.146L240.268 146.324L240.697 146.484L241.126 146.627L241.554 146.751L241.983 146.855L242.411 146.938L242.84 147.001L243.268 147.043L243.697 147.063L244.126 147.062L244.554 147.039L244.983 146.994L245.411 146.929L245.84 146.843L246.268 146.736L246.697 146.61L247.126 146.465L247.554 146.302L247.983 146.123L248.411 145.927L248.84 145.717L249.268 145.494L249.697 145.259L250.126 145.013L250.554 144.759L250.983 144.497L251.411 144.229L251.84 143.957L252.268 143.683L252.697 143.408L253.126 143.134L253.554 142.863L253.983 142.596L254.411 142.335L254.84 142.081L255.268 141.837L255.697 141.603L256.126 141.381L256.554 141.173L256.983 140.98L257.411 140.802L257.84 140.641L258.268 140.499L258.697 140.375L259.126 140.271L259.554 140.188L259.983 140.125L260.411 140.083L260.84 140.063L261.268 140.064L261.697 140.087L262.126 140.132L262.554 140.197L262.983 140.283L263.411 140.39L263.84 140.516L264.268 140.661L264.697 140.824L265.126 141.003L265.554 141.199L265.983 141.409L266.411 141.632L266.84 141.867L267.268 142.113L267.697 142.367L268.126 142.629L268.554 142.897L268.983 143.169L269.411 143.443L269.84 143.718L270.268 143.992L270.697 144.263L271.126 144.53L271.554 144.791L271.983 145.045L272.411 145.289L272.84 145.523L273.268 145.745L273.697 145.953L274.126 146.146L274.554 146.324L274.983 146.484L275.411 146.627L275.84 146.751L276.268 146.855L276.697 146.938L277.126 147.001L277.554 147.043L277.983 147.063L278.411 147.062L278.84 147.039L279.268 146.994L279.697 146.929L280.126 146.843L280.554 146.736L280.983 146.61L281.411 146.465L281.84 146.302L282.268 146.123L282.697 145.927L283.126 145.717L283.554 145.494L283.983 145.259L284.411 145.013L284.84 144.759L285.268 144.497L285.697 144.229L286.126 143.957L286.554 143.683L286.983 143.408L287.411 143.134L287.84 142.863L288.268 142.596L288.697 142.335L289.126 142.081L289.554 141.837L289.983 141.603L290.411 141.381L290.84 141.173L291.268 140.98L291.697 140.802L292.126 140.641L292.554 140.499L292.983 140.375L293.411 140.271L293.84 140.188L294.268 140.125L294.697 140.083L295.126 140.063L295.554 140.064L295.983 140.087L296.411 140.132L296.84 140.197L297.268 140.283L297.697 140.39L298.126 140.516L298.554 140.661L298.983 140.824L299.411 141.003L299.84 141.199L300.268 141.409L300.697 141.632L301.126 141.867L301.554 142.113L301.983 142.367L302.411 142.629L302.84 142.897L303.268 143.169L303.697 143.443L304.126 143.718L304.554 143.992L304.983 144.263L305.411 144.53L305.84 144.791L306.268 145.045L306.697 145.289L307.126 145.523L307.554 145.745L307.983 145.953L308.411 146.146L308.84 146.324L309.268 146.484L309.697 146.627L310.126 146.751L310.554 146.855L310.983 146.938L311.411 147.001L311.84 147.043L312.268 147.063L312.697 147.062L313.126 147.039L313.554 146.994L313.983 146.929L314.411 146.843L314.84 146.736L315.268 146.61L315.697 146.465L316.126 146.302L316.554 146.123L316.983 145.927L317.411 145.717L317.84 145.494L318.268 145.259L318.697 145.013L319.126 144.759L319.554 144.497L319.983 144.229L320.411 143.957L320.84 143.683L321.268 143.408L321.697 143.134L322.126 142.863L322.554 142.596L322.983 142.335L323.411 142.081L323.84 141.837L324.268 141.603L324.697 141.381L325.126 141.173L325.554 140.98L325.983 140.802L326.411 140.641L326.84 140.499L327.268 140.375L327.697 140.271L328.126 140.188L328.554 140.125L328.983 140.083L329.411 140.063L329.84 140.064L330.268 140.087L330.697 140.132L331.126 140.197L331.554 140.283L331.983 140.39L332.411 140.516L332.84 140.661L333.268 140.824L333.697 141.003L334.126 141.199L334.554 141.409L334.983 141.632L335.411 141.867L335.84 142.113L336.268 142.367L336.697 142.629L337.126 142.897L337.554 143.169L337.983 143.443L338.411 143.718L338.84 143.992L339.268 144.263L339.697 144.53L340.126 144.791L340.554 145.045L340.983 145.289L341.411 145.523L341.84 145.745L342.268 145.953L342.697 146.146L343.126 146.324L343.554 146.484L343.983 146.627L344.411 146.751L344.84 146.855L345.268 146.938L345.697 147.001L346.126 147.043L346.554 147.063L346.983 147.062L347.411 147.039L347.84 146.994L348.268 146.929L348.697 146.843L349.126 146.736L349.554 146.61L349.983 146.465L350.411 146.302L350.84 146.123L351.268 145.927L351.697 145.717L352.126 145.494L352.554 145.259L352.983 145.013L353.411 144.759L353.84 144.497L354.268 144.229L354.697 143.957L355.126 143.683L355.554 143.408L355.983 143.134L356.411 142.863L356.84 142.596" stroke="white" stroke-width="5" stroke-miterlimit="10" stroke-linecap="round" stroke-linejoin="round"/>
</g>
<ellipse cx="333.84" cy="198.063" rx="52" ry="17" transform="rotate(90 333.84 198.063)" fill="black"/>
<path fill-rule="evenodd" clip-rule="evenodd" d="M300.494 138.104C299.059 135.187 296.078 133.063 292.41 133.063L214.838 133.063C214.582 133.063 214.328 133.074 214.077 133.095C213.831 133.074 213.585 133.063 213.338 133.063C200.912 133.063 190.838 159.926 190.838 193.063C190.838 195.85 193.129 198.063 195.916 198.063L214.838 198.063L230.76 198.063L275.545 198.063C277.364 198.063 278.839 196.589 278.84 194.77C278.84 194.593 278.854 194.417 278.883 194.243C279.604 163.627 288.936 139.241 300.494 138.104Z" fill="black"/>
<path d="M267.84 140.063C249.04 144.863 245.007 183.063 245.34 201.563L251.84 201.563C253.04 157.563 263.007 142.23 267.84 140.063Z" fill="white"/>
<path d="M232.84 140.063C214.04 144.863 210.007 183.063 210.34 201.563L216.84 201.563C218.04 157.563 228.007 142.23 232.84 140.063Z" fill="white"/>
<path d="M177.907 197.471C157.679 194.15 136.879 194.472 116.484 195.671C101.53 196.551 74.3984 200 74.3984 200C74.3984 200 54.3088 206.828 51.4602 214.424C46.982 226.366 56.6832 236.923 65.2777 243.684C80.4559 255.624 97.032 265.548 115.09 272.48C136.418 280.668 160.491 288.049 179.417 301.16C184.506 304.686 189.548 310.058 189.054 316.719C188.267 327.35 174.211 330.79 166.064 333.323C93.6508 355.838 17.0316 367.152 -58.1505 374.892C-125.53 381.829 -193.283 384.529 -261 384.529" stroke="white" stroke-width="13" stroke-linecap="round"/>
</g>
<defs>
<clipPath id="clip0_405_956">
<rect width="393" height="393" rx="74" fill="white"/>
</clipPath>
<clipPath id="clip1_405_956">
<rect width="144" height="180" fill="white" transform="translate(333.84 297.063) rotate(-180)"/>
</clipPath>
</defs>
</svg>
