<svg width="56" height="56" viewBox="0 0 56 56" fill="none" xmlns="http://www.w3.org/2000/svg">
<rect x="1" y="1" width="54" height="54" rx="17.1176" stroke="white" stroke-width="2"/>
<circle cx="18.8164" cy="33.7452" r="4.83705" transform="rotate(30 18.8164 33.7452)" fill="white"/>
<circle cx="28.3467" cy="39.3126" r="4.83705" transform="rotate(30 28.3467 39.3126)" fill="white"/>
<circle cx="19.4638" cy="22.9689" r="4.83705" transform="rotate(30 19.4638 22.9689)" fill="white"/>
<circle cx="37.3017" cy="33.2677" r="4.83705" transform="rotate(30 37.3017 33.2677)" fill="white"/>
<circle cx="28.4721" cy="17.0216" r="4.83705" transform="rotate(30 28.4721 17.0216)" fill="white"/>
<path d="M36.868 17.5386C37.1198 16.3065 38.8802 16.3065 39.1321 17.5386L39.5442 19.5551C39.6369 20.0087 39.9913 20.3631 40.4449 20.4558L42.4614 20.868C43.6935 21.1198 43.6935 22.8802 42.4614 23.1321L40.4449 23.5442C39.9913 23.6369 39.6369 23.9913 39.5442 24.4449L39.132 26.4614C38.8802 27.6935 37.1198 27.6935 36.8679 26.4614L36.4558 24.4449C36.3631 23.9913 36.0087 23.6369 35.5551 23.5442L33.5386 23.132C32.3065 22.8802 32.3065 21.1198 33.5386 20.8679L35.5551 20.4558C36.0087 20.3631 36.3631 20.0087 36.4558 19.5551L36.868 17.5386Z" fill="white"/>
</svg>
