<svg width="130" height="130" viewBox="0 0 130 130" fill="none" xmlns="http://www.w3.org/2000/svg">
<rect width="129" height="129" fill="#FFBA3C"/>
<circle cx="34.1113" cy="34.1412" r="3.19137" transform="rotate(45 34.1113 34.1412)" fill="#2E1F05" fill-opacity="0.03"/>
<path d="M29.2954 44.3692L28.9112 44.7534C27.5856 46.0641 26.4197 46.9998 25.4135 47.5603C24.3998 48.1134 23.4328 48.4119 22.5125 48.4557C21.5921 48.4995 20.6279 48.409 19.6196 48.1841C18.8578 48.0249 18.1329 47.9252 17.4451 47.8852C16.7572 47.8451 16.1097 47.9132 15.5026 48.0894C14.8879 48.2732 14.3358 48.61 13.8462 49.0996C13.3265 49.6193 12.9933 50.1976 12.8467 50.8344C12.7002 51.4712 12.7294 52.1031 12.9345 52.73C13.1321 53.3494 13.4798 53.908 13.9775 54.4057C14.4603 54.8885 15.0264 55.2361 15.6757 55.4485C16.3174 55.6684 16.9866 55.7049 17.6833 55.5579C18.3724 55.4185 19.0369 55.0511 19.6769 54.4557L24.2229 59.0017C22.6793 60.4711 21.0798 61.3574 19.4247 61.6606C17.7619 61.9714 16.1324 61.8108 14.5361 61.1786C12.9323 60.554 11.4581 59.5695 10.1136 58.225C8.63544 56.7468 7.57666 55.1908 6.93729 53.5572C6.2904 51.9311 6.11085 50.3279 6.39863 48.7476C6.68641 47.1673 7.48939 45.7181 8.80757 44.3999C9.68887 43.5186 10.6171 42.8801 11.5923 42.4843C12.5525 42.0887 13.5525 41.8835 14.5923 41.8687C15.6246 41.8615 16.7007 41.9961 17.8208 42.2726C18.7616 42.5054 19.6136 42.6191 20.3766 42.6138C21.1321 42.601 21.8551 42.4352 22.5455 42.1162C23.2284 41.7898 23.9427 41.2612 24.6883 40.5305L25.0725 40.1463L29.2954 44.3692Z" fill="#2E1F05" fill-opacity="0.03"/>
<path d="M44.3751 38.9214L44.7592 39.3056C46.07 40.6312 47.0056 41.7971 47.5662 42.8033C48.1193 43.817 48.4177 44.784 48.4615 45.7043C48.5054 46.6247 48.4149 47.5889 48.19 48.5972C48.0308 49.359 47.9311 50.0839 47.891 50.7717C47.8509 51.4596 47.919 52.1071 48.0953 52.7142C48.2791 53.3289 48.6158 53.881 49.1054 54.3706C49.6252 54.8903 50.2034 55.2235 50.8403 55.37C51.4771 55.5166 52.1089 55.4874 52.7358 55.2823C53.3553 55.0847 53.9139 54.737 54.4115 54.2393C54.8944 53.7565 55.242 53.1904 55.4544 52.5411C55.6743 51.8994 55.7108 51.2302 55.5638 50.5335C55.4243 49.8444 55.0569 49.1799 54.4615 48.5399L59.0076 43.9939C60.4769 45.5375 61.3632 47.137 61.6665 48.7921C61.9773 50.4549 61.8166 52.0844 61.1845 53.6807C60.5599 55.2845 59.5753 56.7587 58.2308 58.1032C56.7526 59.5814 55.1967 60.6401 53.563 61.2795C51.9369 61.9264 50.3337 62.106 48.7535 61.8182C47.1732 61.5304 45.7239 60.7274 44.4058 59.4092C43.5245 58.5279 42.8859 57.5997 42.4902 56.6245C42.0945 55.6643 41.8893 54.6643 41.8746 53.6245C41.8674 52.5922 42.002 51.5161 42.2784 50.396C42.5112 49.4552 42.625 48.6032 42.6196 47.8402C42.6069 47.0847 42.441 46.3617 42.1221 45.6713C41.7957 44.9884 41.2671 44.2741 40.5363 43.5285L40.1522 43.1443L44.3751 38.9214Z" fill="#2E1F05" fill-opacity="0.03"/>
<path d="M38.9214 23.8476L39.3056 23.4634C40.6312 22.1527 41.7971 21.217 42.8033 20.6565C43.817 20.1034 44.784 19.8049 45.7043 19.7611C46.6247 19.7173 47.5889 19.8078 48.5972 20.0326C49.359 20.1919 50.0839 20.2916 50.7717 20.3316C51.4596 20.3717 52.1071 20.3036 52.7142 20.1274C53.3289 19.9435 53.881 19.6068 54.3706 19.1172C54.8903 18.5975 55.2235 18.0192 55.37 17.3824C55.5166 16.7456 55.4874 16.1137 55.2823 15.4868C55.0847 14.8674 54.737 14.3088 54.2393 13.8111C53.7565 13.3283 53.1904 12.9807 52.5411 12.7683C51.8994 12.5484 51.2302 12.5119 50.5335 12.6589C49.8444 12.7983 49.1799 13.1657 48.5399 13.7611L43.9939 9.21508C45.5375 7.74573 47.137 6.85942 48.7921 6.55615C50.4549 6.24536 52.0844 6.40603 53.6807 7.03817C55.2845 7.66278 56.7587 8.64734 58.1032 9.99183C59.5814 11.47 60.6401 13.026 61.2795 14.6596C61.9264 16.2857 62.106 17.8889 61.8182 19.4692C61.5304 21.0495 60.7274 22.4987 59.4092 23.8169C58.5279 24.6982 57.5997 25.3367 56.6245 25.7325C55.6643 26.1281 54.6643 26.3333 53.6245 26.3481C52.5922 26.3553 51.5161 26.2207 50.396 25.9442C49.4552 25.7114 48.6032 25.5977 47.8402 25.603C47.0847 25.6158 46.3617 25.7816 45.6713 26.1006C44.9884 26.427 44.2741 26.9556 43.5285 27.6863L43.1443 28.0705L38.9214 23.8476Z" fill="#2E1F05" fill-opacity="0.03"/>
<path d="M23.8535 29.2954L23.4693 28.9112C22.1585 27.5856 21.2229 26.4197 20.6624 25.4135C20.1092 24.3998 19.8108 23.4328 19.767 22.5125C19.7232 21.5921 19.8137 20.6279 20.0385 19.6196C20.1978 18.8578 20.2974 18.1329 20.3375 17.445C20.3776 16.7572 20.3095 16.1097 20.1332 15.5026C19.9494 14.8879 19.6127 14.3358 19.1231 13.8462C18.6033 13.3265 18.0251 12.9933 17.3882 12.8467C16.7514 12.7002 16.1196 12.7294 15.4927 12.9345C14.8732 13.1321 14.3147 13.4798 13.817 13.9775C13.3341 14.4603 12.9865 15.0264 12.7741 15.6756C12.5542 16.3174 12.5178 16.9866 12.6647 17.6833C12.8042 18.3724 13.1716 19.0369 13.767 19.6769L9.22094 24.2229C7.75158 22.6793 6.86528 21.0798 6.56201 19.4247C6.25122 17.7619 6.41189 16.1324 7.04403 14.5361C7.66864 12.9323 8.6532 11.4581 9.99769 10.1136C11.4759 8.63544 13.0318 7.57666 14.6655 6.93729C16.2916 6.2904 17.8948 6.11084 19.4751 6.39862C21.0553 6.6864 22.5046 7.48938 23.8228 8.80757C24.7041 9.68887 25.3426 10.6171 25.7383 11.5923C26.134 12.5524 26.3392 13.5525 26.3539 14.5923C26.3611 15.6246 26.2265 16.7007 25.9501 17.8208C25.7173 18.7616 25.6036 19.6136 25.6089 20.3766C25.6216 21.1321 25.7875 21.8551 26.1065 22.5455C26.4329 23.2284 26.9614 23.9427 27.6922 24.6883L28.0764 25.0725L23.8535 29.2954Z" fill="#2E1F05" fill-opacity="0.03"/>
<circle cx="34.041" cy="95.041" r="3.19137" fill="#2E1F05" fill-opacity="0.03"/>
<path d="M37.868 105.679L37.868 106.222C37.8575 108.086 37.6946 109.573 37.3795 110.68C37.0538 111.788 36.5811 112.683 35.9613 113.365C35.3415 114.047 34.5957 114.664 33.7238 115.218C33.0724 115.644 32.4894 116.087 31.9747 116.545C31.4599 117.003 31.0502 117.509 30.7456 118.063C30.441 118.627 30.2886 119.256 30.2886 119.948C30.2886 120.683 30.462 121.328 30.8086 121.882C31.1553 122.435 31.6228 122.862 32.211 123.16C32.7888 123.458 33.4296 123.607 34.1334 123.607C34.8163 123.607 35.4623 123.453 36.0716 123.144C36.6809 122.846 37.1799 122.398 37.5686 121.802C37.9573 121.216 38.1674 120.486 38.1989 119.613L44.6279 119.613C44.5754 121.743 44.0712 123.501 43.1152 124.886C42.1593 126.281 40.8934 127.32 39.3177 128.001C37.7419 128.694 36.0033 129.04 34.1019 129.04C32.0114 129.04 30.1626 128.689 28.5553 127.985C26.948 127.293 25.6874 126.286 24.7735 124.965C23.8596 123.645 23.4026 122.052 23.4026 120.188C23.4026 118.941 23.6075 117.834 24.0172 116.864C24.4163 115.905 24.9784 115.053 25.7032 114.308C26.428 113.573 27.2842 112.907 28.2717 112.31C29.1016 111.81 29.7844 111.288 30.3201 110.744C30.8454 110.201 31.2393 109.573 31.502 108.859C31.7541 108.145 31.8854 107.266 31.8959 106.222L31.8959 105.679L37.868 105.679Z" fill="#2E1F05" fill-opacity="0.03"/>
<path d="M44.679 91.1633L45.2223 91.1633C47.0865 91.1738 48.5725 91.3366 49.6804 91.6518C50.7882 91.9774 51.683 92.4501 52.3648 93.0699C53.0466 93.6897 53.6644 94.4356 54.2184 95.3075C54.6445 95.9588 55.0865 96.5418 55.5446 97.0566C56.0027 97.5713 56.5087 97.981 57.0626 98.2857C57.6272 98.5903 58.2557 98.7426 58.9481 98.7426C59.6831 98.7426 60.3276 98.5693 60.8815 98.2226C61.4355 97.876 61.8616 97.4085 62.1598 96.8202C62.4581 96.2424 62.6072 95.6016 62.6072 94.8978C62.6072 94.215 62.4528 93.5689 62.1439 92.9596C61.8456 92.3503 61.3982 91.8514 60.8016 91.4627C60.2157 91.074 59.486 90.8639 58.6125 90.8324L58.6125 84.4033C60.743 84.4558 62.5007 84.9601 63.8855 85.916C65.281 86.872 66.3197 88.1378 67.0014 89.7136C67.6938 91.2893 68.04 93.0279 68.04 94.9293C68.04 97.0198 67.6885 98.8687 66.9854 100.476C66.293 102.083 65.2864 103.344 63.9654 104.258C62.6445 105.172 61.052 105.629 59.1878 105.629C57.9414 105.629 56.8336 105.424 55.8642 105.014C54.9054 104.615 54.0532 104.053 53.3076 103.328C52.5725 102.603 51.9068 101.747 51.3102 100.76C50.8095 99.9297 50.2876 99.2469 49.7443 98.7111C49.201 98.1859 48.5725 97.7919 47.8588 97.5293C47.1451 97.2772 46.2662 97.1459 45.2223 97.1354L44.679 97.1354L44.679 91.1633Z" fill="#2E1F05" fill-opacity="0.03"/>
<path d="M30.1633 84.361V83.8178C30.1738 81.9536 30.3366 80.4675 30.6518 79.3597C30.9774 78.2518 31.4501 77.357 32.0699 76.6752C32.6897 75.9935 33.4356 75.3756 34.3075 74.8217C34.9588 74.3956 35.5418 73.9535 36.0566 73.4954C36.5713 73.0374 36.981 72.5314 37.2857 71.9775C37.5903 71.4129 37.7426 70.7844 37.7426 70.092C37.7426 69.3569 37.5693 68.7124 37.2226 68.1585C36.876 67.6046 36.4085 67.1785 35.8202 66.8802C35.2424 66.5819 34.6016 66.4328 33.8978 66.4328C33.215 66.4328 32.5689 66.5873 31.9596 66.8962C31.3503 67.1945 30.8514 67.6419 30.4627 68.2384C30.074 68.8243 29.8639 69.554 29.8324 70.4275H23.4033C23.4558 68.297 23.9601 66.5393 24.916 65.1545C25.872 63.759 27.1378 62.7204 28.7136 62.0386C30.2893 61.3462 32.0279 61 33.9293 61C36.0198 61 37.8687 61.3515 39.4759 62.0546C41.0832 62.747 42.3438 63.7537 43.2577 65.0746C44.1717 66.3955 44.6286 67.9881 44.6286 69.8523C44.6286 71.0986 44.4238 72.2065 44.0141 73.1759C43.6149 74.1346 43.0529 74.9868 42.3281 75.7325C41.6032 76.4675 40.7471 77.1333 39.7596 77.7298C38.9297 78.2305 38.2469 78.7525 37.7111 79.2958C37.1859 79.839 36.7919 80.4675 36.5293 81.1813C36.2772 81.895 36.1459 82.7738 36.1354 83.8178V84.361H30.1633Z" fill="#2E1F05" fill-opacity="0.03"/>
<path d="M23.361 98.868L22.8178 98.868C20.9536 98.8575 19.4675 98.6946 18.3597 98.3795C17.2518 98.0538 16.357 97.5811 15.6752 96.9613C14.9935 96.3415 14.3756 95.5957 13.8217 94.7238C13.3956 94.0724 12.9535 93.4894 12.4954 92.9747C12.0374 92.4599 11.5314 92.0502 10.9775 91.7456C10.4129 91.4409 9.78437 91.2886 9.09195 91.2886C8.35692 91.2886 7.71245 91.462 7.15851 91.8086C6.60458 92.1553 6.17848 92.6228 5.88021 93.211C5.58194 93.7888 5.4328 94.4296 5.4328 95.1334C5.4328 95.8163 5.58726 96.4623 5.89619 97.0716C6.19446 97.6809 6.64187 98.1799 7.23841 98.5686C7.8243 98.9573 8.554 99.1674 9.42751 99.1989L9.42751 105.628C7.297 105.575 5.53933 105.071 4.1545 104.115C2.75901 103.159 1.72039 101.893 1.03862 100.318C0.346208 98.7419 -3.76993e-07 97.0033 -4.60106e-07 95.1019C-5.51484e-07 93.0114 0.351534 91.1626 1.0546 89.5553C1.74702 87.948 2.75368 86.6874 4.0746 85.7735C5.39552 84.8596 6.98807 84.4026 8.85227 84.4026C10.0986 84.4026 11.2065 84.6075 12.1759 85.0171C13.1346 85.4163 13.9868 85.9784 14.7325 86.7032C15.4675 87.428 16.1333 88.2842 16.7298 89.2717C17.2305 90.1016 17.7525 90.7844 18.2958 91.3201C18.839 91.8454 19.4675 92.2393 20.1813 92.5019C20.895 92.7541 21.7738 92.8854 22.8178 92.8959L23.361 92.8959L23.361 98.868Z" fill="#2E1F05" fill-opacity="0.03"/>
<circle cx="95.042" cy="34.041" r="3.19137" fill="#2E1F05" fill-opacity="0.03"/>
<path d="M98.8689 44.679L98.8689 45.2223C98.8584 47.0865 98.6956 48.5725 98.3805 49.6804C98.0548 50.7882 97.5821 51.683 96.9623 52.3648C96.3425 53.0466 95.5966 53.6644 94.7247 54.2184C94.0734 54.6445 93.4904 55.0865 92.9757 55.5446C92.4609 56.0027 92.0512 56.5087 91.7466 57.0626C91.4419 57.6272 91.2896 58.2557 91.2896 58.9481C91.2896 59.6831 91.4629 60.3276 91.8096 60.8815C92.1563 61.4355 92.6237 61.8616 93.212 62.1598C93.7898 62.4581 94.4306 62.6072 95.1344 62.6072C95.8172 62.6072 96.4633 62.4528 97.0726 62.1439C97.6819 61.8456 98.1809 61.3982 98.5696 60.8016C98.9582 60.2157 99.1683 59.486 99.1999 58.6125L105.629 58.6125C105.576 60.743 105.072 62.5007 104.116 63.8855C103.16 65.281 101.894 66.3197 100.319 67.0014C98.7429 67.6938 97.0043 68.04 95.1029 68.04C93.0124 68.04 91.1635 67.6885 89.5563 66.9854C87.949 66.293 86.6884 65.2864 85.7745 63.9654C84.8606 62.6445 84.4036 61.052 84.4036 59.1878C84.4036 57.9414 84.6084 56.8336 85.0181 55.8642C85.4173 54.9054 85.9793 54.0532 86.7042 53.3076C87.429 52.5725 88.2852 51.9067 89.2726 51.3102C90.1025 50.8095 90.7854 50.2876 91.3211 49.7443C91.8464 49.201 92.2403 48.5725 92.5029 47.8588C92.755 47.1451 92.8864 46.2662 92.8969 45.2223L92.8969 44.679L98.8689 44.679Z" fill="#2E1F05" fill-opacity="0.03"/>
<path d="M105.68 30.1633L106.223 30.1633C108.087 30.1738 109.573 30.3366 110.681 30.6518C111.789 30.9774 112.684 31.4501 113.366 32.0699C114.048 32.6897 114.665 33.4356 115.219 34.3075C115.645 34.9588 116.088 35.5418 116.546 36.0566C117.004 36.5713 117.51 36.981 118.064 37.2857C118.628 37.5903 119.257 37.7426 119.949 37.7426C120.684 37.7426 121.329 37.5693 121.883 37.2226C122.436 36.876 122.863 36.4085 123.161 35.8202C123.459 35.2424 123.608 34.6016 123.608 33.8978C123.608 33.215 123.454 32.5689 123.145 31.9596C122.847 31.3503 122.399 30.8514 121.803 30.4627C121.217 30.074 120.487 29.8639 119.614 29.8324L119.614 23.4033C121.744 23.4558 123.502 23.9601 124.887 24.916C126.282 25.872 127.321 27.1378 128.002 28.7136C128.695 30.2893 129.041 32.0279 129.041 33.9293C129.041 36.0198 128.689 37.8687 127.986 39.4759C127.294 41.0832 126.287 42.3438 124.966 43.2577C123.645 44.1717 122.053 44.6286 120.189 44.6286C118.942 44.6286 117.835 44.4238 116.865 44.0141C115.906 43.6149 115.054 43.0529 114.309 42.3281C113.574 41.6032 112.908 40.7471 112.311 39.7596C111.811 38.9297 111.289 38.2469 110.745 37.7111C110.202 37.1859 109.573 36.7919 108.86 36.5293C108.146 36.2772 107.267 36.1459 106.223 36.1354L105.68 36.1354L105.68 30.1633Z" fill="#2E1F05" fill-opacity="0.03"/>
<path d="M91.1643 23.361V22.8178C91.1748 20.9536 91.3376 19.4675 91.6527 18.3597C91.9784 17.2518 92.4511 16.357 93.0709 15.6752C93.6907 14.9935 94.4366 14.3756 95.3085 13.8217C95.9598 13.3956 96.5428 12.9535 97.0576 12.4954C97.5723 12.0374 97.982 11.5314 98.2866 10.9775C98.5913 10.4129 98.7436 9.78437 98.7436 9.09195C98.7436 8.35693 98.5703 7.71245 98.2236 7.15852C97.8769 6.60458 97.4095 6.17848 96.8212 5.88021C96.2434 5.58194 95.6026 5.4328 94.8988 5.4328C94.216 5.4328 93.5699 5.58726 92.9606 5.89619C92.3513 6.19446 91.8523 6.64187 91.4636 7.23841C91.075 7.8243 90.8649 8.554 90.8333 9.42751H84.4043C84.4568 7.297 84.9611 5.53933 85.917 4.1545C86.873 2.75901 88.1388 1.72039 89.7146 1.03862C91.2903 0.346208 93.0289 0 94.9303 0C97.0208 0 98.8697 0.351534 100.477 1.0546C102.084 1.74702 103.345 2.75369 104.259 4.0746C105.173 5.39552 105.63 6.98807 105.63 8.85227C105.63 10.0986 105.425 11.2065 105.015 12.1759C104.616 13.1346 104.054 13.9868 103.329 14.7325C102.604 15.4675 101.748 16.1333 100.761 16.7298C99.9307 17.2305 99.2478 17.7525 98.7121 18.2958C98.1868 18.839 97.7929 19.4675 97.5303 20.1813C97.2782 20.895 97.1468 21.7738 97.1363 22.8178V23.361H91.1643Z" fill="#2E1F05" fill-opacity="0.03"/>
<path d="M84.362 37.868L83.8187 37.868C81.9545 37.8575 80.4685 37.6946 79.3606 37.3795C78.2528 37.0538 77.358 36.5811 76.6762 35.9613C75.9944 35.3415 75.3766 34.5957 74.8227 33.7238C74.3966 33.0724 73.9545 32.4894 73.4964 31.9747C73.0384 31.4599 72.5324 31.0502 71.9784 30.7456C71.4138 30.4409 70.7853 30.2886 70.0929 30.2886C69.3579 30.2886 68.7134 30.462 68.1595 30.8086C67.6056 31.1553 67.1795 31.6228 66.8812 32.211C66.5829 32.7888 66.4338 33.4296 66.4338 34.1334C66.4338 34.8163 66.5882 35.4623 66.8972 36.0716C67.1954 36.6809 67.6428 37.1799 68.2394 37.5686C68.8253 37.9573 69.555 38.1674 70.4285 38.1989L70.4285 44.6279C68.298 44.5754 66.5403 44.0712 65.1555 43.1152C63.76 42.1593 62.7214 40.8934 62.0396 39.3177C61.3472 37.7419 61.001 36.0033 61.001 34.1019C61.001 32.0114 61.3525 30.1626 62.0556 28.5553C62.748 26.948 63.7547 25.6874 65.0756 24.7735C66.3965 23.8596 67.989 23.4026 69.8532 23.4026C71.0996 23.4026 72.2075 23.6075 73.1768 24.0171C74.1356 24.4163 74.9878 24.9784 75.7335 25.7032C76.4685 26.428 77.1343 27.2842 77.7308 28.2717C78.2315 29.1016 78.7534 29.7844 79.2967 30.3201C79.84 30.8454 80.4685 31.2393 81.1822 31.5019C81.896 31.7541 82.7748 31.8854 83.8187 31.8959L84.362 31.8959L84.362 37.868Z" fill="#2E1F05" fill-opacity="0.03"/>
<circle cx="95.1113" cy="95.1412" r="3.19137" transform="rotate(45 95.1113 95.1412)" fill="#2E1F05" fill-opacity="0.03"/>
<path d="M90.2954 105.369L89.9112 105.753C88.5856 107.064 87.4197 108 86.4135 108.56C85.3998 109.113 84.4328 109.412 83.5125 109.456C82.5921 109.5 81.6279 109.409 80.6196 109.184C79.8578 109.025 79.1329 108.925 78.4451 108.885C77.7572 108.845 77.1097 108.913 76.5026 109.089C75.8879 109.273 75.3358 109.61 74.8462 110.1C74.3265 110.619 73.9933 111.198 73.8467 111.834C73.7002 112.471 73.7294 113.103 73.9345 113.73C74.1321 114.349 74.4798 114.908 74.9775 115.406C75.4603 115.889 76.0264 116.236 76.6757 116.449C77.3174 116.668 77.9866 116.705 78.6833 116.558C79.3724 116.418 80.0369 116.051 80.6769 115.456L85.2229 120.002C83.6793 121.471 82.0798 122.357 80.4247 122.661C78.7619 122.971 77.1324 122.811 75.5361 122.179C73.9323 121.554 72.4581 120.569 71.1136 119.225C69.6354 117.747 68.5767 116.191 67.9373 114.557C67.2904 112.931 67.1108 111.328 67.3986 109.748C67.6864 108.167 68.4894 106.718 69.8076 105.4C70.6889 104.519 71.6171 103.88 72.5923 103.484C73.5525 103.089 74.5525 102.883 75.5923 102.869C76.6246 102.862 77.7007 102.996 78.8208 103.273C79.7616 103.505 80.6136 103.619 81.3766 103.614C82.1321 103.601 82.8551 103.435 83.5455 103.116C84.2284 102.79 84.9427 102.261 85.6883 101.53L86.0725 101.146L90.2954 105.369Z" fill="#2E1F05" fill-opacity="0.03"/>
<path d="M105.375 99.9214L105.759 100.306C107.07 101.631 108.006 102.797 108.566 103.803C109.119 104.817 109.418 105.784 109.462 106.704C109.505 107.625 109.415 108.589 109.19 109.597C109.031 110.359 108.931 111.084 108.891 111.772C108.851 112.46 108.919 113.107 109.095 113.714C109.279 114.329 109.616 114.881 110.105 115.371C110.625 115.89 111.203 116.223 111.84 116.37C112.477 116.517 113.109 116.487 113.736 116.282C114.355 116.085 114.914 115.737 115.412 115.239C115.894 114.756 116.242 114.19 116.454 113.541C116.674 112.899 116.711 112.23 116.564 111.534C116.424 110.844 116.057 110.18 115.462 109.54L120.008 104.994C121.477 106.538 122.363 108.137 122.667 109.792C122.977 111.455 122.817 113.084 122.184 114.681C121.56 116.284 120.575 117.759 119.231 119.103C117.753 120.581 116.197 121.64 114.563 122.28C112.937 122.926 111.334 123.106 109.753 122.818C108.173 122.53 106.724 121.727 105.406 120.409C104.524 119.528 103.886 118.6 103.49 117.625C103.095 116.664 102.889 115.664 102.875 114.625C102.867 113.592 103.002 112.516 103.278 111.396C103.511 110.455 103.625 109.603 103.62 108.84C103.607 108.085 103.441 107.362 103.122 106.671C102.796 105.988 102.267 105.274 101.536 104.528L101.152 104.144L105.375 99.9214Z" fill="#2E1F05" fill-opacity="0.03"/>
<path d="M99.9214 84.8476L100.306 84.4634C101.631 83.1527 102.797 82.217 103.803 81.6565C104.817 81.1034 105.784 80.8049 106.704 80.7611C107.625 80.7173 108.589 80.8078 109.597 81.0326C110.359 81.1919 111.084 81.2916 111.772 81.3316C112.46 81.3717 113.107 81.3036 113.714 81.1274C114.329 80.9435 114.881 80.6068 115.371 80.1172C115.89 79.5975 116.223 79.0192 116.37 78.3824C116.517 77.7456 116.487 77.1137 116.282 76.4868C116.085 75.8674 115.737 75.3088 115.239 74.8111C114.756 74.3283 114.19 73.9807 113.541 73.7683C112.899 73.5484 112.23 73.5119 111.534 73.6589C110.844 73.7983 110.18 74.1657 109.54 74.7611L104.994 70.2151C106.538 68.7457 108.137 67.8594 109.792 67.5562C111.455 67.2454 113.084 67.406 114.681 68.0382C116.284 68.6628 117.759 69.6473 119.103 70.9918C120.581 72.47 121.64 74.026 122.28 75.6596C122.926 77.2857 123.106 78.8889 122.818 80.4692C122.53 82.0495 121.727 83.4987 120.409 84.8169C119.528 85.6982 118.6 86.3367 117.625 86.7325C116.664 87.1281 115.664 87.3333 114.625 87.3481C113.592 87.3553 112.516 87.2207 111.396 86.9442C110.455 86.7114 109.603 86.5977 108.84 86.603C108.085 86.6158 107.362 86.7816 106.671 87.1006C105.988 87.427 105.274 87.9556 104.528 88.6863L104.144 89.0705L99.9214 84.8476Z" fill="#2E1F05" fill-opacity="0.03"/>
<path d="M84.8535 90.2954L84.4693 89.9112C83.1585 88.5856 82.2229 87.4197 81.6624 86.4135C81.1092 85.3998 80.8108 84.4328 80.767 83.5125C80.7232 82.5921 80.8137 81.6279 81.0385 80.6196C81.1978 79.8578 81.2974 79.1329 81.3375 78.445C81.3776 77.7572 81.3095 77.1097 81.1332 76.5026C80.9494 75.8879 80.6127 75.3358 80.1231 74.8462C79.6033 74.3265 79.0251 73.9933 78.3882 73.8467C77.7514 73.7002 77.1196 73.7294 76.4927 73.9345C75.8732 74.1321 75.3147 74.4798 74.817 74.9775C74.3341 75.4603 73.9865 76.0264 73.7741 76.6756C73.5542 77.3174 73.5178 77.9866 73.6647 78.6833C73.8042 79.3724 74.1716 80.0369 74.767 80.6769L70.2209 85.2229C68.7516 83.6793 67.8653 82.0798 67.562 80.4247C67.2512 78.7619 67.4119 77.1324 68.044 75.5361C68.6686 73.9323 69.6532 72.4581 70.9977 71.1136C72.4759 69.6354 74.0318 68.5767 75.6655 67.9373C77.2916 67.2904 78.8948 67.1108 80.4751 67.3986C82.0553 67.6864 83.5046 68.4894 84.8228 69.8076C85.7041 70.6889 86.3426 71.6171 86.7383 72.5923C87.134 73.5524 87.3392 74.5525 87.3539 75.5923C87.3611 76.6246 87.2265 77.7007 86.9501 78.8208C86.7173 79.7616 86.6036 80.6136 86.6089 81.3766C86.6216 82.1321 86.7875 82.8551 87.1065 83.5455C87.4329 84.2284 87.9614 84.9427 88.6922 85.6883L89.0764 86.0725L84.8535 90.2954Z" fill="#2E1F05" fill-opacity="0.03"/>
</svg>
